<svg width="30" height="30" viewBox="0 0 30 30" fill="none" xmlns="http://www.w3.org/2000/svg">
<rect width="30" height="30" rx="15" fill="#BB6BD9"/>
<path d="M12.0652 14.3846C11.2004 14.3846 10.371 14.0604 9.75943 13.4834C9.1479 12.9064 8.80435 12.1237 8.80435 11.3077V8.84615C8.80435 8.68294 8.87306 8.52642 8.99536 8.41101C9.11767 8.2956 9.28355 8.23077 9.45652 8.23077H10.1087C10.2817 8.23077 10.4475 8.16593 10.5699 8.05053C10.6922 7.93512 10.7609 7.77859 10.7609 7.61538C10.7609 7.45217 10.6922 7.29565 10.5699 7.18024C10.4475 7.06483 10.2817 7 10.1087 7H9.45652C8.93762 7 8.43997 7.19451 8.07305 7.54073C7.70613 7.88695 7.5 8.35652 7.5 8.84615V11.3077C7.50084 12.0029 7.6805 12.6876 8.02356 13.3028C8.36663 13.9181 8.86283 14.4456 9.46956 14.84C10.0525 15.3249 10.5252 15.9163 10.8593 16.5784C11.1933 17.2405 11.3817 17.9596 11.413 18.6923C11.413 19.8348 11.894 20.9305 12.7502 21.7383C13.6063 22.5462 14.7675 23 15.9783 23C17.189 23 18.3502 22.5462 19.2064 21.7383C20.0625 20.9305 20.5435 19.8348 20.5435 18.6923V17.9908C21.1582 17.841 21.694 17.4848 22.0504 16.9889C22.4067 16.4931 22.5592 15.8916 22.4792 15.2972C22.3992 14.7029 22.0922 14.1565 21.6158 13.7604C21.1394 13.3644 20.5262 13.1459 19.8913 13.1459C19.2564 13.1459 18.6432 13.3644 18.1668 13.7604C17.6904 14.1565 17.3834 14.7029 17.3034 15.2972C17.2234 15.8916 17.3759 16.4931 17.7322 16.9889C18.0886 17.4848 18.6243 17.841 19.2391 17.9908V18.6923C19.2391 19.5084 18.8956 20.291 18.284 20.868C17.6725 21.4451 16.8431 21.7692 15.9783 21.7692C15.1134 21.7692 14.284 21.4451 13.6725 20.868C13.0609 20.291 12.7174 19.5084 12.7174 18.6923C12.7504 17.9587 12.9408 17.239 13.2771 16.5769C13.6134 15.9147 14.0886 15.3239 14.6739 14.84C15.2782 14.4442 15.7719 13.9161 16.1126 13.3009C16.4534 12.6858 16.6311 12.0018 16.6304 11.3077V8.84615C16.6304 8.35652 16.4243 7.88695 16.0574 7.54073C15.6905 7.19451 15.1928 7 14.6739 7H14.0217C13.8488 7 13.6829 7.06483 13.5606 7.18024C13.4383 7.29565 13.3696 7.45217 13.3696 7.61538C13.3696 7.77859 13.4383 7.93512 13.5606 8.05053C13.6829 8.16593 13.8488 8.23077 14.0217 8.23077H14.6739C14.8469 8.23077 15.0128 8.2956 15.1351 8.41101C15.2574 8.52642 15.3261 8.68294 15.3261 8.84615V11.3077C15.3261 11.7118 15.2417 12.1119 15.0779 12.4852C14.914 12.8585 14.6738 13.1977 14.371 13.4834C14.0682 13.7691 13.7087 13.9958 13.3131 14.1504C12.9175 14.305 12.4934 14.3846 12.0652 14.3846ZM19.8913 16.8462C19.5454 16.8462 19.2136 16.7165 18.969 16.4857C18.7244 16.2549 18.587 15.9418 18.587 15.6154C18.587 15.289 18.7244 14.9759 18.969 14.7451C19.2136 14.5143 19.5454 14.3846 19.8913 14.3846C20.2372 14.3846 20.569 14.5143 20.8136 14.7451C21.0582 14.9759 21.1956 15.289 21.1956 15.6154C21.1956 15.9418 21.0582 16.2549 20.8136 16.4857C20.569 16.7165 20.2372 16.8462 19.8913 16.8462Z" fill="white"/>
</svg>
