<svg width="47" height="44" viewBox="0 0 47 44" fill="none" xmlns="http://www.w3.org/2000/svg">
<path d="M27.0286 22.1329C28.1965 22.1329 29.1432 21.2226 29.1432 20.0997C29.1432 18.9767 28.1965 18.0664 27.0286 18.0664C25.8608 18.0664 24.9141 18.9767 24.9141 20.0997C24.9141 21.2226 25.8608 22.1329 27.0286 22.1329Z" fill="#6DC0F9"/>
<path d="M34.0794 22.1329C35.2473 22.1329 36.194 21.2226 36.194 20.0997C36.194 18.9767 35.2473 18.0664 34.0794 18.0664C32.9116 18.0664 31.9648 18.9767 31.9648 20.0997C31.9648 21.2226 32.9116 22.1329 34.0794 22.1329Z" fill="#6DC0F9"/>
<path d="M27.0286 28.9112C28.1965 28.9112 29.1432 28.0009 29.1432 26.878C29.1432 25.755 28.1965 24.8447 27.0286 24.8447C25.8608 24.8447 24.9141 25.755 24.9141 26.878C24.9141 28.0009 25.8608 28.9112 27.0286 28.9112Z" fill="#6DC0F9"/>
<path d="M34.0794 28.9112C35.2473 28.9112 36.194 28.0009 36.194 26.878C36.194 25.755 35.2473 24.8447 34.0794 24.8447C32.9116 24.8447 31.9648 25.755 31.9648 26.878C31.9648 28.0009 32.9116 28.9112 34.0794 28.9112Z" fill="#6DC0F9"/>
<path d="M12.931 28.9112C14.0988 28.9112 15.0456 28.0009 15.0456 26.878C15.0456 25.755 14.0988 24.8447 12.931 24.8447C11.7631 24.8447 10.8164 25.755 10.8164 26.878C10.8164 28.0009 11.7631 28.9112 12.931 28.9112Z" fill="#6DC0F9"/>
<path d="M19.9818 28.9112C21.1496 28.9112 22.0964 28.0009 22.0964 26.878C22.0964 25.755 21.1496 24.8447 19.9818 24.8447C18.8139 24.8447 17.8672 25.755 17.8672 26.878C17.8672 28.0009 18.8139 28.9112 19.9818 28.9112Z" fill="#6DC0F9"/>
<path d="M12.931 35.6886C14.0988 35.6886 15.0456 34.7783 15.0456 33.6553C15.0456 32.5324 14.0988 31.6221 12.931 31.6221C11.7631 31.6221 10.8164 32.5324 10.8164 33.6553C10.8164 34.7783 11.7631 35.6886 12.931 35.6886Z" fill="#6DC0F9"/>
<path d="M19.9818 35.6886C21.1496 35.6886 22.0964 34.7783 22.0964 33.6553C22.0964 32.5324 21.1496 31.6221 19.9818 31.6221C18.8139 31.6221 17.8672 32.5324 17.8672 33.6553C17.8672 34.7783 18.8139 35.6886 19.9818 35.6886Z" fill="#6DC0F9"/>
<path d="M27.0286 35.6886C28.1965 35.6886 29.1432 34.7783 29.1432 33.6553C29.1432 32.5324 28.1965 31.6221 27.0286 31.6221C25.8608 31.6221 24.9141 32.5324 24.9141 33.6553C24.9141 34.7783 25.8608 35.6886 27.0286 35.6886Z" fill="#6DC0F9"/>
<path d="M13.0783 4.51172C13.0783 4.04228 12.6977 3.66172 12.2283 3.66172C11.7589 3.66172 11.3783 4.04228 11.3783 4.51172H13.0783ZM11.3783 7.22272C11.3783 7.69217 11.7589 8.07272 12.2283 8.07272C12.6977 8.07272 13.0783 7.69217 13.0783 7.22272H11.3783ZM35.6339 4.51172C35.6339 4.04228 35.2533 3.66172 34.7839 3.66172C34.3144 3.66172 33.9339 4.04228 33.9339 4.51172H35.6339ZM33.9339 7.22272C33.9339 7.69217 34.3144 8.07272 34.7839 8.07272C35.2533 8.07272 35.6339 7.69217 35.6339 7.22272H33.9339ZM9.40885 8.07272H37.6033V6.37272H9.40885V8.07272ZM37.6033 8.07272C39.5013 8.07272 40.9825 9.54391 40.9825 11.2892H42.6825C42.6825 8.5428 40.3767 6.37272 37.6033 6.37272V8.07272ZM40.9825 11.2892V35.6883H42.6825V11.2892H40.9825ZM40.9825 35.6883C40.9825 37.4336 39.5013 38.9048 37.6033 38.9048V40.6048C40.3767 40.6048 42.6825 38.4347 42.6825 35.6883H40.9825ZM37.6033 38.9048H9.40885V40.6048H37.6033V38.9048ZM9.40885 38.9048C7.51086 38.9048 6.02969 37.4336 6.02969 35.6883H4.32969C4.32969 38.4347 6.63544 40.6048 9.40885 40.6048V38.9048ZM6.02969 35.6883V11.2892H4.32969V35.6883H6.02969ZM6.02969 11.2892C6.02969 9.54391 7.51086 8.07272 9.40885 8.07272V6.37272C6.63544 6.37272 4.32969 8.5428 4.32969 11.2892H6.02969ZM11.3783 4.51172V7.22272H13.0783V4.51172H11.3783ZM33.9339 4.51172V7.22272H35.6339V4.51172H33.9339ZM41.8325 13.1502H5.17969V14.8502H41.8325V13.1502Z" fill="#6DC0F9"/>
</svg>
