<svg width="30" height="30" viewBox="0 0 30 30" fill="none" xmlns="http://www.w3.org/2000/svg">
<rect width="30" height="30" rx="15" fill="#6DC0F9"/>
<path d="M8.2305 15.1148V22.3846C8.2305 22.5478 8.29534 22.7043 8.41076 22.8197C8.52617 22.9352 8.68271 23 8.84593 23H12.5385V17.7689C12.5385 17.5241 12.6357 17.2893 12.8089 17.1161C12.982 16.943 13.2168 16.8458 13.4616 16.8458H16.5387C16.7836 16.8458 17.0184 16.943 17.1915 17.1161C17.3646 17.2893 17.4619 17.5241 17.4619 17.7689V23H21.1544C21.3176 23 21.4742 22.9352 21.5896 22.8197C21.705 22.7043 21.7698 22.5478 21.7698 22.3846V15.1148M20.5395 12.0381V7.61475H18.6933V10.2688M23.6167 14.9998L15.4196 7.15318C15.2273 6.95009 14.7776 6.94779 14.5818 7.15318L6.38477 14.9998H23.6167Z" stroke="white" stroke-width="1.2" stroke-linecap="round" stroke-linejoin="round"/>
</svg>
