<svg width="34" height="34" viewBox="0 0 34 34" fill="none" xmlns="http://www.w3.org/2000/svg">
<path d="M14.5069 6.47121C14.5069 5.26258 14.0268 4.10345 13.1722 3.24882C12.3175 2.39419 11.1584 1.91406 9.94978 1.91406C8.74115 1.91406 7.58202 2.39419 6.72739 3.24882C5.87276 4.10345 5.39263 5.26258 5.39263 6.47121C5.39263 7.67984 5.87276 8.83896 6.72739 9.69359C7.58202 10.5482 8.74115 11.0283 9.94978 11.0283C11.1584 11.0283 12.3175 10.5482 13.1722 9.69359C14.0268 8.83896 14.5069 7.67984 14.5069 6.47121ZM7.04978 6.47121C7.04978 6.09037 7.12479 5.71327 7.27053 5.36142C7.41627 5.00958 7.62988 4.68989 7.89917 4.4206C8.16846 4.15131 8.48815 3.93769 8.84 3.79196C9.19184 3.64622 9.56894 3.57121 9.94978 3.57121C10.3306 3.57121 10.7077 3.64622 11.0596 3.79196C11.4114 3.93769 11.7311 4.15131 12.0004 4.4206C12.2697 4.68989 12.4833 5.00958 12.629 5.36142C12.7748 5.71327 12.8498 6.09037 12.8498 6.47121C12.8498 7.24033 12.5442 7.97796 12.0004 8.52182C11.4565 9.06567 10.7189 9.37121 9.94978 9.37121C9.18065 9.37121 8.44302 9.06567 7.89917 8.52182C7.35531 7.97796 7.04978 7.24033 7.04978 6.47121ZM4.14978 12.6855H11.0816C10.8098 13.1992 10.6077 13.756 10.4883 14.3426H4.14978C3.93003 14.3426 3.71928 14.4299 3.56389 14.5853C3.4085 14.7407 3.32121 14.9515 3.32121 15.1712V15.9998C3.32121 18.0878 5.14241 20.3316 8.45172 20.8552C7.91812 21.2198 7.47401 21.7053 7.15749 22.2704C3.66092 21.3242 1.66406 18.6297 1.66406 15.9998V15.1712C1.66406 14.512 1.92595 13.8797 2.39211 13.4135C2.85827 12.9474 3.49052 12.6855 4.14978 12.6855ZM13.0635 12.6855C13.8988 11.6746 15.1632 11.0283 16.5784 11.0283C17.5708 11.0266 18.5365 11.3496 19.3282 11.948C20.1199 12.5464 20.6941 13.3874 20.9632 14.3426C21.203 15.1952 21.1895 16.0992 20.9243 16.9443C20.659 17.7893 20.1535 18.5389 19.4695 19.1015C18.7855 19.6641 17.9525 20.0154 17.0721 20.1126C16.1918 20.2098 15.3022 20.0487 14.5119 19.6488C13.9034 19.3391 13.3723 18.8967 12.9578 18.3541C12.5433 17.8116 12.256 17.1829 12.1171 16.5144C11.9782 15.8459 11.9913 15.1548 12.1554 14.4921C12.3195 13.8293 12.6304 13.2119 13.0652 12.6855H13.0635ZM13.9584 14.3426C13.7952 14.6869 13.7014 15.06 13.6823 15.4405C13.6633 15.821 13.7194 16.2016 13.8474 16.5604C13.9755 16.9193 14.1729 17.2494 14.4285 17.5319C14.6841 17.8145 14.9929 18.0439 15.3372 18.2071C15.6814 18.3703 16.0545 18.4641 16.435 18.4832C16.8155 18.5022 17.1961 18.4461 17.5549 18.3181C17.9138 18.1901 18.2439 17.9926 18.5264 17.737C18.809 17.4814 19.0384 17.1726 19.2016 16.8284C19.5312 16.1328 19.5711 15.3349 19.3123 14.61C19.0536 13.8851 18.5175 13.2927 17.822 12.9631C17.1265 12.6334 16.3286 12.5936 15.6037 12.8523C14.8788 13.111 14.2864 13.6471 13.9568 14.3426H13.9584ZM25.9992 22.2704C25.6836 21.705 25.2404 21.221 24.705 20.8569C28.0126 20.3316 29.8355 18.0861 29.8355 15.9998V15.1712C29.8355 14.9515 29.7482 14.7407 29.5928 14.5853C29.4374 14.4299 29.2267 14.3426 29.0069 14.3426H22.6684C22.5513 13.7648 22.3521 13.2068 22.0768 12.6855H29.0069C29.6662 12.6855 30.2984 12.9474 30.7646 13.4135C31.2308 13.8797 31.4926 14.512 31.4926 15.1712V15.9998C31.4926 18.6297 29.4941 21.3225 25.9992 22.2704ZM24.014 22.4146C23.5617 22.0175 22.9802 21.799 22.3784 21.7998H10.7783C10.4517 21.7989 10.128 21.8626 9.82607 21.9872C9.5241 22.1118 9.24973 22.2949 9.01873 22.5259C8.78774 22.7569 8.60468 23.0312 8.48007 23.3332C8.35546 23.6352 8.29176 23.9588 8.29263 24.2855V25.1141C8.29263 28.3803 11.3749 31.7426 16.5784 31.7426C21.7818 31.7426 24.8641 28.3803 24.8641 25.1141V24.2855C24.8641 23.5398 24.536 22.8703 24.014 22.4129V22.4146ZM9.94978 24.2855C9.94978 24.0657 10.0371 23.855 10.1925 23.6996C10.3478 23.5442 10.5586 23.4569 10.7783 23.4569H22.3784C22.5981 23.4569 22.8089 23.5442 22.9642 23.6996C23.1196 23.855 23.2069 24.0657 23.2069 24.2855V25.1141C23.2069 27.497 20.8339 30.0855 16.5784 30.0855C12.3228 30.0855 9.94978 27.497 9.94978 25.1141V24.2855ZM23.2069 1.91406C24.4156 1.91406 25.5747 2.39419 26.4293 3.24882C27.2839 4.10345 27.7641 5.26258 27.7641 6.47121C27.7641 7.67984 27.2839 8.83896 26.4293 9.69359C25.5747 10.5482 24.4156 11.0283 23.2069 11.0283C21.9983 11.0283 20.8392 10.5482 19.9845 9.69359C19.1299 8.83896 18.6498 7.67984 18.6498 6.47121C18.6498 5.26258 19.1299 4.10345 19.9845 3.24882C20.8392 2.39419 21.9983 1.91406 23.2069 1.91406ZM23.2069 3.57121C22.4378 3.57121 21.7002 3.87674 21.1563 4.4206C20.6125 4.96445 20.3069 5.70208 20.3069 6.47121C20.3069 7.24033 20.6125 7.97796 21.1563 8.52182C21.7002 9.06567 22.4378 9.37121 23.2069 9.37121C23.9761 9.37121 24.7137 9.06567 25.2575 8.52182C25.8014 7.97796 26.1069 7.24033 26.1069 6.47121C26.1069 5.70208 25.8014 4.96445 25.2575 4.4206C24.7137 3.87674 23.9761 3.57121 23.2069 3.57121Z" fill="#6DC0F9" stroke="#6DC0F9" stroke-width="0.5"/>
</svg>
