<svg width="37" height="38" viewBox="0 0 37 38" fill="none" xmlns="http://www.w3.org/2000/svg">
<path d="M18.329 16.5494C19.5377 16.5494 20.6968 16.0692 21.5514 15.2146C22.406 14.36 22.8862 13.2008 22.8862 11.9922C22.8862 10.7836 22.406 9.62446 21.5514 8.76983C20.6968 7.9152 19.5377 7.43507 18.329 7.43507C17.1204 7.43507 15.9613 7.9152 15.1066 8.76983C14.252 9.62446 13.7719 10.7836 13.7719 11.9922C13.7719 13.2008 14.252 14.36 15.1066 15.2146C15.9613 16.0692 17.1204 16.5494 18.329 16.5494ZM18.329 14.2708C17.7247 14.2708 17.1451 14.0307 16.7178 13.6034C16.2905 13.1761 16.0504 12.5965 16.0504 11.9922C16.0504 11.3879 16.2905 10.8083 16.7178 10.381C17.1451 9.95371 17.7247 9.71364 18.329 9.71364C18.9333 9.71364 19.5129 9.95371 19.9402 10.381C20.3675 10.8083 20.6076 11.3879 20.6076 11.9922C20.6076 12.5965 20.3675 13.1761 19.9402 13.6034C19.5129 14.0307 18.9333 14.2708 18.329 14.2708ZM11.4933 27.9422C11.1911 27.9422 10.9014 28.0622 10.6877 28.2759C10.4741 28.4896 10.354 28.7793 10.354 29.0815C10.354 29.3837 10.4741 29.6734 10.6877 29.8871C10.9014 30.1008 11.1911 30.2208 11.4933 30.2208H25.1647C25.4669 30.2208 25.7567 30.1008 25.9703 29.8871C26.184 29.6734 26.304 29.3837 26.304 29.0815C26.304 28.7793 26.184 28.4896 25.9703 28.2759C25.7567 28.0622 25.4669 27.9422 25.1647 27.9422H11.4933ZM5.79688 6.86543C5.79688 5.80788 6.21699 4.79364 6.96479 4.04584C7.71259 3.29804 8.72682 2.87793 9.78438 2.87793H26.8737C27.9312 2.87793 28.9455 3.29804 29.6933 4.04584C30.4411 4.79364 30.8612 5.80788 30.8612 6.86543V30.7904C30.8612 31.848 30.4411 32.8622 29.6933 33.61C28.9455 34.3578 27.9312 34.7779 26.8737 34.7779H9.78438C8.72682 34.7779 7.71259 34.3578 6.96479 33.61C6.21699 32.8622 5.79688 31.848 5.79688 30.7904V6.86543ZM9.78438 5.1565C9.33114 5.1565 8.89647 5.33655 8.57598 5.65703C8.25549 5.97752 8.07545 6.41219 8.07545 6.86543V23.3851H11.4933V19.9672C11.4933 19.3629 11.7334 18.7833 12.1607 18.356C12.588 17.9287 13.1676 17.6886 13.7719 17.6886H22.8862C23.4905 17.6886 24.07 17.9287 24.4974 18.356C24.9247 18.7833 25.1647 19.3629 25.1647 19.9672V23.3851H28.5826V6.86543C28.5826 6.41219 28.4025 5.97752 28.0821 5.65703C27.7616 5.33655 27.3269 5.1565 26.8737 5.1565H9.78438ZM8.07545 30.7904C8.07545 31.2437 8.25549 31.6783 8.57598 31.9988C8.89647 32.3193 9.33114 32.4994 9.78438 32.4994H26.8737C27.3269 32.4994 27.7616 32.3193 28.0821 31.9988C28.4025 31.6783 28.5826 31.2437 28.5826 30.7904V25.6636H8.07545V30.7904ZM22.8862 19.9672H13.7719V23.3851H22.8862V19.9672Z" fill="#6DC0F9"/>
</svg>
