<svg width="115" height="122" viewBox="0 0 115 122" fill="none" xmlns="http://www.w3.org/2000/svg">
<g id="help">
<path id="Vector" fill-rule="evenodd" clip-rule="evenodd" d="M88.8889 31.5556C88.8889 48.4314 74.8361 62.1111 57.5 62.1111C40.1639 62.1111 26.1111 48.4314 26.1111 31.5556C26.1111 14.6797 40.1639 1 57.5 1C74.8361 1 88.8889 14.6797 88.8889 31.5556ZM82.6111 31.5556C82.6111 38.0386 79.9655 44.2562 75.2562 48.8404C70.547 53.4246 64.1599 56 57.5 56C50.8401 56 44.453 53.4246 39.7438 48.8404C35.0345 44.2562 32.3889 38.0386 32.3889 31.5556C32.3889 25.0725 35.0345 18.8549 39.7438 14.2707C44.453 9.6865 50.8401 7.11111 57.5 7.11111C64.1599 7.11111 70.547 9.6865 75.2562 14.2707C79.9655 18.8549 82.6111 25.0725 82.6111 31.5556ZM38.3967 70.8347L38.4312 70.9019C38.576 71.1781 38.862 71.3511 39.1738 71.3511H74.9501C75.317 71.3511 75.651 71.1482 75.8466 70.8378C76.66 69.5469 78.0855 67.9533 79.4722 68.2619C83.0078 69.0447 86.5684 70.1341 89.9891 71.4757C90.0101 71.4839 90.0336 71.4831 90.054 71.4735L90.0573 71.472C90.0954 71.454 90.1409 71.4695 90.1601 71.5069C90.1764 71.5366 90.2025 71.5596 90.2339 71.572C103.129 76.6834 114 85.3325 114 94.4083V120C114 120.552 113.552 121 113 121H2C1.44772 121 1 120.552 1 120V94.4083C1 82.8736 18.5652 72.0203 35.5278 68.2619C36.912 67.9564 37.7344 69.5453 38.3967 70.8347ZM84.829 76.8033C84.8334 76.3886 84.5617 76.0256 84.1677 75.896C83.2846 75.6055 82.395 75.3338 81.4996 75.0812C81.0535 74.9554 80.5816 75.1591 80.3613 75.5669L79.6207 76.9376C79.4461 77.2608 79.1083 77.4622 78.7409 77.4622H35.4743C35.107 77.4622 34.7692 77.2608 34.5945 76.9376L33.8849 75.6244C33.7062 75.2937 33.3208 75.1328 32.9599 75.2382C32.6504 75.3286 32.4223 75.5964 32.4052 75.9184C32.4025 75.9684 32.4002 76.0195 32.3983 76.0719C32.3575 77.1261 32.4391 78.3758 32.618 79.6469C32.772 80.7585 33.0035 81.8584 33.3109 82.9389C33.4189 83.3188 33.7507 83.5856 34.1392 83.6571C36.0964 84.0175 37.8921 84.9744 39.2615 86.3975C40.7795 87.975 41.676 90.0238 41.7927 92.1823C41.9094 94.3407 41.2388 96.4699 39.8994 98.1938C38.56 99.9177 36.6379 101.125 34.4725 101.604C32.3071 102.082 30.0378 101.8 28.0653 100.807C26.0928 99.815 24.544 98.176 23.6925 96.1798C22.8409 94.1837 22.7413 91.9588 23.4113 89.8981C24.0722 87.8652 25.4402 86.1212 27.2784 84.9649C27.3229 84.9369 27.3438 84.8827 27.329 84.8322C26.9107 83.4036 26.5992 81.9474 26.3967 80.475C26.3304 80.0061 26.2752 79.5357 26.2313 79.0644C26.1669 78.3732 25.4551 77.9218 24.8202 78.2026C21.438 79.6987 18.2895 81.4468 15.6021 83.3533C9.56917 87.6433 7.27778 91.6522 7.27778 94.4083V113.889C7.27778 114.441 7.72549 114.889 8.27778 114.889H106.722C107.275 114.889 107.722 114.441 107.722 113.889V94.4083C107.722 91.6492 105.431 87.6403 99.3979 83.3564C97.156 81.7872 94.7899 80.3948 92.3222 79.192C91.6981 78.8879 90.9722 79.316 90.8871 80.005C90.7938 80.7605 90.6727 81.5124 90.5242 82.2595C90.398 82.8943 90.8742 83.5 91.5215 83.5H92.0278C92.6105 83.5003 93.1817 83.6585 93.6773 83.957C94.173 84.2554 94.5734 84.6823 94.8339 85.1897L97.9728 91.3008C98.1926 91.7256 98.3056 92.1931 98.3056 92.6667V98.7778C98.3056 99.5882 97.9749 100.365 97.3862 100.938C96.7975 101.511 95.9992 101.833 95.1667 101.833H89.8889C89.3366 101.833 88.8889 101.386 88.8889 100.833V96.7222C88.8889 96.1699 89.3366 95.7222 89.8889 95.7222H91.0278C91.5801 95.7222 92.0278 95.2745 92.0278 94.7222V93.6296C92.0278 93.4707 91.9899 93.314 91.9173 93.1727L90.3669 90.1542C90.1956 89.8208 89.8523 89.6111 89.4774 89.6111H82.0226C81.6478 89.6111 81.3044 89.8208 81.1331 90.1542L79.5827 93.1727C79.5101 93.314 79.4722 93.4707 79.4722 93.6296V94.7222C79.4722 95.2745 79.9199 95.7222 80.4722 95.7222H81.6111C82.1634 95.7222 82.6111 96.1699 82.6111 96.7222V100.833C82.6111 101.386 82.1634 101.833 81.6111 101.833H76.3333C75.5008 101.833 74.7025 101.511 74.1138 100.938C73.5251 100.365 73.1945 99.5882 73.1945 98.7778V92.6667C73.1945 92.1931 73.3074 91.7256 73.5272 91.3008L76.6661 85.1897C76.9266 84.6823 77.327 84.2554 77.8227 83.957C78.3183 83.6585 78.8895 83.5003 79.4722 83.5H83.3511C83.5867 83.5 83.8 83.348 83.8635 83.1211C84.1586 82.1403 84.4222 80.9211 84.6012 79.65C84.7397 78.6581 84.8197 77.6833 84.829 76.8033ZM35.5278 92.6667C35.5278 94.4206 34.0776 95.7681 32.3889 95.7681C30.7002 95.7681 29.25 94.4236 29.25 92.6667C29.25 90.9128 30.7002 89.5653 32.3889 89.5653C34.0776 89.5653 35.5278 90.9097 35.5278 92.6667Z" fill="#6DC0F9" stroke="#6DC0F9" stroke-width="0.5" stroke-linejoin="round"/>
</g>
</svg>
