<svg width="14" height="14" viewBox="0 0 14 14" fill="none" xmlns="http://www.w3.org/2000/svg">
<path d="M12.541 10.4997L8.66602 6.99967M5.33268 6.99967L1.4577 10.4997M1.16602 4.08301L5.92888 7.41702C6.31457 7.68699 6.50741 7.82198 6.71717 7.87427C6.90245 7.92046 7.09624 7.92046 7.28153 7.87427C7.49129 7.82198 7.68413 7.687 8.06981 7.41702L12.8327 4.08301M3.96602 11.6663H10.0327C11.0128 11.6663 11.5028 11.6663 11.8772 11.4756C12.2064 11.3078 12.4742 11.0401 12.6419 10.7108C12.8327 10.3365 12.8327 9.84643 12.8327 8.86634V5.13301C12.8327 4.15292 12.8327 3.66287 12.6419 3.28852C12.4742 2.95924 12.2064 2.69152 11.8772 2.52375C11.5028 2.33301 11.0128 2.33301 10.0327 2.33301H3.96602C2.98592 2.33301 2.49588 2.33301 2.12153 2.52375C1.79225 2.69152 1.52453 2.95924 1.35675 3.28852C1.16602 3.66287 1.16602 4.15292 1.16602 5.13301V8.86634C1.16602 9.84643 1.16602 10.3365 1.35675 10.7108C1.52453 11.0401 1.79225 11.3078 2.12153 11.4756C2.49588 11.6663 2.98592 11.6663 3.96602 11.6663Z" stroke="#C4C4C4" stroke-linecap="round" stroke-linejoin="round"/>
</svg>
