<svg width="48" height="47" viewBox="0 0 48 47" fill="none" xmlns="http://www.w3.org/2000/svg">
<path d="M17.4744 21.7987C15.3854 21.7987 13.382 21.0008 11.9049 19.5805C10.4277 18.1601 9.59788 16.2338 9.59788 14.2251V8.16623C9.59788 7.7645 9.76385 7.37923 10.0593 7.09516C10.3547 6.8111 10.7554 6.65151 11.1732 6.65151H12.7485C13.1663 6.65151 13.567 6.49192 13.8624 6.20786C14.1578 5.92379 14.3238 5.53852 14.3238 5.13679C14.3238 4.73506 14.1578 4.34979 13.8624 4.06572C13.567 3.78166 13.1663 3.62207 12.7485 3.62207H11.1732C9.9198 3.62207 8.71774 4.10083 7.83146 4.95302C6.94517 5.80522 6.44727 6.96104 6.44727 8.16623V14.2251C6.44929 15.9363 6.88327 17.6215 7.71192 19.136C8.54058 20.6504 9.73915 21.9488 11.2047 22.9196C12.6128 24.1132 13.7547 25.5689 14.5615 27.1986C15.3683 28.8283 15.8234 30.5983 15.8991 32.4018C15.8991 35.2139 17.0609 37.9108 19.1289 39.8992C21.1969 41.8877 24.0017 43.0048 26.9263 43.0048C29.8509 43.0048 32.6557 41.8877 34.7237 39.8992C36.7916 37.9108 37.9534 35.2139 37.9534 32.4018V30.675C39.4384 30.3063 40.7326 29.4295 41.5933 28.209C42.4541 26.9885 42.8224 25.508 42.6291 24.045C42.4359 22.5821 41.6944 21.2372 40.5436 20.2623C39.3928 19.2874 37.9118 18.7496 36.3781 18.7496C34.8444 18.7496 33.3634 19.2874 32.2126 20.2623C31.0619 21.2372 30.3204 22.5821 30.1271 24.045C29.9339 25.508 30.3021 26.9885 31.1629 28.209C32.0237 29.4295 33.3178 30.3063 34.8028 30.675V32.4018C34.8028 34.4104 33.973 36.3368 32.4958 37.7571C31.0187 39.1774 29.0153 39.9754 26.9263 39.9754C24.8373 39.9754 22.8339 39.1774 21.3567 37.7571C19.8796 36.3368 19.0497 34.4104 19.0497 32.4018C19.1295 30.596 19.5894 28.8247 20.4017 27.1948C21.2141 25.565 22.3618 24.1106 23.7757 22.9196C25.2354 21.9454 26.4278 20.6455 27.2509 19.1313C28.0739 17.6171 28.5031 15.9337 28.5016 14.2251V8.16623C28.5016 6.96104 28.0037 5.80522 27.1174 4.95302C26.2311 4.10083 25.0291 3.62207 23.7757 3.62207H22.2003C21.7826 3.62207 21.3819 3.78166 21.0864 4.06572C20.791 4.34979 20.625 4.73506 20.625 5.13679C20.625 5.53852 20.791 5.92379 21.0864 6.20786C21.3819 6.49192 21.7826 6.65151 22.2003 6.65151H23.7757C24.1935 6.65151 24.5941 6.8111 24.8896 7.09516C25.185 7.37923 25.351 7.7645 25.351 8.16623V14.2251C25.351 15.2197 25.1472 16.2045 24.7514 17.1234C24.3556 18.0423 23.7754 18.8772 23.044 19.5805C22.3126 20.2837 21.4443 20.8416 20.4886 21.2222C19.533 21.6028 18.5088 21.7987 17.4744 21.7987ZM36.3781 27.8576C35.5425 27.8576 34.7412 27.5384 34.1503 26.9703C33.5594 26.4022 33.2275 25.6316 33.2275 24.8282C33.2275 24.0247 33.5594 23.2541 34.1503 22.686C34.7412 22.1179 35.5425 21.7987 36.3781 21.7987C37.2137 21.7987 38.0151 22.1179 38.6059 22.686C39.1968 23.2541 39.5287 24.0247 39.5287 24.8282C39.5287 25.6316 39.1968 26.4022 38.6059 26.9703C38.0151 27.5384 37.2137 27.8576 36.3781 27.8576Z" fill="#6DC0F9"/>
</svg>
