<svg width="18" height="18" viewBox="0 0 18 18" fill="none" xmlns="http://www.w3.org/2000/svg">
<g id="medical-square">
<g id="Icon">
<path d="M2.25 5.85C2.25 4.58988 2.25 3.95982 2.49524 3.47852C2.71095 3.05516 3.05516 2.71095 3.47852 2.49524C3.95982 2.25 4.58988 2.25 5.85 2.25H12.15C13.4101 2.25 14.0402 2.25 14.5215 2.49524C14.9448 2.71095 15.289 3.05516 15.5048 3.47852C15.75 3.95982 15.75 4.58988 15.75 5.85V12.15C15.75 13.4101 15.75 14.0402 15.5048 14.5215C15.289 14.9448 14.9448 15.289 14.5215 15.5048C14.0402 15.75 13.4101 15.75 12.15 15.75H5.85C4.58988 15.75 3.95982 15.75 3.47852 15.5048C3.05516 15.289 2.71095 14.9448 2.49524 14.5215C2.25 14.0402 2.25 13.4101 2.25 12.15V5.85Z" stroke="#303030" stroke-width="1.4" stroke-linecap="round" stroke-linejoin="round"/>
<path d="M10.375 5.475C10.375 5.26498 10.375 5.15997 10.3341 5.07975C10.2982 5.00919 10.2408 4.95183 10.1702 4.91587C10.09 4.875 9.98502 4.875 9.775 4.875H8.225C8.01498 4.875 7.90997 4.875 7.82975 4.91587C7.75919 4.95183 7.70182 5.00919 7.66587 5.07975C7.625 5.15997 7.625 5.26498 7.625 5.475V7.025C7.625 7.23502 7.625 7.34003 7.58413 7.42025C7.54818 7.49081 7.49081 7.54817 7.42025 7.58413C7.34003 7.625 7.23502 7.625 7.025 7.625H5.475C5.26498 7.625 5.15997 7.625 5.07975 7.66587C5.00919 7.70182 4.95183 7.75919 4.91587 7.82975C4.875 7.90997 4.875 8.01498 4.875 8.225V9.775C4.875 9.98502 4.875 10.09 4.91587 10.1702C4.95183 10.2408 5.00919 10.2982 5.07975 10.3341C5.15997 10.375 5.26498 10.375 5.475 10.375H7.025C7.23502 10.375 7.34003 10.375 7.42025 10.4159C7.49081 10.4518 7.54818 10.5092 7.58413 10.5798C7.625 10.66 7.625 10.765 7.625 10.975V12.525C7.625 12.735 7.625 12.84 7.66587 12.9202C7.70182 12.9908 7.75919 13.0482 7.82975 13.0841C7.90997 13.125 8.01498 13.125 8.225 13.125H9.775C9.98502 13.125 10.09 13.125 10.1702 13.0841C10.2408 13.0482 10.2982 12.9908 10.3341 12.9202C10.375 12.84 10.375 12.735 10.375 12.525V10.975C10.375 10.765 10.375 10.66 10.4159 10.5798C10.4518 10.5092 10.5092 10.4518 10.5798 10.4159C10.66 10.375 10.765 10.375 10.975 10.375H12.525C12.735 10.375 12.84 10.375 12.9202 10.3341C12.9908 10.2982 13.0482 10.2408 13.0841 10.1702C13.125 10.09 13.125 9.98502 13.125 9.775V8.225C13.125 8.01498 13.125 7.90997 13.0841 7.82975C13.0482 7.75919 12.9908 7.70182 12.9202 7.66587C12.84 7.625 12.735 7.625 12.525 7.625H10.975C10.765 7.625 10.66 7.625 10.5798 7.58413C10.5092 7.54817 10.4518 7.49081 10.4159 7.42025C10.375 7.34003 10.375 7.23502 10.375 7.025V5.475Z" stroke="#303030" stroke-width="1.4" stroke-linecap="round" stroke-linejoin="round"/>
</g>
</g>
</svg>
