<svg width="13" height="12" viewBox="0 0 13 12" fill="none" xmlns="http://www.w3.org/2000/svg">
<path d="M3.88849 4.16446C4.29449 5.01007 4.84795 5.80261 5.54887 6.50353C6.24979 7.20445 7.04234 7.75791 7.88795 8.16391C7.96068 8.19883 7.99705 8.21629 8.04307 8.22971C8.20661 8.27738 8.40743 8.24314 8.54593 8.14396C8.5849 8.11606 8.61824 8.08271 8.68493 8.01603C8.88886 7.8121 8.99083 7.71013 9.09337 7.64346C9.48005 7.39205 9.97856 7.39205 10.3652 7.64346C10.4678 7.71013 10.5698 7.8121 10.7737 8.01603L10.8874 8.12971C11.1974 8.43971 11.3524 8.59472 11.4366 8.76119C11.604 9.09227 11.604 9.48326 11.4366 9.81433C11.3524 9.98081 11.1974 10.1358 10.8874 10.4458L10.7954 10.5378C10.4865 10.8467 10.332 11.0012 10.122 11.1192C9.88892 11.2501 9.52697 11.3442 9.25968 11.3434C9.01879 11.3427 8.85416 11.296 8.5249 11.2025C6.75542 10.7003 5.08571 9.75267 3.69272 8.35968C2.29973 6.9667 1.35212 5.29699 0.849887 3.5275C0.756433 3.19824 0.709706 3.03361 0.708989 2.79273C0.708194 2.52543 0.802322 2.16348 0.933234 1.93043C1.05121 1.72041 1.20568 1.56594 1.51463 1.25699L1.60659 1.16504C1.91659 0.855033 2.0716 0.700029 2.23807 0.615828C2.56915 0.44837 2.96014 0.44837 3.29121 0.615827C3.45768 0.700028 3.61269 0.855032 3.9227 1.16504L4.03637 1.27871C4.24031 1.48265 4.34228 1.58462 4.40894 1.68716C4.66036 2.07384 4.66036 2.57235 4.40894 2.95903C4.34228 3.06157 4.24031 3.16354 4.03637 3.36748C3.96969 3.43416 3.93635 3.4675 3.90844 3.50647C3.80927 3.64497 3.77502 3.84579 3.8227 4.00933C3.83611 4.05535 3.85357 4.09172 3.88849 4.16446Z" stroke="#C4C4C4" stroke-linecap="round" stroke-linejoin="round"/>
</svg>
