<svg width="18" height="18" viewBox="0 0 18 18" fill="none" xmlns="http://www.w3.org/2000/svg">
<g id="Stethoscope">
<path id="Icon" fill-rule="evenodd" clip-rule="evenodd" d="M7.94378 2.39287H8.90176L8.90249 5.22093C8.81874 6.2865 7.64836 7.273 6.15025 7.273C4.65052 7.273 3.48164 6.28525 3.39828 5.24149V2.39287H4.35643C4.73924 2.39287 5.0554 2.08354 5.0554 1.69575C5.05474 1.30863 4.73909 1 4.35615 1H2L2.00062 5.2911L2.00161 5.30508C2.07994 6.4193 2.77154 7.37787 3.73083 7.97831C3.9037 8.87629 4.5734 9.5952 5.44006 9.85177L5.44031 12.4926L5.44095 12.5039C5.58051 14.9676 7.63086 16.9875 10.0458 16.9875C12.4618 16.9875 14.5113 14.9666 14.651 12.4869L14.6517 12.4756V7.88714C15.2871 7.61732 15.7376 6.99173 15.7376 6.25719C15.7376 5.27557 14.9344 4.48328 13.9524 4.48328C12.9709 4.48328 12.1675 5.27557 12.1675 6.25719C12.1675 6.99193 12.618 7.61765 13.2537 7.8873L13.254 12.4365C13.1492 14.1899 11.6951 15.5946 10.0458 15.5946C8.39564 15.5946 6.94244 14.1886 6.83796 12.4527V9.85153C7.6999 9.59643 8.36607 8.88377 8.5438 7.99344C9.51803 7.39098 10.2195 6.41879 10.2986 5.28403L10.2996 5.27014V1H7.94378C7.56098 1 7.24481 1.30864 7.24481 1.69644C7.24481 2.08423 7.56098 2.39287 7.94378 2.39287ZM4.78689 8.03962C5.21271 8.18474 5.67302 8.26578 6.1503 8.26578C6.56146 8.26578 6.96005 8.20485 7.33502 8.09499C7.20678 8.13257 7.07578 8.16443 6.94246 8.19009C6.68584 8.23947 6.42096 8.26578 6.1503 8.26578C5.87098 8.26578 5.5971 8.23804 5.33289 8.18585C5.14579 8.1489 4.96337 8.09974 4.78689 8.03962ZM7.48955 8.04652C7.41245 8.24024 7.29458 8.41376 7.14643 8.55629C6.98334 8.71318 6.78356 8.83254 6.56105 8.89999C6.98586 8.77133 7.32753 8.45361 7.48955 8.04652ZM13.9524 6.63794C13.7363 6.63794 13.5652 6.46351 13.5652 6.25719C13.5652 6.05049 13.7364 5.87616 13.9524 5.87616C14.1685 5.87616 14.3396 6.05049 14.3396 6.25719C14.3396 6.4636 14.1687 6.63794 13.9524 6.63794Z" fill="#6DC0F9"/>
</g>
</svg>
