<svg width="30" height="30" viewBox="0 0 30 30" fill="none" xmlns="http://www.w3.org/2000/svg">
<rect width="30" height="30" rx="15" fill="#FCB769"/>
<path d="M18.9772 16.7667L18.6319 17.2573L18.6319 17.2573L18.9772 16.7667ZM21.7466 18.716L21.4013 19.2067C21.4332 19.2291 21.4672 19.2484 21.5029 19.2643L21.7466 18.716ZM22.5 18.2265L23.1 18.2265V18.2265H22.5ZM22.5 11.7723H23.1V11.7723L22.5 11.7723ZM21.7466 11.2828L21.5029 10.7345C21.4672 10.7504 21.4332 10.7697 21.4013 10.7921L21.7466 11.2828ZM18.9772 13.2322L18.6319 12.7415L18.6319 12.7415L18.9772 13.2322ZM18.7499 13.6701L18.1499 13.67V13.6701H18.7499ZM18.7499 16.3287H18.1499V16.3288L18.7499 16.3287ZM15.402 19.2856V19.8856L15.4038 19.8856L15.402 19.2856ZM9.24113 19.2856L9.2394 19.8856H9.24113V19.2856ZM7.5 17.5444H6.9L6.9 17.5462L7.5 17.5444ZM7.5 12.455L6.9 12.4533V12.455H7.5ZM9.24113 10.7139V10.1139L9.2394 10.1139L9.24113 10.7139ZM15.4181 10.7139L15.42 10.1139H15.4181V10.7139ZM17.1432 12.4389H17.7432L17.7432 12.4371L17.1432 12.4389ZM17.1432 17.5444L17.7432 17.5462V17.5444H17.1432ZM18.6319 17.2573L21.4013 19.2067L22.092 18.2254L19.3226 16.276L18.6319 17.2573ZM21.5029 19.2643C21.6758 19.3412 21.8652 19.3736 22.0538 19.3587L21.9592 18.1624C21.9699 18.1616 21.9806 18.1634 21.9904 18.1678L21.5029 19.2643ZM22.0538 19.3587C22.2425 19.3438 22.4244 19.282 22.5831 19.1789L21.9293 18.1726C21.9382 18.1668 21.9485 18.1633 21.9592 18.1624L22.0538 19.3587ZM22.5831 19.1789C22.7418 19.0757 22.8722 18.9346 22.9624 18.7683L21.9078 18.1959C21.9129 18.1864 21.9203 18.1785 21.9293 18.1726L22.5831 19.1789ZM22.9624 18.7683C23.0527 18.602 23.1 18.4158 23.1 18.2265L21.9 18.2265C21.9 18.2158 21.9027 18.2053 21.9078 18.1959L22.9624 18.7683ZM23.1 18.2265V11.7723H21.9V18.2265H23.1ZM23.1 11.7723C23.1 11.5831 23.0527 11.3968 22.9624 11.2305L21.9078 11.803C21.9027 11.7936 21.9 11.783 21.9 11.7723L23.1 11.7723ZM22.9624 11.2305C22.8722 11.0642 22.7418 10.9231 22.5831 10.82L21.9293 11.8262C21.9203 11.8204 21.9129 11.8124 21.9078 11.803L22.9624 11.2305ZM22.5831 10.82C22.4244 10.7169 22.2425 10.655 22.0538 10.6401L21.9592 11.8364C21.9485 11.8355 21.9382 11.832 21.9293 11.8262L22.5831 10.82ZM22.0538 10.6401C21.8652 10.6252 21.6758 10.6576 21.5029 10.7345L21.9904 11.831C21.9806 11.8354 21.9699 11.8372 21.9592 11.8364L22.0538 10.6401ZM21.4013 10.7921L18.6319 12.7415L19.3226 13.7228L22.092 11.7734L21.4013 10.7921ZM18.6319 12.7415C18.483 12.8463 18.3615 12.9854 18.2776 13.147L19.3427 13.6999C19.3379 13.709 19.331 13.7169 19.3226 13.7228L18.6319 12.7415ZM18.2776 13.147C18.1937 13.3086 18.1499 13.4879 18.1499 13.67L19.3499 13.6703C19.3499 13.6806 19.3474 13.6907 19.3427 13.6999L18.2776 13.147ZM18.1499 13.6701V16.3287H19.3499V13.6701H18.1499ZM18.1499 16.3288C18.1499 16.5109 18.1937 16.6903 18.2776 16.8518L19.3427 16.299C19.3474 16.3081 19.3499 16.3183 19.3499 16.3286L18.1499 16.3288ZM18.2776 16.8518C18.3615 17.0134 18.483 17.1525 18.6319 17.2573L19.3226 16.276C19.331 16.282 19.3379 16.2898 19.3427 16.299L18.2776 16.8518ZM15.402 18.6856H9.24113V19.8856H15.402V18.6856ZM9.24285 18.6856C8.94001 18.6847 8.64983 18.564 8.43569 18.3499L7.58716 19.1984C8.0255 19.6367 8.6195 19.8838 9.2394 19.8856L9.24285 18.6856ZM8.43569 18.3499C8.22155 18.1357 8.10087 17.8455 8.1 17.5427L6.9 17.5462C6.90178 18.1661 7.14883 18.7601 7.58716 19.1984L8.43569 18.3499ZM8.1 17.5444V12.455H6.9V17.5444H8.1ZM8.1 12.4567C8.10087 12.1539 8.22155 11.8637 8.43569 11.6496L7.58716 10.801C7.14883 11.2394 6.90178 11.8334 6.9 12.4533L8.1 12.4567ZM8.43569 11.6496C8.64983 11.4354 8.94001 11.3147 9.24285 11.3139L9.2394 10.1139C8.6195 10.1157 8.0255 10.3627 7.58716 10.801L8.43569 11.6496ZM9.24113 11.3139H15.4181V10.1139H9.24113V11.3139ZM15.4162 11.3139C15.7148 11.3148 16.0009 11.4338 16.2121 11.6449L17.0606 10.7964C16.6253 10.3611 16.0355 10.1158 15.42 10.1139L15.4162 11.3139ZM16.2121 11.6449C16.4232 11.8561 16.5422 12.1422 16.5432 12.4408L17.7432 12.4371C17.7413 11.8215 17.4959 11.2317 17.0606 10.7964L16.2121 11.6449ZM16.5432 12.4389V17.5444H17.7432V12.4389H16.5432ZM16.5432 17.5427C16.5423 17.8455 16.4216 18.1357 16.2075 18.3499L17.056 19.1984C17.4943 18.7601 17.7414 18.1661 17.7432 17.5462L16.5432 17.5427ZM16.2075 18.3499C15.9933 18.564 15.7031 18.6847 15.4003 18.6856L15.4038 19.8856C16.0237 19.8838 16.6177 19.6367 17.056 19.1984L16.2075 18.3499Z" fill="white"/>
</svg>
