<svg width="29" height="29" viewBox="0 0 29 29" fill="none" xmlns="http://www.w3.org/2000/svg">
<path d="M16.4247 14.5L21.8056 9.11915C22.061 8.86423 22.2046 8.5183 22.2049 8.15746C22.2053 7.79662 22.0622 7.45044 21.8073 7.19507C21.5524 6.93969 21.2064 6.79605 20.8456 6.79573C20.4848 6.79541 20.1386 6.93844 19.8832 7.19337L14.5024 12.5742L9.1215 7.19337C8.86612 6.93799 8.51976 6.79453 8.15861 6.79453C7.79745 6.79453 7.45109 6.93799 7.19572 7.19337C6.94034 7.44874 6.79688 7.7951 6.79688 8.15626C6.79688 8.51741 6.94034 8.86377 7.19572 9.11915L12.5766 14.5L7.19572 19.8809C6.94034 20.1362 6.79688 20.4826 6.79688 20.8438C6.79688 21.2049 6.94034 21.5513 7.19572 21.8066C7.45109 22.062 7.79745 22.2055 8.15861 22.2055C8.51976 22.2055 8.86612 22.062 9.1215 21.8066L14.5024 16.4258L19.8832 21.8066C20.1386 22.062 20.485 22.2055 20.8461 22.2055C21.2073 22.2055 21.5536 22.062 21.809 21.8066C22.0644 21.5513 22.2078 21.2049 22.2078 20.8438C22.2078 20.4826 22.0644 20.1362 21.809 19.8809L16.4247 14.5Z" fill="#E85555"/>
</svg>
