<svg width="25" height="28" viewBox="0 0 25 28" fill="none" xmlns="http://www.w3.org/2000/svg">
<path d="M7.75203 13.0407C6.39707 13.0407 5.09761 12.5024 4.13951 11.5443C3.18141 10.5862 2.64316 9.28676 2.64316 7.93181V3.84471C2.64316 3.57372 2.75081 3.31383 2.94243 3.12221C3.13405 2.93059 3.39394 2.82294 3.66493 2.82294H4.68671C4.9577 2.82294 5.21759 2.71529 5.40921 2.52367C5.60083 2.33205 5.70848 2.07215 5.70848 1.80116C5.70848 1.53017 5.60083 1.27028 5.40921 1.07866C5.21759 0.887039 4.9577 0.779388 4.68671 0.779388H3.66493C2.85196 0.779388 2.07228 1.10234 1.49742 1.6772C0.922562 2.25206 0.599609 3.03174 0.599609 3.84471V7.93181C0.600923 9.08614 0.882408 10.2229 1.41989 11.2445C1.95737 12.2661 2.73479 13.1419 3.68537 13.7968C4.59866 14.602 5.33932 15.5839 5.86265 16.6832C6.38598 17.7826 6.68112 18.9765 6.73025 20.1931C6.73025 22.09 7.48381 23.9093 8.82515 25.2506C10.1665 26.592 11.9857 27.3455 13.8827 27.3455C15.7796 27.3455 17.5989 26.592 18.9402 25.2506C20.2815 23.9093 21.0351 22.09 21.0351 20.1931V19.0283C21.9983 18.7796 22.8377 18.1881 23.396 17.3648C23.9543 16.5415 24.1932 15.5428 24.0678 14.556C23.9425 13.5691 23.4615 12.6619 22.7151 12.0043C21.9687 11.3467 21.0081 10.9839 20.0133 10.9839C19.0185 10.9839 18.0579 11.3467 17.3115 12.0043C16.5651 12.6619 16.0841 13.5691 15.9588 14.556C15.8335 15.5428 16.0723 16.5415 16.6306 17.3648C17.1889 18.1881 18.0284 18.7796 18.9915 19.0283V20.1931C18.9915 21.5481 18.4533 22.8475 17.4952 23.8056C16.5371 24.7637 15.2376 25.302 13.8827 25.302C12.5277 25.302 11.2283 24.7637 10.2702 23.8056C9.31206 22.8475 8.7738 21.5481 8.7738 20.1931C8.82552 18.975 9.12385 17.7801 9.65074 16.6807C10.1776 15.5813 10.9221 14.6002 11.8391 13.7968C12.7859 13.1396 13.5594 12.2628 14.0932 11.2414C14.6271 10.2199 14.9054 9.08433 14.9044 7.93181V3.84471C14.9044 3.03174 14.5815 2.25206 14.0066 1.6772C13.4318 1.10234 12.6521 0.779388 11.8391 0.779388H10.8174C10.5464 0.779388 10.2865 0.887039 10.0948 1.07866C9.90323 1.27028 9.79558 1.53017 9.79558 1.80116C9.79558 2.07215 9.90323 2.33205 10.0948 2.52367C10.2865 2.71529 10.5464 2.82294 10.8174 2.82294H11.8391C12.1101 2.82294 12.37 2.93059 12.5616 3.12221C12.7532 3.31383 12.8609 3.57372 12.8609 3.84471V7.93181C12.8609 8.60271 12.7288 9.26705 12.472 9.88689C12.2153 10.5067 11.8389 11.0699 11.3645 11.5443C10.8901 12.0187 10.3269 12.395 9.70711 12.6518C9.08727 12.9085 8.42294 13.0407 7.75203 13.0407ZM20.0133 17.1278C19.4713 17.1278 18.9516 16.9125 18.5683 16.5292C18.1851 16.146 17.9698 15.6262 17.9698 15.0842C17.9698 14.5422 18.1851 14.0225 18.5683 13.6392C18.9516 13.256 19.4713 13.0407 20.0133 13.0407C20.5553 13.0407 21.0751 13.256 21.4583 13.6392C21.8416 14.0225 22.0569 14.5422 22.0569 15.0842C22.0569 15.6262 21.8416 16.146 21.4583 16.5292C21.0751 16.9125 20.5553 17.1278 20.0133 17.1278Z" fill="#C989DD"/>
</svg>
