<svg width="22" height="22" viewBox="0 0 22 22" fill="none" xmlns="http://www.w3.org/2000/svg">
<path d="M8.06693 10.2667C7.09447 10.2667 6.16184 9.88037 5.4742 9.19273C4.78657 8.5051 4.40026 7.57247 4.40026 6.60001V3.66667C4.40026 3.47218 4.47752 3.28566 4.61505 3.14813C4.75258 3.0106 4.9391 2.93334 5.13359 2.93334H5.86693C6.06142 2.93334 6.24795 2.85608 6.38547 2.71855C6.523 2.58103 6.60026 2.3945 6.60026 2.20001C6.60026 2.00552 6.523 1.81899 6.38547 1.68146C6.24795 1.54394 6.06142 1.46667 5.86693 1.46667H5.13359C4.55012 1.46667 3.99054 1.69846 3.57796 2.11104C3.16538 2.52362 2.93359 3.0832 2.93359 3.66667V6.60001C2.93454 7.42848 3.13656 8.24435 3.52231 8.97753C3.90807 9.71072 4.46602 10.3393 5.14826 10.8093C5.80373 11.3872 6.33531 12.0919 6.71091 12.8809C7.08651 13.6699 7.29833 14.5269 7.33359 15.4C7.33359 16.7615 7.87443 18.0671 8.83711 19.0298C9.7998 19.9925 11.1055 20.5333 12.4669 20.5333C13.8284 20.5333 15.1341 19.9925 16.0967 19.0298C17.0594 18.0671 17.6003 16.7615 17.6003 15.4V14.564C18.2915 14.3855 18.894 13.961 19.2947 13.3701C19.6954 12.7792 19.8668 12.0625 19.7769 11.3542C19.6869 10.6459 19.3417 9.9948 18.806 9.52284C18.2703 9.05087 17.5809 8.79049 16.8669 8.79049C16.153 8.79049 15.4635 9.05087 14.9278 9.52284C14.3921 9.9948 14.0469 10.6459 13.957 11.3542C13.867 12.0625 14.0385 12.7792 14.4392 13.3701C14.8399 13.961 15.4423 14.3855 16.1336 14.564V15.4C16.1336 16.3725 15.7473 17.3051 15.0597 17.9927C14.372 18.6804 13.4394 19.0667 12.4669 19.0667C11.4945 19.0667 10.5618 18.6804 9.8742 17.9927C9.18657 17.3051 8.80026 16.3725 8.80026 15.4C8.83738 14.5258 9.05149 13.6682 9.42964 12.8791C9.80779 12.0901 10.3421 11.3859 11.0003 10.8093C11.6798 10.3377 12.2349 9.70837 12.618 8.97529C13.0012 8.2422 13.201 7.42718 13.2003 6.60001V3.66667C13.2003 3.0832 12.9685 2.52362 12.5559 2.11104C12.1433 1.69846 11.5837 1.46667 11.0003 1.46667H10.2669C10.0724 1.46667 9.88591 1.54394 9.74838 1.68146C9.61086 1.81899 9.53359 2.00552 9.53359 2.20001C9.53359 2.3945 9.61086 2.58103 9.74838 2.71855C9.88591 2.85608 10.0724 2.93334 10.2669 2.93334H11.0003C11.1948 2.93334 11.3813 3.0106 11.5188 3.14813C11.6563 3.28566 11.7336 3.47218 11.7336 3.66667V6.60001C11.7336 7.08152 11.6388 7.55832 11.4545 8.00318C11.2702 8.44804 11.0001 8.85225 10.6597 9.19273C10.3192 9.53321 9.91496 9.8033 9.4701 9.98757C9.02524 10.1718 8.54844 10.2667 8.06693 10.2667ZM16.8669 13.2C16.4779 13.2 16.1049 13.0455 15.8298 12.7704C15.5548 12.4954 15.4003 12.1223 15.4003 11.7333C15.4003 11.3444 15.5548 10.9713 15.8298 10.6963C16.1049 10.4212 16.4779 10.2667 16.8669 10.2667C17.2559 10.2667 17.629 10.4212 17.904 10.6963C18.1791 10.9713 18.3336 11.3444 18.3336 11.7333C18.3336 12.1223 18.1791 12.4954 17.904 12.7704C17.629 13.0455 17.2559 13.2 16.8669 13.2Z" fill="white"/>
</svg>
