<svg width="76" height="76" viewBox="0 0 76 76" fill="none" xmlns="http://www.w3.org/2000/svg">
<path d="M61.75 11.875H14.25C10.315 11.875 7.125 15.065 7.125 19V61.75C7.125 65.685 10.315 68.875 14.25 68.875H61.75C65.685 68.875 68.875 65.685 68.875 61.75V19C68.875 15.065 65.685 11.875 61.75 11.875Z" stroke="#AAAAAA" stroke-width="3.33333" stroke-linejoin="round"/>
<path d="M68.875 23.75H7.125M19 7.125V11.875V7.125ZM57 7.125V11.875V7.125Z" stroke="#AAAAAA" stroke-width="3.33333" stroke-linecap="round" stroke-linejoin="round"/>
<path d="M49.2812 45.2734C49.2812 39.0452 44.2282 33.9922 38 33.9922C31.7718 33.9922 26.7188 39.0452 26.7188 45.2734C26.7188 51.5016 31.7718 56.5547 38 56.5547C44.2282 56.5547 49.2812 51.5016 49.2812 45.2734Z" stroke="#AAAAAA" stroke-width="2.5" stroke-miterlimit="10"/>
<path d="M41.7591 49.0339L34.2383 41.513M34.2383 49.0339L41.7591 41.513" stroke="#AAAAAA" stroke-width="2.5" stroke-linecap="round" stroke-linejoin="round"/>
</svg>
