<svg width="76" height="76" viewBox="0 0 76 76" fill="none" xmlns="http://www.w3.org/2000/svg">
<path d="M38 76C58.9868 76 76 58.9868 76 38C76 17.0132 58.9868 0 38 0C17.0132 0 0 17.0132 0 38C0 58.9868 17.0132 76 38 76Z" fill="#5FC657"/>
<path d="M45.996 75.1032C46.7243 74.9616 47.4482 74.7986 48.1669 74.6146C49.386 74.2748 50.5874 73.8744 51.7665 73.4147C52.9482 72.9575 54.1062 72.4414 55.2362 71.8685C56.366 71.293 57.4662 70.6614 58.5328 69.9759C59.5977 69.2918 60.6277 68.5549 61.6191 67.7679C62.6129 66.9791 63.5665 66.141 64.4765 65.2568C65.3839 64.3748 66.2468 63.448 67.0618 62.4798C67.8787 61.5107 68.6465 60.5013 69.3625 59.4554C70.0778 58.4109 70.7404 57.3313 71.3479 56.2207C71.955 55.1089 72.5062 53.9674 72.9993 52.8005C73.4935 51.6334 73.9291 50.4424 74.3043 49.2318C74.6252 48.1722 74.8997 47.0991 75.1269 46.0156L52.552 23.4408C48.5263 19.415 43.2693 17.4043 38.0051 17.4043C32.7407 17.4043 27.4717 19.4147 23.4459 23.4408C15.3943 31.4923 15.3943 44.5015 23.4459 52.5531L45.996 75.1032Z" fill="#12BF13"/>
<path d="M38.0022 17.407C43.2666 17.407 48.5295 19.4177 52.5553 23.4435C60.6068 31.495 60.6068 44.5042 52.5553 52.5558C44.5037 60.6073 31.4945 60.6073 23.443 52.5558C15.3914 44.5042 15.3914 31.495 23.443 23.4435C27.4687 19.4177 32.7378 17.407 38.0022 17.407ZM47.3785 31.6632C47.0786 31.6907 46.7873 31.8059 46.5497 31.991L34.984 40.6684L29.6217 35.3061C28.4583 34.0945 26.1711 36.3817 27.3827 37.545L33.7161 43.8784C34.2486 44.41 35.1787 44.4768 35.7818 44.0268L48.4485 34.5268C49.5146 33.7508 48.8578 31.682 47.5393 31.6632C47.4858 31.6604 47.4321 31.6605 47.3785 31.6632Z" fill="white"/>
</svg>
