<svg width="20" height="20" viewBox="0 0 20 20" fill="none" xmlns="http://www.w3.org/2000/svg">
<path d="M12.3854 10L19.0651 3.32031C19.3821 3.00385 19.5605 2.57442 19.5608 2.12649C19.5612 1.67856 19.3837 1.24881 19.0672 0.931794C18.7508 0.614778 18.3213 0.436458 17.8734 0.436062C17.4255 0.435667 16.9957 0.613228 16.6787 0.929685L9.99902 7.60937L3.31933 0.929685C3.00232 0.612669 2.57235 0.43457 2.12402 0.43457C1.67569 0.43457 1.24573 0.612669 0.928709 0.929685C0.611692 1.2467 0.433594 1.67667 0.433594 2.125C0.433594 2.57333 0.611692 3.00329 0.928709 3.32031L7.6084 10L0.928709 16.6797C0.611692 16.9967 0.433594 17.4267 0.433594 17.875C0.433594 18.3233 0.611692 18.7533 0.928709 19.0703C1.24573 19.3873 1.67569 19.5654 2.12402 19.5654C2.57235 19.5654 3.00232 19.3873 3.31933 19.0703L9.99902 12.3906L16.6787 19.0703C16.9957 19.3873 17.4257 19.5654 17.874 19.5654C18.3223 19.5654 18.7523 19.3873 19.0693 19.0703C19.3863 18.7533 19.5644 18.3233 19.5644 17.875C19.5644 17.4267 19.3863 16.9967 19.0693 16.6797L12.3854 10Z" fill="white"/>
</svg>
