<svg width="34" height="34" viewBox="0 0 34 34" fill="none" xmlns="http://www.w3.org/2000/svg">
<circle cx="17" cy="17" r="17" fill="#6DC0F9" fill-opacity="0.1"/>
<path d="M11.2494 13.6449C11.2494 13.0923 11.4689 12.5624 11.8596 12.1717C12.2503 11.781 12.7802 11.5615 13.3328 11.5615C13.8853 11.5615 14.4152 11.781 14.8059 12.1717C15.1966 12.5624 15.4161 13.0923 15.4161 13.6449C15.4161 14.1974 15.1966 14.7273 14.8059 15.118C14.4152 15.5087 13.8853 15.7282 13.3328 15.7282C12.7802 15.7282 12.2503 15.5087 11.8596 15.118C11.4689 14.7273 11.2494 14.1974 11.2494 13.6449ZM13.3328 10.3115C12.4487 10.3115 11.6009 10.6627 10.9757 11.2878C10.3506 11.913 9.99943 12.7608 9.99943 13.6449C9.99943 14.5289 10.3506 15.3768 10.9757 16.0019C11.6009 16.627 12.4487 16.9782 13.3328 16.9782C14.2168 16.9782 15.0647 16.627 15.6898 16.0019C16.3149 15.3768 16.6661 14.5289 16.6661 13.6449C16.6661 12.7608 16.3149 11.913 15.6898 11.2878C15.0647 10.6627 14.2168 10.3115 13.3328 10.3115ZM19.5828 14.4782C19.5828 14.1467 19.7145 13.8287 19.9489 13.5943C20.1833 13.3599 20.5012 13.2282 20.8328 13.2282C21.1643 13.2282 21.4822 13.3599 21.7166 13.5943C21.9511 13.8287 22.0828 14.1467 22.0828 14.4782C22.0828 14.8097 21.9511 15.1277 21.7166 15.3621C21.4822 15.5965 21.1643 15.7282 20.8328 15.7282C20.5012 15.7282 20.1833 15.5965 19.9489 15.3621C19.7145 15.1277 19.5828 14.8097 19.5828 14.4782ZM20.8328 11.9782C20.1697 11.9782 19.5338 12.2416 19.065 12.7104C18.5962 13.1793 18.3328 13.8151 18.3328 14.4782C18.3328 15.1412 18.5962 15.7771 19.065 16.246C19.5338 16.7148 20.1697 16.9782 20.8328 16.9782C21.4958 16.9782 22.1317 16.7148 22.6005 16.246C23.0694 15.7771 23.3328 15.1412 23.3328 14.4782C23.3328 13.8151 23.0694 13.1793 22.6005 12.7104C22.1317 12.2416 21.4958 11.9782 20.8328 11.9782ZM10.2078 18.6449C9.71048 18.6449 9.23357 18.8424 8.88194 19.194C8.53031 19.5457 8.33276 20.0226 8.33276 20.5199V20.7515C8.33374 20.8095 8.33764 20.8673 8.34443 20.9249C8.41325 21.5449 8.63613 22.1379 8.99276 22.6499C9.67443 23.6232 10.9761 24.4782 13.3328 24.4782C14.4736 24.4782 15.3669 24.2782 16.0628 23.9615C15.9362 23.5416 15.8612 23.1079 15.8394 22.6699C15.3019 22.9865 14.5103 23.2282 13.3328 23.2282C11.3144 23.2282 10.4278 22.5199 10.0161 21.9324C9.78255 21.5958 9.6357 21.2068 9.5886 20.7999C9.58608 20.778 9.58414 20.756 9.58276 20.734V20.5199C9.58276 20.3541 9.64861 20.1951 9.76582 20.0779C9.88303 19.9607 10.042 19.8949 10.2078 19.8949H16.4428C16.6503 19.4974 16.9053 19.129 17.2003 18.7974C16.9658 18.6963 16.7131 18.6444 16.4578 18.6449H10.2078ZM18.5636 19.4582C18.6258 19.6736 18.6438 19.8994 18.6167 20.122C18.5896 20.3446 18.5178 20.5595 18.4057 20.7537C18.2936 20.9479 18.1434 21.1174 17.9642 21.2522C17.785 21.3871 17.5804 21.4843 17.3628 21.5382L16.8761 21.659C16.7981 22.1581 16.7998 22.6663 16.8811 23.1649L17.3311 23.2732C17.5507 23.3261 17.7573 23.4231 17.9383 23.5583C18.1193 23.6936 18.2709 23.8642 18.384 24.0598C18.497 24.2554 18.569 24.472 18.5958 24.6964C18.6225 24.9207 18.6033 25.1481 18.5394 25.3649L18.3836 25.8907C18.7503 26.2124 19.1669 26.474 19.6211 26.659L20.0319 26.2265C20.1876 26.0628 20.375 25.9324 20.5826 25.8433C20.7903 25.7542 21.0139 25.7082 21.2398 25.7082C21.4658 25.7082 21.6894 25.7542 21.8971 25.8433C22.1047 25.9324 22.2921 26.0628 22.4478 26.2265L22.8636 26.6649C23.3145 26.4813 23.7318 26.2242 24.0986 25.904L23.9336 25.3324C23.8714 25.1168 23.8534 24.891 23.8806 24.6684C23.9078 24.4457 23.9796 24.2309 24.0918 24.0366C24.204 23.8424 24.3543 23.6729 24.5336 23.5381C24.7129 23.4033 24.9175 23.3061 25.1353 23.2524L25.6211 23.1315C25.6991 22.6325 25.6974 22.1242 25.6161 21.6257L25.1661 21.5174C24.9465 21.4644 24.74 21.3673 24.5591 21.232C24.3782 21.0967 24.2267 20.9261 24.1138 20.7305C24.0008 20.5349 23.9288 20.3183 23.9022 20.094C23.8755 19.8697 23.8947 19.6423 23.9586 19.4257L24.1136 18.8999C23.7469 18.5768 23.329 18.3172 22.8769 18.1315L22.4661 18.5632C22.3104 18.7271 22.123 18.8576 21.9153 18.9468C21.7075 19.036 21.4838 19.0819 21.2578 19.0819C21.0317 19.0819 20.808 19.036 20.6003 18.9468C20.3925 18.8576 20.2051 18.7271 20.0494 18.5632L19.6344 18.1257C19.1811 18.309 18.7644 18.5674 18.3986 18.8865L18.5636 19.4582ZM21.2494 23.6449C20.5828 23.6449 20.0411 23.0857 20.0411 22.3949C20.0411 21.7049 20.5828 21.1449 21.2494 21.1449C21.9161 21.1449 22.4578 21.7049 22.4578 22.3949C22.4578 23.0857 21.9161 23.6449 21.2494 23.6449Z" fill="#6DC0F9"/>
</svg>
