<svg width="16" height="17" viewBox="0 0 16 17" fill="none" xmlns="http://www.w3.org/2000/svg">
<path d="M10.6663 5.83301V3.96634C10.6663 3.2196 10.6663 2.84624 10.521 2.56102C10.3932 2.31014 10.1892 2.10616 9.93833 1.97833C9.65311 1.83301 9.27974 1.83301 8.53301 1.83301H3.46634C2.7196 1.83301 2.34624 1.83301 2.06102 1.97833C1.81014 2.10616 1.60616 2.31014 1.47833 2.56102C1.33301 2.84624 1.33301 3.2196 1.33301 3.96634V9.03301C1.33301 9.77974 1.33301 10.1531 1.47833 10.4383C1.60616 10.6892 1.81014 10.8932 2.06102 11.021C2.34624 11.1663 2.7196 11.1663 3.46634 11.1663H5.33301M7.46634 15.1663H12.533C13.2797 15.1663 13.6531 15.1663 13.9383 15.021C14.1892 14.8932 14.3932 14.6892 14.521 14.4383C14.6663 14.1531 14.6663 13.7797 14.6663 13.033V7.96634C14.6663 7.2196 14.6663 6.84624 14.521 6.56102C14.3932 6.31014 14.1892 6.10616 13.9383 5.97833C13.6531 5.83301 13.2797 5.83301 12.533 5.83301H7.46634C6.7196 5.83301 6.34624 5.83301 6.06102 5.97833C5.81014 6.10616 5.60616 6.31014 5.47833 6.56102C5.33301 6.84624 5.33301 7.2196 5.33301 7.96634V13.033C5.33301 13.7797 5.33301 14.1531 5.47833 14.4383C5.60616 14.6892 5.81014 14.8932 6.06102 15.021C6.34624 15.1663 6.7196 15.1663 7.46634 15.1663Z" stroke="#98A2B3" stroke-width="1.6" stroke-linecap="round" stroke-linejoin="round"/>
</svg>
