<svg width="14" height="14" viewBox="0 0 14 14" fill="none" xmlns="http://www.w3.org/2000/svg">
<path d="M7 0C5.61553 0 4.26216 0.410543 3.11101 1.17971C1.95987 1.94888 1.06266 3.04213 0.532846 4.32122C0.00303299 5.6003 -0.13559 7.00776 0.134506 8.36563C0.404603 9.7235 1.07129 10.9708 2.05026 11.9497C3.02922 12.9287 4.2765 13.5954 5.63437 13.8655C6.99224 14.1356 8.3997 13.997 9.67879 13.4672C10.9579 12.9373 12.0511 12.0401 12.8203 10.889C13.5895 9.73785 14 8.38447 14 7C13.9964 5.14458 13.2578 3.36617 11.9458 2.05418C10.6338 0.742198 8.85542 0.00355787 7 0ZM9.5375 8.77019C9.63861 8.87228 9.69534 9.01016 9.69534 9.15384C9.69534 9.29753 9.63861 9.43541 9.5375 9.5375C9.43458 9.63702 9.29702 9.69265 9.15385 9.69265C9.01068 9.69265 8.87312 9.63702 8.77019 9.5375L7 7.76058L5.22981 9.5375C5.12689 9.63702 4.98932 9.69265 4.84616 9.69265C4.70299 9.69265 4.56542 9.63702 4.4625 9.5375C4.36139 9.43541 4.30467 9.29753 4.30467 9.15384C4.30467 9.01016 4.36139 8.87228 4.4625 8.77019L6.23942 7L4.4625 5.22981C4.37664 5.12519 4.33276 4.99237 4.3394 4.85719C4.34604 4.722 4.40272 4.59412 4.49842 4.49842C4.59413 4.40272 4.72201 4.34603 4.85719 4.33939C4.99237 4.33275 5.12519 4.37663 5.22981 4.4625L7 6.23942L8.77019 4.4625C8.87481 4.37663 9.00763 4.33275 9.14282 4.33939C9.278 4.34603 9.40588 4.40272 9.50158 4.49842C9.59728 4.59412 9.65397 4.722 9.66061 4.85719C9.66725 4.99237 9.62337 5.12519 9.5375 5.22981L7.76058 7L9.5375 8.77019Z" fill="#F48888"/>
</svg>
