<svg xmlns="http://www.w3.org/2000/svg" width="25" height="26" viewBox="0 0 25 26" fill="none">
    <path d="M5.46875 5.9375L6.44531 21.5625C6.4917 22.4653 7.14844 23.125 8.00781 23.125H16.9922C17.855 23.125 18.4995 22.4653 18.5547 21.5625L19.5312 5.9375" stroke="#E85555" stroke-width="1.5625" stroke-linecap="round" stroke-linejoin="round"/>
    <path d="M3.90625 5.9375H21.0938H3.90625Z" fill="#E85555"/>
    <path d="M3.90625 5.9375H21.0938" stroke="#E85555" stroke-width="1.5625" stroke-miterlimit="10" stroke-linecap="round"/>
    <path d="M16.0156 9.06251L15.625 20M9.375 5.93751V3.98438C9.37455 3.83036 9.40455 3.67777 9.46328 3.53539C9.52202 3.39301 9.60832 3.26364 9.71723 3.15473C9.82614 3.04582 9.9555 2.95952 10.0979 2.90079C10.2403 2.84206 10.3929 2.81205 10.5469 2.81251H14.4531C14.6071 2.81205 14.7597 2.84206 14.9021 2.90079C15.0445 2.95952 15.1739 3.04582 15.2828 3.15473C15.3917 3.26364 15.478 3.39301 15.5367 3.53539C15.5954 3.67777 15.6255 3.83036 15.625 3.98438V5.93751H9.375ZM12.5 9.06251V20V9.06251ZM8.98438 9.06251L9.375 20L8.98438 9.06251Z" stroke="#E85555" stroke-width="1.5625" stroke-linecap="round" stroke-linejoin="round"/>
    </svg>