<svg width="30" height="30" viewBox="0 0 30 30" fill="none" xmlns="http://www.w3.org/2000/svg">
<path d="M15.9365 9.37498V14.4587L20.3393 17.0005C20.5546 17.1248 20.7118 17.3296 20.7761 17.5698C20.8405 17.8099 20.8068 18.0658 20.6825 18.2812C20.5581 18.4965 20.3534 18.6536 20.1132 18.718C19.873 18.7824 19.6171 18.7487 19.4018 18.6244L14.5303 15.8119C14.5229 15.8075 14.5162 15.8025 14.5088 15.798C14.4928 15.7883 14.4771 15.7782 14.4617 15.7676C14.4497 15.7591 14.4381 15.7501 14.4266 15.7412C14.4146 15.732 14.4028 15.7226 14.3912 15.7128C14.3783 15.7018 14.3657 15.6904 14.3535 15.6786C14.3221 15.649 14.2928 15.6171 14.2659 15.5833C14.2371 15.547 14.2109 15.5086 14.1878 15.4684C14.18 15.4549 14.1725 15.4413 14.1654 15.4275C14.1377 15.3729 14.1152 15.3159 14.0981 15.2572C14.0946 15.2448 14.0914 15.2323 14.0885 15.2197C14.0844 15.2032 14.0808 15.1867 14.0777 15.17C14.075 15.1551 14.0727 15.1401 14.0708 15.125C14.0689 15.1106 14.0669 15.0962 14.0656 15.0817C14.0642 15.0629 14.0632 15.0442 14.0628 15.0254C14.0626 15.0169 14.0615 15.0085 14.0615 15V9.37498C14.0615 9.12634 14.1603 8.88788 14.3361 8.71207C14.5119 8.53625 14.7504 8.43748 14.999 8.43748C15.2477 8.43748 15.4861 8.53625 15.662 8.71207C15.8378 8.88788 15.9365 9.12634 15.9365 9.37498ZM27.0483 12.2059C27.0569 12.1929 27.0644 12.1793 27.0724 12.166C27.0801 12.1531 27.0882 12.1405 27.0954 12.1272C27.1028 12.1134 27.109 12.0994 27.1156 12.0853C27.1221 12.0716 27.1289 12.0581 27.1347 12.044C27.1403 12.0304 27.1449 12.0164 27.1499 12.0026C27.1553 11.9876 27.161 11.9728 27.1656 11.9576C27.1698 11.9435 27.173 11.9294 27.1765 11.9154C27.1805 11.8998 27.1847 11.8844 27.188 11.8685C27.1911 11.8522 27.1931 11.8358 27.1955 11.8194C27.1973 11.8056 27.2 11.792 27.2013 11.7779C27.2044 11.7472 27.206 11.7163 27.206 11.6853V6.99783C27.206 6.74919 27.1072 6.51074 26.9314 6.33492C26.7556 6.1591 26.5171 6.06033 26.2685 6.06033C26.0199 6.06033 25.7814 6.1591 25.6056 6.33492C25.4298 6.51074 25.331 6.74919 25.331 6.99783V9.42209L22.954 7.04506C21.3809 5.4735 19.3773 4.40359 17.1963 3.97055C15.0154 3.53752 12.755 3.76082 10.7009 4.61221C8.64676 5.4636 6.89119 6.90487 5.65607 8.75383C4.42095 10.6028 3.76172 12.7764 3.76172 15C3.76172 17.2235 4.42095 19.3972 5.65607 21.2461C6.89119 23.0951 8.64676 24.5364 10.7009 25.3878C12.755 26.2391 15.0154 26.4624 17.1963 26.0294C19.3773 25.5964 21.3809 24.5265 22.954 22.9549C23.0419 22.868 23.1118 22.7646 23.1596 22.6507C23.2074 22.5367 23.2322 22.4144 23.2326 22.2908C23.2329 22.1672 23.2089 22.0448 23.1617 21.9305C23.1146 21.8163 23.0453 21.7125 22.9579 21.6251C22.8705 21.5377 22.7667 21.4684 22.6525 21.4213C22.5382 21.3742 22.4158 21.3501 22.2922 21.3505C22.1686 21.3509 22.0463 21.3757 21.9323 21.4235C21.8183 21.4713 21.715 21.5412 21.6281 21.6292C20.317 22.9403 18.6465 23.8331 16.8279 24.1949C15.0094 24.5566 13.1244 24.3709 11.4113 23.6613C9.69829 22.9518 8.23413 21.7501 7.204 20.2084C6.17387 18.6667 5.62404 16.8542 5.62404 15C5.62404 13.1458 6.17387 11.3332 7.204 9.79153C8.23413 8.24982 9.69829 7.0482 11.4113 6.33862C13.1244 5.62905 15.0094 5.44338 16.8279 5.80511C18.6465 6.16683 20.317 7.0597 21.6281 8.3708L24.0053 10.748H21.5811C21.3325 10.748 21.094 10.8467 20.9182 11.0225C20.7424 11.1984 20.6436 11.4368 20.6436 11.6854C20.6436 11.9341 20.7424 12.1725 20.9182 12.3484C21.094 12.5242 21.3325 12.6229 21.5811 12.6229H26.2683C26.2993 12.6229 26.3304 12.6213 26.3612 12.6183C26.3746 12.617 26.3876 12.6144 26.4007 12.6125C26.4178 12.6102 26.4349 12.6081 26.4518 12.6048C26.4674 12.6016 26.4822 12.5974 26.4975 12.5935C26.512 12.59 26.5265 12.5867 26.5408 12.5825C26.5558 12.5778 26.5704 12.5722 26.5851 12.5669C26.5992 12.5619 26.6134 12.5572 26.6273 12.5515C26.6412 12.5457 26.6544 12.539 26.668 12.5327C26.6821 12.5259 26.6965 12.5196 26.7104 12.5122C26.7235 12.5052 26.736 12.4972 26.7486 12.4896C26.7621 12.4815 26.7758 12.4739 26.789 12.465C26.8032 12.4556 26.8166 12.4451 26.8302 12.4349C26.841 12.4267 26.8521 12.4192 26.8626 12.4105C26.9105 12.3713 26.9544 12.3274 26.9937 12.2796C27.0022 12.269 27.0096 12.2581 27.0177 12.2475C27.028 12.2337 27.0387 12.2202 27.0481 12.2059H27.0483Z" fill="#9E58FF"/>
</svg>
