<svg width="20" height="17" viewBox="0 0 20 17" fill="none" xmlns="http://www.w3.org/2000/svg">
<path d="M12.1572 12.0937V13.8906C12.1572 14.3672 11.9679 14.8242 11.6309 15.1612C11.294 15.4982 10.8369 15.6875 10.3604 15.6875H3.17285C2.69629 15.6875 2.23925 15.4982 1.90227 15.1612C1.56529 14.8242 1.37598 14.3672 1.37598 13.8906V3.10937C1.37598 2.63281 1.56529 2.17577 1.90227 1.83879C2.23925 1.50181 2.69629 1.3125 3.17285 1.3125H10.001C10.9933 1.3125 12.1572 2.11705 12.1572 3.10937V4.90625M15.0322 12.0937L18.626 8.5M18.626 8.5L15.0322 4.90625M18.626 8.5H12.1572H6.40723" stroke="#F48888" stroke-width="1.5" stroke-linecap="round" stroke-linejoin="round"/>
</svg>
