<svg width="21" height="20" viewBox="0 0 21 20" fill="none" xmlns="http://www.w3.org/2000/svg">
<path d="M12.1666 1.8916V5.33372C12.1666 5.80043 12.1666 6.03378 12.2574 6.21204C12.3373 6.36885 12.4648 6.49633 12.6216 6.57622C12.7999 6.66705 13.0332 6.66705 13.4999 6.66705H16.942M12.1666 14.167H7.16659M13.8333 10.8337H7.16659M17.1666 8.32385V14.3337C17.1666 15.7338 17.1666 16.4339 16.8941 16.9686C16.6544 17.439 16.272 17.8215 15.8016 18.0612C15.2668 18.3337 14.5667 18.3337 13.1666 18.3337H7.83325C6.43312 18.3337 5.73306 18.3337 5.19828 18.0612C4.72787 17.8215 4.34542 17.439 4.10574 16.9686C3.83325 16.4339 3.83325 15.7338 3.83325 14.3337V5.66699C3.83325 4.26686 3.83325 3.5668 4.10574 3.03202C4.34542 2.56161 4.72787 2.17916 5.19828 1.93948C5.73306 1.66699 6.43312 1.66699 7.83325 1.66699H10.5097C11.1212 1.66699 11.4269 1.66699 11.7147 1.73607C11.9698 1.79731 12.2136 1.89832 12.4373 2.03539C12.6896 2.19 12.9058 2.40619 13.3382 2.83857L15.995 5.49542C16.4274 5.9278 16.6436 6.14399 16.7982 6.39628C16.9353 6.61996 17.0363 6.86382 17.0975 7.11891C17.1666 7.40663 17.1666 7.71237 17.1666 8.32385Z"  stroke="#C989DD" stroke-width="1.6" stroke-linecap="round" stroke-linejoin="round"/>
</svg>
