<svg width="21" height="21" viewBox="0 0 21 21" fill="none" xmlns="http://www.w3.org/2000/svg">
<path d="M17.0625 9.07469V17.0625C17.0625 17.5846 16.8551 18.0854 16.4859 18.4546C16.1167 18.8238 15.6159 19.0312 15.0938 19.0312H5.90625C5.38411 19.0312 4.88335 18.8238 4.51413 18.4546C4.14492 18.0854 3.9375 17.5846 3.9375 17.0625V3.93748C3.9375 3.41534 4.14492 2.91458 4.51413 2.54537C4.88335 2.17616 5.38411 1.96873 5.90625 1.96873H9.95654C10.3045 1.96879 10.6382 2.10702 10.8843 2.35305L16.6782 8.14692C16.9242 8.393 17.0624 8.72672 17.0625 9.07469Z" stroke="#C989DD" stroke-width="1.3125" stroke-linejoin="round"/>
<path d="M10.5 2.29686V7.21873C10.5 7.56683 10.6383 7.90067 10.8844 8.14681C11.1306 8.39295 11.4644 8.53123 11.8125 8.53123H16.7344" stroke="#C989DD" stroke-width="1.3125" stroke-linecap="round" stroke-linejoin="round"/>
</svg>
