<svg width="46" height="45" viewBox="0 0 46 45" fill="none" xmlns="http://www.w3.org/2000/svg">
<path d="M37.0625 19.4458V36.5625C37.0625 37.6814 36.618 38.7544 35.8269 39.5456C35.0357 40.3368 33.9626 40.7812 32.8438 40.7812H13.1562C12.0374 40.7812 10.9643 40.3368 10.1731 39.5456C9.38197 38.7544 8.9375 37.6814 8.9375 36.5625V8.4375C8.9375 7.31862 9.38197 6.24556 10.1731 5.45439C10.9643 4.66322 12.0374 4.21875 13.1562 4.21875H21.8354C22.5811 4.21886 23.2962 4.51508 23.8235 5.04229L36.239 17.4577C36.7662 17.985 37.0624 18.7001 37.0625 19.4458Z" stroke="#303030" stroke-width="2.8125" stroke-linejoin="round"/>
<path d="M23 4.92188V15.4688C23 16.2147 23.2963 16.93 23.8238 17.4575C24.3512 17.9849 25.0666 18.2812 25.8125 18.2812H36.3594" stroke="#303030" stroke-width="2.8125" stroke-linecap="round" stroke-linejoin="round"/>
</svg>
