<svg width="17" height="17" viewBox="0 0 17 17" fill="none" xmlns="http://www.w3.org/2000/svg">
<path d="M2.65598 8.59961V14.875C2.65598 15.0159 2.71195 15.151 2.81157 15.2507C2.9112 15.3503 3.04633 15.4063 3.18723 15.4063H6.37473V10.8907C6.37473 10.6793 6.45868 10.4766 6.60812 10.3272C6.75757 10.1777 6.96026 10.0938 7.1716 10.0938H9.82785C10.0392 10.0938 10.2419 10.1777 10.3913 10.3272C10.5408 10.4766 10.6247 10.6793 10.6247 10.8907V15.4063H13.8122C13.9531 15.4063 14.0882 15.3503 14.1879 15.2507C14.2875 15.151 14.3435 15.0159 14.3435 14.875V8.59961" stroke="#ffffff" stroke-linecap="round" stroke-linejoin="round"/>
<path d="M13.2813 5.94327V2.12491H11.6876V4.41592M15.9376 8.49991L8.86167 1.72647C8.69566 1.55116 8.30751 1.54917 8.13851 1.72647L1.06259 8.49991H15.9376Z" stroke="#ffffff" stroke-linecap="round" stroke-linejoin="round"/>
</svg>
