<svg width="17" height="17" viewBox="0 0 17 17" fill="none" xmlns="http://www.w3.org/2000/svg">
<path d="M2.65601 8.59961V14.875C2.65601 15.0159 2.71198 15.151 2.81161 15.2507C2.91123 15.3503 3.04636 15.4063 3.18726 15.4063H6.37476V10.8907C6.37476 10.6793 6.45871 10.4766 6.60816 10.3272C6.7576 10.1777 6.96029 10.0938 7.17163 10.0938H9.82788C10.0392 10.0938 10.2419 10.1777 10.3914 10.3272C10.5408 10.4766 10.6248 10.6793 10.6248 10.8907V15.4063H13.8123C13.9532 15.4063 14.0883 15.3503 14.1879 15.2507C14.2875 15.151 14.3435 15.0159 14.3435 14.875V8.59961" stroke="#6DC0F9" stroke-linecap="round" stroke-linejoin="round"/>
<path d="M13.2813 5.94327V2.12491H11.6875V4.41592M15.9375 8.49991L8.86158 1.72647C8.69557 1.55116 8.30742 1.54917 8.13842 1.72647L1.0625 8.49991H15.9375Z" stroke="#6DC0F9" stroke-linecap="round" stroke-linejoin="round"/>
</svg>
