<svg width="32" height="32" viewBox="0 0 32 32" fill="none" xmlns="http://www.w3.org/2000/svg">
<path d="M5.30273 16.224V27.5394C5.30273 27.7934 5.40366 28.0371 5.5833 28.2167C5.76294 28.3964 6.00659 28.4973 6.26065 28.4973H12.0081V20.355C12.0081 19.974 12.1595 19.6085 12.429 19.339C12.6984 19.0695 13.0639 18.9182 13.445 18.9182H18.2346C18.6156 18.9182 18.9811 19.0695 19.2506 19.339C19.52 19.6085 19.6714 19.974 19.6714 20.355V28.4973H25.4189C25.673 28.4973 25.9166 28.3964 26.0963 28.2167C26.2759 28.0371 26.3768 27.7934 26.3768 27.5394V16.224" stroke="#C989DD" stroke-width="1.91583" stroke-linecap="round" stroke-linejoin="round"/>
<path d="M24.4617 11.4344V4.54938H21.588V8.68038M29.2513 16.0443L16.4925 3.83095C16.1931 3.51484 15.4932 3.51124 15.1885 3.83095L2.42969 16.0443H29.2513Z" stroke="#C989DD" stroke-width="1.91583" stroke-linecap="round" stroke-linejoin="round"/>
</svg>
