<svg xmlns="http://www.w3.org/2000/svg" width="23" height="23" viewBox="0 0 23 23" fill="none">
    <path d="M12.2187 9.34375C12.2187 9.15313 12.143 8.97031 12.0082 8.83552C11.8734 8.70073 11.6906 8.625 11.4999 8.625C11.3093 8.625 11.1265 8.70073 10.9917 8.83552C10.8569 8.97031 10.7812 9.15313 10.7812 9.34375V14.7962L9.13381 13.1474C9.06698 13.0805 8.98765 13.0275 8.90033 12.9914C8.81302 12.9552 8.71944 12.9366 8.62493 12.9366C8.53042 12.9366 8.43684 12.9552 8.34953 12.9914C8.26222 13.0275 8.18288 13.0805 8.11606 13.1474C8.04923 13.2142 7.99622 13.2935 7.96005 13.3808C7.92389 13.4682 7.90527 13.5617 7.90527 13.6562C7.90527 13.7508 7.92389 13.8443 7.96005 13.9317C7.99622 14.019 8.04923 14.0983 8.11606 14.1651L10.9911 17.0401C11.0578 17.1071 11.1371 17.1602 11.2245 17.1964C11.3118 17.2326 11.4054 17.2513 11.4999 17.2513C11.5945 17.2513 11.6881 17.2326 11.7754 17.1964C11.8627 17.1602 11.942 17.1071 12.0088 17.0401L14.8838 14.1651C14.9506 14.0983 15.0036 14.019 15.0398 13.9317C15.076 13.8443 15.0946 13.7508 15.0946 13.6562C15.0946 13.5617 15.076 13.4682 15.0398 13.3808C15.0036 13.2935 14.9506 13.2142 14.8838 13.1474C14.817 13.0805 14.7376 13.0275 14.6503 12.9914C14.563 12.9552 14.4694 12.9366 14.3749 12.9366C14.2804 12.9366 14.1868 12.9552 14.0995 12.9914C14.0122 13.0275 13.9329 13.0805 13.8661 13.1474L12.2187 14.7962V9.34375Z" fill="#9E58FF"/>
    <path d="M20.125 20.125V6.46875L13.6562 0H5.75C4.9875 0 4.25623 0.302901 3.71707 0.842068C3.1779 1.38124 2.875 2.1125 2.875 2.875V20.125C2.875 20.8875 3.1779 21.6188 3.71707 22.1579C4.25623 22.6971 4.9875 23 5.75 23H17.25C18.0125 23 18.7438 22.6971 19.2829 22.1579C19.8221 21.6188 20.125 20.8875 20.125 20.125ZM13.6562 4.3125C13.6562 4.88437 13.8834 5.43282 14.2878 5.8372C14.6922 6.24157 15.2406 6.46875 15.8125 6.46875H18.6875V20.125C18.6875 20.5062 18.536 20.8719 18.2665 21.1415C17.9969 21.411 17.6312 21.5625 17.25 21.5625H5.75C5.36875 21.5625 5.00312 21.411 4.73353 21.1415C4.46395 20.8719 4.3125 20.5062 4.3125 20.125V2.875C4.3125 2.49375 4.46395 2.12812 4.73353 1.85853C5.00312 1.58895 5.36875 1.4375 5.75 1.4375H13.6562V4.3125Z" fill="#9E58FF"/>
  </svg>