<svg width="28" height="28" viewBox="0 0 28 28" fill="none" xmlns="http://www.w3.org/2000/svg">
<path d="M8.75039 16.8722L4.22773 18.9016C3.26523 19.3391 3.26523 20.0555 4.22773 20.493L12.3215 24.1845C13.2452 24.605 14.7655 24.605 15.6891 24.1845L23.7829 20.493C24.7454 20.0555 24.7454 19.3391 23.7829 18.9016L19.4112 16.7978M23.7785 7.52773L15.6104 3.80352C14.725 3.39883 13.2758 3.39883 12.3904 3.80352L4.22773 7.52773C3.26523 7.96523 3.26523 8.68109 4.22773 9.11859L12.3215 12.81C13.2452 13.2311 14.7655 13.2311 15.6891 12.81L23.7829 9.11859C24.741 8.68109 24.741 7.96469 23.7785 7.52773Z" stroke="#C989DD" stroke-width="1.875" stroke-linecap="round" stroke-linejoin="round"/>
<path d="M8.75 11.1825L4.22188 13.2147C3.25938 13.6522 3.25938 14.3686 4.22188 14.8061L12.3156 18.497C13.2393 18.918 14.7596 18.918 15.6833 18.497L23.777 14.8061C24.745 14.3686 24.745 13.6522 23.7825 13.2147L19.25 11.1825" stroke="#C989DD" stroke-width="1.875" stroke-linecap="round" stroke-linejoin="round"/>
</svg>
