<svg width="23" height="23" viewBox="0 0 23 23" fill="none" xmlns="http://www.w3.org/2000/svg">
<path d="M11.4848 5.03125C7.98356 5.03125 4.39205 7.05768 1.56467 11.1105C1.48397 11.2275 1.43974 11.3657 1.43758 11.5078C1.43542 11.6499 1.47543 11.7894 1.55254 11.9088C3.72496 15.3094 7.2684 17.9688 11.4848 17.9688C15.6553 17.9688 19.2715 15.3013 21.448 11.8931C21.5233 11.776 21.5634 11.6398 21.5634 11.5007C21.5634 11.3615 21.5233 11.2253 21.448 11.1083C19.2666 7.73914 15.6239 5.03125 11.4848 5.03125Z" stroke="#AAAAAA" stroke-width="1.7" stroke-linecap="round" stroke-linejoin="round"/>
<path d="M11.5 15.0938C13.4848 15.0938 15.0938 13.4848 15.0938 11.5C15.0938 9.51523 13.4848 7.90625 11.5 7.90625C9.51523 7.90625 7.90625 9.51523 7.90625 11.5C7.90625 13.4848 9.51523 15.0938 11.5 15.0938Z" stroke="#AAAAAA" stroke-width="1.7" stroke-miterlimit="10"/>
</svg>
