<svg width="15" height="16" viewBox="0 0 15 16" fill="none" xmlns="http://www.w3.org/2000/svg">
<path d="M13.8281 5.42188H1.17188C0.985395 5.42188 0.806552 5.3478 0.674691 5.21593C0.542829 5.08407 0.46875 4.90523 0.46875 4.71875C0.46875 4.53227 0.542829 4.35343 0.674691 4.22157C0.806552 4.0897 0.985395 4.01562 1.17188 4.01562H13.8281C14.0146 4.01562 14.1934 4.0897 14.3253 4.22157C14.4572 4.35343 14.5312 4.53227 14.5312 4.71875C14.5312 4.90523 14.4572 5.08407 14.3253 5.21593C14.1934 5.3478 14.0146 5.42188 13.8281 5.42188ZM11.4844 8.70312H3.51562C3.32914 8.70312 3.1503 8.62905 3.01844 8.49718C2.88658 8.36532 2.8125 8.18648 2.8125 8C2.8125 7.81352 2.88658 7.63468 3.01844 7.50282C3.1503 7.37095 3.32914 7.29688 3.51562 7.29688H11.4844C11.6709 7.29688 11.8497 7.37095 11.9816 7.50282C12.1134 7.63468 12.1875 7.81352 12.1875 8C12.1875 8.18648 12.1134 8.36532 11.9816 8.49718C11.8497 8.62905 11.6709 8.70312 11.4844 8.70312ZM8.67188 11.9844H6.32812C6.14164 11.9844 5.9628 11.9103 5.83094 11.7784C5.69908 11.6466 5.625 11.4677 5.625 11.2812C5.625 11.0948 5.69908 10.9159 5.83094 10.7841C5.9628 10.6522 6.14164 10.5781 6.32812 10.5781H8.67188C8.85836 10.5781 9.0372 10.6522 9.16906 10.7841C9.30092 10.9159 9.375 11.0948 9.375 11.2812C9.375 11.4677 9.30092 11.6466 9.16906 11.7784C9.0372 11.9103 8.85836 11.9844 8.67188 11.9844Z" fill="#AAAAAA"/>
</svg>
