<svg width="254" height="226" viewBox="0 0 254 226" fill="none" xmlns="http://www.w3.org/2000/svg">
<g id="Frame" clip-path="url(#clip0_2_6062)">
<g id="Group">
<g id="Group_2">
<g id="Group_3">
<path id="Vector" d="M22.1968 51.4961H21.9101L0.120117 73.2861C0.12635 73.3796 0.12635 73.4668 0.132583 73.5603L22.1968 51.4961Z" fill="#A6E0FA"/>
<path id="Vector_2" d="M18.5363 51.4961H18.2496L0.0996094 69.6399V69.9328L18.5363 51.4961Z" fill="#A6E0FA"/>
<path id="Vector_3" d="M25.8527 51.4961H25.566L0.896484 76.1656C0.927649 76.228 0.965046 76.2903 0.99621 76.3526L25.8527 51.4961Z" fill="#A6E0FA"/>
<path id="Vector_4" d="M14.8776 51.4961H14.5909L0.0996094 65.9874V66.2741L14.8776 51.4961Z" fill="#A6E0FA"/>
<path id="Vector_5" d="M7.56031 51.4961H7.2736L0.0996094 58.6701V58.9568L7.56031 51.4961Z" fill="#A6E0FA"/>
<path id="Vector_6" d="M11.219 51.4961H10.9323L0.0996094 62.3287V62.6155L11.219 51.4961Z" fill="#A6E0FA"/>
<path id="Vector_7" d="M33.1708 51.4961H32.8841L4.86133 79.5127C4.93612 79.5376 5.01092 79.5563 5.07948 79.5812L33.1708 51.4961Z" fill="#A6E0FA"/>
<path id="Vector_8" d="M29.5129 51.4961H29.2262L2.51855 78.1975C2.56842 78.2412 2.61828 78.2848 2.67438 78.3284L29.5129 51.4961Z" fill="#A6E0FA"/>
<path id="Vector_9" d="M41.2473 69.0289V68.7422L30.1279 79.8553H30.4146L41.2473 69.0289Z" fill="#A6E0FA"/>
<path id="Vector_10" d="M41.2468 65.3697V65.083L26.4688 79.8548H26.7555L41.2468 65.3697Z" fill="#A6E0FA"/>
<path id="Vector_11" d="M41.2482 61.7115V61.4248L22.8115 79.8553H23.0982L41.2482 61.7115Z" fill="#A6E0FA"/>
<path id="Vector_12" d="M41.2488 72.6871V72.4004L33.7881 79.8548H34.0748L41.2488 72.6871Z" fill="#A6E0FA"/>
<path id="Vector_13" d="M40.4514 55.186C40.4202 55.1237 40.3828 55.0614 40.3516 54.999L15.4951 79.8555H15.7818L40.4514 55.186Z" fill="#A6E0FA"/>
<path id="Vector_14" d="M38.8254 53.1543C38.7756 53.1107 38.7257 53.0671 38.6696 53.0234L11.8311 79.862H12.1178L38.8254 53.1543Z" fill="#A6E0FA"/>
<path id="Vector_15" d="M41.232 58.0653C41.2257 57.9718 41.2257 57.8845 41.2195 57.791L19.1553 79.8552H19.442L41.232 58.0653Z" fill="#A6E0FA"/>
<path id="Vector_16" d="M36.4849 51.8391C36.4101 51.8141 36.3353 51.7954 36.2668 51.7705L8.18164 79.8556H8.46835L36.4849 51.8391Z" fill="#A6E0FA"/>
</g>
<g id="Group_4">
<path id="Vector_17" d="M218.042 119.914H217.755L195.965 141.704C195.971 141.798 195.971 141.885 195.977 141.978L218.042 119.914Z" fill="#A6E0FA"/>
<path id="Vector_18" d="M214.381 119.914H214.094L195.944 138.064V138.351L214.381 119.914Z" fill="#A6E0FA"/>
<path id="Vector_19" d="M221.697 119.914H221.411L196.741 144.584C196.772 144.646 196.81 144.708 196.841 144.771L221.697 119.914Z" fill="#A6E0FA"/>
<path id="Vector_20" d="M210.722 119.914H210.436L195.944 134.405V134.692L210.722 119.914Z" fill="#A6E0FA"/>
<path id="Vector_21" d="M203.405 119.914H203.118L195.944 127.088V127.375L203.405 119.914Z" fill="#A6E0FA"/>
<path id="Vector_22" d="M207.064 119.914H206.777L195.944 130.747V131.033L207.064 119.914Z" fill="#A6E0FA"/>
<path id="Vector_23" d="M229.016 119.914H228.729L200.706 147.937C200.781 147.962 200.856 147.98 200.924 148.005L229.016 119.914Z" fill="#A6E0FA"/>
<path id="Vector_24" d="M225.358 119.914H225.072L198.37 146.615C198.42 146.659 198.47 146.703 198.526 146.746L225.358 119.914Z" fill="#A6E0FA"/>
<path id="Vector_25" d="M237.092 137.447V137.16L225.973 148.28H226.259L237.092 137.447Z" fill="#A6E0FA"/>
<path id="Vector_26" d="M237.092 133.788V133.501L222.313 148.279H222.6L237.092 133.788Z" fill="#A6E0FA"/>
<path id="Vector_27" d="M237.093 130.129V129.843L218.656 148.279H218.943L237.093 130.129Z" fill="#A6E0FA"/>
<path id="Vector_28" d="M237.094 141.105V140.818L229.633 148.279H229.92L237.094 141.105Z" fill="#A6E0FA"/>
<path id="Vector_29" d="M236.296 123.61C236.265 123.548 236.228 123.485 236.196 123.423L211.34 148.279H211.627L236.296 123.61Z" fill="#A6E0FA"/>
<path id="Vector_30" d="M234.67 121.578C234.62 121.535 234.57 121.491 234.514 121.447L207.676 148.286H207.962L234.67 121.578Z" fill="#A6E0FA"/>
<path id="Vector_31" d="M237.077 126.49C237.07 126.397 237.07 126.309 237.064 126.216L215 148.28H215.287L237.077 126.49Z" fill="#A6E0FA"/>
<path id="Vector_32" d="M232.33 120.263C232.255 120.238 232.18 120.219 232.111 120.194L204.026 148.279H204.313L232.33 120.263Z" fill="#A6E0FA"/>
</g>
<path id="Vector_33" d="M27.3353 16.4235C27.3353 18.8294 25.3845 20.7865 22.9724 20.7865C20.5665 20.7865 18.6094 18.8356 18.6094 16.4235C18.6094 14.0177 20.5603 12.0605 22.9724 12.0605C25.3782 12.0605 27.3353 14.0177 27.3353 16.4235Z" stroke="#A6E0FA" stroke-width="0.467462" stroke-miterlimit="10" stroke-linecap="round" stroke-linejoin="round"/>
<path id="Vector_34" d="M237.541 160.464C239.95 160.464 241.904 158.511 241.904 156.101C241.904 153.692 239.95 151.738 237.541 151.738C235.131 151.738 233.178 153.692 233.178 156.101C233.178 158.511 235.131 160.464 237.541 160.464Z" stroke="#A6E0FA" stroke-width="0.467462" stroke-miterlimit="10" stroke-linecap="round" stroke-linejoin="round"/>
<g id="Group_5">
<path id="Vector_35" d="M247.493 163.811C244.084 163.811 241.316 166.572 241.316 169.987C241.316 175.84 247.493 180.994 247.493 180.994C247.493 180.994 253.67 175.84 253.67 169.987C253.664 166.572 250.902 163.811 247.493 163.811ZM247.493 172.019C245.91 172.019 244.626 170.735 244.626 169.152C244.626 167.569 245.91 166.285 247.493 166.285C249.076 166.285 250.36 167.569 250.36 169.152C250.36 170.735 249.076 172.019 247.493 172.019Z" stroke="#A6E0FA" stroke-width="0.467462" stroke-miterlimit="10" stroke-linecap="round" stroke-linejoin="round"/>
</g>
<g id="Group_6">
<g id="Group_7">
<path id="Vector_36" d="M71.879 12.9893H49.0107V26.7326H71.879V12.9893Z" stroke="#A6E0FA" stroke-width="0.467462" stroke-miterlimit="10" stroke-linecap="round" stroke-linejoin="round"/>
<path id="Vector_37" d="M49.0107 12.9893L60.4417 19.8578L71.879 12.9893" stroke="#A6E0FA" stroke-width="0.467462" stroke-miterlimit="10" stroke-linecap="round" stroke-linejoin="round"/>
</g>
<g id="Group_8">
<path id="Vector_38" d="M45.2635 21.9766H37.46" stroke="#A6E0FA" stroke-width="0.467462" stroke-miterlimit="10" stroke-linecap="round" stroke-linejoin="round"/>
<path id="Vector_39" d="M45.2662 24.3506H34.6143" stroke="#A6E0FA" stroke-width="0.467462" stroke-miterlimit="10" stroke-linecap="round" stroke-linejoin="round"/>
<path id="Vector_40" d="M45.2652 26.7324H31.6465" stroke="#A6E0FA" stroke-width="0.467462" stroke-miterlimit="10" stroke-linecap="round" stroke-linejoin="round"/>
</g>
</g>
<g id="Group_9">
<path id="Vector_41" d="M161.416 218.76C161.778 218.604 162.121 218.43 162.445 218.237L163.654 219.421L166.745 216.267L165.536 215.083C165.916 214.41 166.203 213.693 166.396 212.945L168.092 212.926L168.042 208.507L166.346 208.526C166.247 208.158 166.122 207.797 165.966 207.435C165.81 207.074 165.636 206.731 165.443 206.407L166.627 205.198L163.473 202.106L162.289 203.315C161.616 202.935 160.899 202.648 160.151 202.455L160.132 200.76L155.713 200.81L155.732 202.505C155.364 202.605 155.003 202.729 154.641 202.885C154.28 203.041 153.937 203.216 153.613 203.409L152.404 202.224L149.312 205.378L150.521 206.563C150.141 207.236 149.854 207.952 149.661 208.7L147.966 208.719L148.016 213.138L149.711 213.119C149.811 213.487 149.935 213.849 150.091 214.21C150.247 214.572 150.422 214.915 150.615 215.239L149.431 216.448L152.584 219.539L153.769 218.33C154.442 218.71 155.158 218.997 155.906 219.19L155.925 220.886L160.344 220.842L160.326 219.147C160.693 219.041 161.061 218.916 161.416 218.76ZM155.445 211.923C154.834 210.495 155.501 208.844 156.929 208.233C158.356 207.622 160.008 208.289 160.618 209.716C161.229 211.144 160.562 212.795 159.135 213.406C157.708 214.017 156.056 213.35 155.445 211.923Z" stroke="#A6E0FA" stroke-width="0.467462" stroke-miterlimit="10" stroke-linecap="round" stroke-linejoin="round"/>
<path id="Vector_42" d="M176.633 223.964C176.894 223.933 177.144 223.883 177.393 223.821L177.948 224.812L180.528 223.372L179.973 222.381C180.347 222.019 180.665 221.614 180.933 221.172L182.024 221.483L182.828 218.641L181.737 218.33C181.743 218.074 181.731 217.819 181.7 217.557C181.669 217.295 181.619 217.046 181.556 216.796L182.547 216.242L181.108 213.661L180.117 214.216C179.755 213.842 179.35 213.524 178.908 213.256L179.219 212.165L176.377 211.361L176.065 212.452C175.81 212.446 175.554 212.458 175.292 212.489C175.031 212.521 174.781 212.571 174.532 212.633L173.977 211.642L171.397 213.082L171.952 214.073C171.578 214.434 171.26 214.839 170.992 215.282L169.901 214.97L169.091 217.812L170.182 218.124C170.175 218.379 170.188 218.635 170.219 218.897C170.25 219.159 170.3 219.408 170.362 219.657L169.371 220.212L170.811 222.792L171.802 222.238C172.164 222.612 172.569 222.929 173.011 223.197L172.7 224.288L175.542 225.098L175.853 224.008C176.115 224.002 176.377 223.995 176.633 223.964ZM174.096 218.442C173.977 217.407 174.713 216.472 175.747 216.354C176.782 216.235 177.717 216.971 177.835 218.006C177.954 219.04 177.218 219.975 176.184 220.094C175.149 220.212 174.214 219.47 174.096 218.442Z" stroke="#A6E0FA" stroke-width="0.467462" stroke-miterlimit="10" stroke-linecap="round" stroke-linejoin="round"/>
<path id="Vector_43" d="M175.196 208.394C175.39 208.369 175.583 208.332 175.77 208.288L176.187 209.036L178.132 207.952L177.714 207.204C177.995 206.936 178.238 206.624 178.437 206.294L179.26 206.525L179.871 204.38L179.048 204.15C179.054 203.957 179.042 203.763 179.023 203.57C178.998 203.377 178.961 203.184 178.917 202.997L179.665 202.579L178.581 200.634L177.833 201.052C177.565 200.772 177.253 200.529 176.923 200.329L177.153 199.506L175.009 198.896L174.779 199.718C174.585 199.712 174.392 199.724 174.199 199.743C174.006 199.768 173.813 199.806 173.626 199.849L173.208 199.101L171.263 200.186L171.681 200.934C171.401 201.202 171.157 201.513 170.958 201.844L170.135 201.613L169.524 203.757L170.347 203.988C170.341 204.181 170.353 204.374 170.372 204.567C170.397 204.761 170.434 204.954 170.478 205.141L169.73 205.558L170.815 207.503L171.563 207.085C171.831 207.366 172.142 207.609 172.473 207.808L172.242 208.631L174.386 209.242L174.617 208.419C174.804 208.426 175.003 208.413 175.196 208.394ZM173.283 204.231C173.189 203.452 173.75 202.747 174.529 202.66C175.308 202.567 176.013 203.128 176.1 203.907C176.194 204.686 175.633 205.39 174.853 205.477C174.081 205.565 173.376 205.01 173.283 204.231Z" stroke="#A6E0FA" stroke-width="0.467462" stroke-miterlimit="10" stroke-linecap="round" stroke-linejoin="round"/>
</g>
<g id="Group_10">
<path id="Vector_44" d="M40.0433 8.66998L35.9733 5.5972C35.3749 5.14844 35.2565 4.30077 35.7115 3.70242C36.1602 3.10407 37.0079 2.98565 37.6063 3.44064L40.6604 5.74679L44.9236 0.716896C45.4035 0.149708 46.2574 0.0749146 46.8309 0.561075C47.398 1.041 47.4728 1.8949 46.9867 2.46832L41.8944 8.47677C41.6264 8.78841 41.2462 8.95669 40.8598 8.95669C40.5731 8.94423 40.2864 8.85697 40.0433 8.66998Z" stroke="#A6E0FA" stroke-width="0.467462" stroke-miterlimit="10" stroke-linecap="round" stroke-linejoin="round"/>
</g>
<g id="Group_11">
<path id="Vector_45" d="M27.3346 42.1905L23.4017 38.2576L27.3346 34.3247L24.6046 31.5947L20.6717 35.5339L16.7388 31.5947L14.0088 34.3247L17.9417 38.2576L14.0088 42.1905L16.7388 44.9205L20.6717 40.9876L24.6046 44.9205L27.3346 42.1905Z" stroke="#A6E0FA" stroke-width="0.467462" stroke-miterlimit="10" stroke-linecap="round" stroke-linejoin="round"/>
</g>
</g>
<g id="Group_12">
<g id="Group_13">
<path id="Vector_46" opacity="0.7" d="M216.543 33.894H187.86V30.4597C187.86 28.8392 186.545 27.5303 184.93 27.5303H184.856C183.235 27.5303 181.926 28.8454 181.926 30.4597V33.894H78.6981V30.4597C78.6981 28.8392 77.383 27.5303 75.7687 27.5303H75.6939C74.0734 27.5303 72.7645 28.8454 72.7645 30.4597V33.894H43.9501C40.6841 33.894 38.0352 36.5429 38.0352 39.8089V189.16C38.0352 192.426 40.6841 195.075 43.9501 195.075H216.543C219.809 195.075 222.458 192.426 222.458 189.16V39.8089C222.458 36.5429 219.809 33.894 216.543 33.894Z" fill="#AAAAAA" fill-opacity="0.4"/>
<g id="Group_14">
<path id="Vector_47" d="M39.5854 192.812C36.1947 192.812 33.4336 190.051 33.4336 186.661V42.9252C33.4336 39.5346 36.1947 36.7734 39.5854 36.7734H212.179C215.569 36.7734 218.33 39.5346 218.33 42.9252V186.667C218.33 190.057 215.569 192.819 212.179 192.819H39.5854V192.812Z" fill="#C989DD"/>
<path id="Vector_48" d="M212.179 37.0104C215.445 37.0104 218.094 39.6594 218.094 42.9254V186.667C218.094 189.933 215.445 192.582 212.179 192.582H39.5855C36.3195 192.582 33.6706 189.933 33.6706 186.667V42.9254C33.6706 39.6594 36.3195 37.0104 39.5855 37.0104H212.179ZM212.179 36.543H39.5855C36.064 36.543 33.2031 39.4038 33.2031 42.9254V186.667C33.2031 190.188 36.064 193.049 39.5855 193.049H212.179C215.7 193.049 218.561 190.188 218.561 186.667V42.9254C218.561 39.4038 215.7 36.543 212.179 36.543Z" fill="#C989DD"/>
</g>
<g id="Group_15">
<path id="Vector_49" d="M160.387 44.9199H91.377V47.2759H160.387V44.9199Z" fill="white"/>
<path id="Vector_50" d="M169.33 51.4453H82.4316V53.8013H169.33V51.4453Z" fill="white"/>
</g>
<g id="Group_16">
<g id="Group_17">
<path id="Vector_51" d="M60.0083 60.8447H33.6621V87.1909H60.0083V60.8447Z" fill="white"/>
<path id="Vector_52" d="M39.7815 70.1254C41.5026 70.1254 42.8979 68.7301 42.8979 67.009C42.8979 65.2878 41.5026 63.8926 39.7815 63.8926C38.0603 63.8926 36.665 65.2878 36.665 67.009C36.665 68.7301 38.0603 70.1254 39.7815 70.1254Z" fill="#CEB2C7"/>
<g id="Group_18">
<path id="Vector_53" d="M42.3955 74.2764H54.7614" stroke="#5E334F" stroke-width="0.467462" stroke-miterlimit="10" stroke-linecap="round" stroke-linejoin="round"/>
<path id="Vector_54" d="M38.917 74.2764H40.8429" stroke="#5E334F" stroke-width="0.467462" stroke-miterlimit="10" stroke-linecap="round" stroke-linejoin="round"/>
<path id="Vector_55" d="M42.3955 78.5029H54.7614" stroke="#5E334F" stroke-width="0.467462" stroke-miterlimit="10" stroke-linecap="round" stroke-linejoin="round"/>
<path id="Vector_56" d="M38.917 78.5029H40.8429" stroke="#5E334F" stroke-width="0.467462" stroke-miterlimit="10" stroke-linecap="round" stroke-linejoin="round"/>
</g>
</g>
<g id="Group_19">
<path id="Vector_57" d="M112.707 60.8447H86.3604V87.1909H112.707V60.8447Z" fill="white"/>
<path id="Vector_58" d="M92.4729 70.1254C94.194 70.1254 95.5893 68.7301 95.5893 67.009C95.5893 65.2878 94.194 63.8926 92.4729 63.8926C90.7517 63.8926 89.3564 65.2878 89.3564 67.009C89.3564 68.7301 90.7517 70.1254 92.4729 70.1254Z" fill="#CEB2C7"/>
</g>
<g id="Group_20">
<path id="Vector_59" d="M139.055 60.8447H112.709V87.1909H139.055V60.8447Z" fill="white"/>
<path id="Vector_60" d="M118.828 70.1254C120.549 70.1254 121.945 68.7301 121.945 67.009C121.945 65.2878 120.549 63.8926 118.828 63.8926C117.107 63.8926 115.712 65.2878 115.712 67.009C115.712 68.7301 117.107 70.1254 118.828 70.1254Z" fill="#CEB2C7"/>
</g>
<g id="Group_21">
<path id="Vector_61" d="M165.399 60.8447H139.053V87.1909H165.399V60.8447Z" fill="white"/>
<path id="Vector_62" d="M145.172 70.1254C146.893 70.1254 148.288 68.7301 148.288 67.009C148.288 65.2878 146.893 63.8926 145.172 63.8926C143.451 63.8926 142.056 65.2878 142.056 67.009C142.056 68.7301 143.451 70.1254 145.172 70.1254Z" fill="#CEB2C7"/>
<g id="Group_22">
<path id="Vector_63" d="M147.79 74.2764H160.156" stroke="#5E334F" stroke-width="0.467462" stroke-miterlimit="10" stroke-linecap="round" stroke-linejoin="round"/>
<path id="Vector_64" d="M144.305 74.2764H146.231" stroke="#5E334F" stroke-width="0.467462" stroke-miterlimit="10" stroke-linecap="round" stroke-linejoin="round"/>
<path id="Vector_65" d="M147.79 78.5029H160.156" stroke="#5E334F" stroke-width="0.467462" stroke-miterlimit="10" stroke-linecap="round" stroke-linejoin="round"/>
<path id="Vector_66" d="M144.305 78.5029H146.231" stroke="#5E334F" stroke-width="0.467462" stroke-miterlimit="10" stroke-linecap="round" stroke-linejoin="round"/>
</g>
<g id="Group_23">
<path id="Vector_67" d="M147.79 82.7285H160.156" stroke="#5E334F" stroke-width="0.467462" stroke-miterlimit="10" stroke-linecap="round" stroke-linejoin="round"/>
<path id="Vector_68" d="M144.305 82.7285H146.231" stroke="#5E334F" stroke-width="0.467462" stroke-miterlimit="10" stroke-linecap="round" stroke-linejoin="round"/>
</g>
</g>
<g id="Group_24">
<path id="Vector_69" d="M191.748 60.8447H165.401V87.1909H191.748V60.8447Z" fill="white"/>
<path id="Vector_70" d="M171.521 70.1254C173.242 70.1254 174.637 68.7301 174.637 67.009C174.637 65.2878 173.242 63.8926 171.521 63.8926C169.8 63.8926 168.404 65.2878 168.404 67.009C168.404 68.7301 169.8 70.1254 171.521 70.1254Z" fill="#CEB2C7"/>
</g>
<g id="Group_25">
<path id="Vector_71" d="M218.092 60.8447H191.746V87.1909H218.092V60.8447Z" fill="white"/>
<path id="Vector_72" d="M197.865 70.1254C199.587 70.1254 200.982 68.7301 200.982 67.009C200.982 65.2878 199.587 63.8926 197.865 63.8926C196.144 63.8926 194.749 65.2878 194.749 67.009C194.749 68.7301 196.144 70.1254 197.865 70.1254Z" fill="#CEB2C7"/>
</g>
<g id="Group_26">
<path id="Vector_73" d="M60.0083 87.1914H33.6621V113.538H60.0083V87.1914Z" fill="white"/>
<path id="Vector_74" d="M39.7815 96.4789C41.5026 96.4789 42.8979 95.0837 42.8979 93.3625C42.8979 91.6414 41.5026 90.2461 39.7815 90.2461C38.0603 90.2461 36.665 91.6414 36.665 93.3625C36.665 95.0837 38.0603 96.4789 39.7815 96.4789Z" fill="#CEB2C7"/>
</g>
<g id="Group_27">
<path id="Vector_75" d="M191.748 87.1914H165.401V113.538H191.748V87.1914Z" fill="white"/>
<path id="Vector_76" d="M171.521 96.4789C173.242 96.4789 174.637 95.0837 174.637 93.3625C174.637 91.6414 173.242 90.2461 171.521 90.2461C169.8 90.2461 168.404 91.6414 168.404 93.3625C168.404 95.0837 169.8 96.4789 171.521 96.4789Z" fill="#CEB2C7"/>
</g>
<g id="Group_28">
<path id="Vector_77" d="M218.092 87.1914H191.746V113.538H218.092V87.1914Z" fill="white"/>
<path id="Vector_78" d="M197.865 96.4789C199.587 96.4789 200.982 95.0837 200.982 93.3625C200.982 91.6414 199.587 90.2461 197.865 90.2461C196.144 90.2461 194.749 91.6414 194.749 93.3625C194.749 95.0837 196.144 96.4789 197.865 96.4789Z" fill="#CEB2C7"/>
</g>
<g id="Group_29">
<path id="Vector_79" d="M60.0083 113.537H33.6621V139.883H60.0083V113.537Z" fill="white"/>
<path id="Vector_80" d="M39.7815 122.825C41.5026 122.825 42.8979 121.429 42.8979 119.708C42.8979 117.987 41.5026 116.592 39.7815 116.592C38.0603 116.592 36.665 117.987 36.665 119.708C36.665 121.429 38.0603 122.825 39.7815 122.825Z" fill="#CEB2C7"/>
</g>
<g id="Group_30">
<path id="Vector_81" d="M112.707 113.537H86.3604V139.883H112.707V113.537Z" fill="white"/>
<path id="Vector_82" d="M92.4729 122.825C94.194 122.825 95.5893 121.429 95.5893 119.708C95.5893 117.987 94.194 116.592 92.4729 116.592C90.7517 116.592 89.3564 117.987 89.3564 119.708C89.3564 121.429 90.7517 122.825 92.4729 122.825Z" fill="#CEB2C7"/>
</g>
<g id="Group_31">
<path id="Vector_83" d="M139.055 113.537H112.709V139.883H139.055V113.537Z" fill="white"/>
<path id="Vector_84" d="M118.828 122.825C120.549 122.825 121.945 121.429 121.945 119.708C121.945 117.987 120.549 116.592 118.828 116.592C117.107 116.592 115.712 117.987 115.712 119.708C115.712 121.429 117.107 122.825 118.828 122.825Z" fill="#CEB2C7"/>
</g>
<g id="Group_32">
<path id="Vector_85" d="M165.399 113.537H139.053V139.883H165.399V113.537Z" fill="white"/>
<path id="Vector_86" d="M145.172 122.825C146.893 122.825 148.288 121.429 148.288 119.708C148.288 117.987 146.893 116.592 145.172 116.592C143.451 116.592 142.056 117.987 142.056 119.708C142.056 121.429 143.451 122.825 145.172 122.825Z" fill="#CEB2C7"/>
</g>
<g id="Group_33">
<path id="Vector_87" d="M191.748 113.537H165.401V139.883H191.748V113.537Z" fill="white"/>
<path id="Vector_88" d="M171.521 122.825C173.242 122.825 174.637 121.429 174.637 119.708C174.637 117.987 173.242 116.592 171.521 116.592C169.8 116.592 168.404 117.987 168.404 119.708C168.404 121.429 169.8 122.825 171.521 122.825Z" fill="#CEB2C7"/>
<g id="Group_34">
<path id="Vector_89" d="M174.136 126.975H186.502" stroke="#5E334F" stroke-width="0.467462" stroke-miterlimit="10" stroke-linecap="round" stroke-linejoin="round"/>
<path id="Vector_90" d="M170.65 126.975H172.583" stroke="#5E334F" stroke-width="0.467462" stroke-miterlimit="10" stroke-linecap="round" stroke-linejoin="round"/>
<path id="Vector_91" d="M174.136 131.194H186.502" stroke="#5E334F" stroke-width="0.467462" stroke-miterlimit="10" stroke-linecap="round" stroke-linejoin="round"/>
<path id="Vector_92" d="M170.65 131.194H172.583" stroke="#5E334F" stroke-width="0.467462" stroke-miterlimit="10" stroke-linecap="round" stroke-linejoin="round"/>
</g>
</g>
<g id="Group_35">
<path id="Vector_93" d="M218.092 113.537H191.746V139.883H218.092V113.537Z" fill="white"/>
<path id="Vector_94" d="M197.865 122.825C199.587 122.825 200.982 121.429 200.982 119.708C200.982 117.987 199.587 116.592 197.865 116.592C196.144 116.592 194.749 117.987 194.749 119.708C194.749 121.429 196.144 122.825 197.865 122.825Z" fill="#CEB2C7"/>
</g>
<g id="Group_36">
<path id="Vector_95" d="M60.0083 139.89H33.6621V166.236H60.0083V139.89Z" fill="white"/>
<path id="Vector_96" d="M39.7815 149.17C41.5026 149.17 42.8979 147.775 42.8979 146.054C42.8979 144.333 41.5026 142.938 39.7815 142.938C38.0603 142.938 36.665 144.333 36.665 146.054C36.665 147.775 38.0603 149.17 39.7815 149.17Z" fill="#CEB2C7"/>
</g>
<g id="Group_37">
<path id="Vector_97" d="M112.707 139.89H86.3604V166.236H112.707V139.89Z" fill="white"/>
<path id="Vector_98" d="M92.4729 149.17C94.194 149.17 95.5893 147.775 95.5893 146.054C95.5893 144.333 94.194 142.938 92.4729 142.938C90.7517 142.938 89.3564 144.333 89.3564 146.054C89.3564 147.775 90.7517 149.17 92.4729 149.17Z" fill="#CEB2C7"/>
<g id="Group_38">
<path id="Vector_99" d="M95.0908 153.321H107.463" stroke="#5E334F" stroke-width="0.467462" stroke-miterlimit="10" stroke-linecap="round" stroke-linejoin="round"/>
<path id="Vector_100" d="M91.6123 153.321H93.5382" stroke="#5E334F" stroke-width="0.467462" stroke-miterlimit="10" stroke-linecap="round" stroke-linejoin="round"/>
<path id="Vector_101" d="M95.0908 157.548H107.463" stroke="#5E334F" stroke-width="0.467462" stroke-miterlimit="10" stroke-linecap="round" stroke-linejoin="round"/>
<path id="Vector_102" d="M91.6123 157.548H93.5382" stroke="#5E334F" stroke-width="0.467462" stroke-miterlimit="10" stroke-linecap="round" stroke-linejoin="round"/>
</g>
</g>
<g id="Group_39">
<path id="Vector_103" d="M165.399 139.89H139.053V166.236H165.399V139.89Z" fill="white"/>
<path id="Vector_104" d="M145.172 149.17C146.893 149.17 148.288 147.775 148.288 146.054C148.288 144.333 146.893 142.938 145.172 142.938C143.451 142.938 142.056 144.333 142.056 146.054C142.056 147.775 143.451 149.17 145.172 149.17Z" fill="#CEB2C7"/>
</g>
<g id="Group_40">
<path id="Vector_105" d="M191.748 139.89H165.401V166.236H191.748V139.89Z" fill="white"/>
<path id="Vector_106" d="M171.521 149.17C173.242 149.17 174.637 147.775 174.637 146.054C174.637 144.333 173.242 142.938 171.521 142.938C169.8 142.938 168.404 144.333 168.404 146.054C168.404 147.775 169.8 149.17 171.521 149.17Z" fill="#CEB2C7"/>
</g>
<g id="Group_41">
<path id="Vector_107" d="M218.092 139.89H191.746V166.236H218.092V139.89Z" fill="white"/>
<path id="Vector_108" d="M197.865 149.17C199.587 149.17 200.982 147.775 200.982 146.054C200.982 144.333 199.587 142.938 197.865 142.938C196.144 142.938 194.749 144.333 194.749 146.054C194.749 147.775 196.144 149.17 197.865 149.17Z" fill="#CEB2C7"/>
</g>
<g id="Group_42">
<path id="Vector_109" d="M60.0141 192.583H39.371C36.2172 192.583 33.668 190.027 33.668 186.879V166.236H60.0141V192.583Z" fill="white"/>
<path id="Vector_110" d="M39.7805 175.517C41.5016 175.517 42.8969 174.122 42.8969 172.401C42.8969 170.679 41.5016 169.284 39.7805 169.284C38.0593 169.284 36.6641 170.679 36.6641 172.401C36.6641 174.122 38.0593 175.517 39.7805 175.517Z" fill="#CEB2C7"/>
</g>
<g id="Group_43">
<path id="Vector_111" d="M86.3618 87.1914H60.0156V113.538H86.3618V87.1914Z" fill="white"/>
<path id="Vector_112" d="M66.1281 96.4789C67.8493 96.4789 69.2445 95.0837 69.2445 93.3625C69.2445 91.6414 67.8493 90.2461 66.1281 90.2461C64.407 90.2461 63.0117 91.6414 63.0117 93.3625C63.0117 95.0837 64.407 96.4789 66.1281 96.4789Z" fill="#CEB2C7"/>
</g>
<g id="Group_44">
<path id="Vector_113" d="M86.3618 60.8447H60.0156V87.1909H86.3618V60.8447Z" fill="white"/>
<path id="Vector_114" d="M66.1281 70.1254C67.8493 70.1254 69.2445 68.7301 69.2445 67.009C69.2445 65.2878 67.8493 63.8926 66.1281 63.8926C64.407 63.8926 63.0117 65.2878 63.0117 67.009C63.0117 68.7301 64.407 70.1254 66.1281 70.1254Z" fill="#CEB2C7"/>
</g>
<g id="Group_45">
<path id="Vector_115" d="M86.3618 113.537H60.0156V139.883H86.3618V113.537Z" fill="white"/>
<path id="Vector_116" d="M66.1281 122.825C67.8493 122.825 69.2445 121.429 69.2445 119.708C69.2445 117.987 67.8493 116.592 66.1281 116.592C64.407 116.592 63.0117 117.987 63.0117 119.708C63.0117 121.429 64.407 122.825 66.1281 122.825Z" fill="#CEB2C7"/>
</g>
<g id="Group_46">
<path id="Vector_117" d="M86.3618 139.89H60.0156V166.236H86.3618V139.89Z" fill="white"/>
<path id="Vector_118" d="M66.1281 149.17C67.8493 149.17 69.2445 147.775 69.2445 146.054C69.2445 144.333 67.8493 142.938 66.1281 142.938C64.407 142.938 63.0117 144.333 63.0117 146.054C63.0117 147.775 64.407 149.17 66.1281 149.17Z" fill="#CEB2C7"/>
</g>
<g id="Group_47">
<path id="Vector_119" d="M86.3618 166.236H60.0156V192.583H86.3618V166.236Z" fill="white"/>
<path id="Vector_120" d="M66.1281 175.517C67.8493 175.517 69.2445 174.122 69.2445 172.401C69.2445 170.679 67.8493 169.284 66.1281 169.284C64.407 169.284 63.0117 170.679 63.0117 172.401C63.0117 174.122 64.407 175.517 66.1281 175.517Z" fill="#CEB2C7"/>
</g>
<g id="Group_48">
<path id="Vector_121" d="M112.707 166.236H86.3604V192.583H112.707V166.236Z" fill="white"/>
<path id="Vector_122" d="M92.4729 175.517C94.194 175.517 95.5893 174.122 95.5893 172.401C95.5893 170.679 94.194 169.284 92.4729 169.284C90.7517 169.284 89.3564 170.679 89.3564 172.401C89.3564 174.122 90.7517 175.517 92.4729 175.517Z" fill="#CEB2C7"/>
</g>
<g id="Group_49">
<path id="Vector_123" d="M139.055 166.236H112.709V192.583H139.055V166.236Z" fill="white"/>
<path id="Vector_124" d="M118.828 175.517C120.549 175.517 121.945 174.122 121.945 172.401C121.945 170.679 120.549 169.284 118.828 169.284C117.107 169.284 115.712 170.679 115.712 172.401C115.712 174.122 117.107 175.517 118.828 175.517Z" fill="#CEB2C7"/>
</g>
<g id="Group_50">
<path id="Vector_125" d="M165.399 166.236H139.053V192.583H165.399V166.236Z" fill="white"/>
<path id="Vector_126" d="M145.172 175.517C146.893 175.517 148.288 174.122 148.288 172.401C148.288 170.679 146.893 169.284 145.172 169.284C143.451 169.284 142.056 170.679 142.056 172.401C142.056 174.122 143.451 175.517 145.172 175.517Z" fill="#CEB2C7"/>
</g>
<g id="Group_51">
<path id="Vector_127" d="M191.748 166.236H165.401V192.583H191.748V166.236Z" fill="white"/>
<path id="Vector_128" opacity="0.3" d="M187.607 190.588H169.544C168.36 190.588 167.394 189.628 167.394 188.438V174.545C167.394 173.361 168.353 172.395 169.544 172.395H187.607C188.791 172.395 189.757 173.354 189.757 174.545V188.438C189.751 189.622 188.791 190.588 187.607 190.588Z" fill="#C989DD"/>
<path id="Vector_129" d="M171.521 175.517C173.242 175.517 174.637 174.122 174.637 172.401C174.637 170.679 173.242 169.284 171.521 169.284C169.8 169.284 168.404 170.679 168.404 172.401C168.404 174.122 169.8 175.517 171.521 175.517Z" fill="#CEB2C7"/>
<g id="Group_52">
<path id="Vector_130" d="M174.136 179.668H186.502" stroke="#5E334F" stroke-width="0.467462" stroke-miterlimit="10" stroke-linecap="round" stroke-linejoin="round"/>
<path id="Vector_131" d="M170.65 179.668H172.583" stroke="#5E334F" stroke-width="0.467462" stroke-miterlimit="10" stroke-linecap="round" stroke-linejoin="round"/>
</g>
</g>
<g id="Group_53">
<path id="Vector_132" d="M212.364 192.583H191.746V166.236H218.092V186.855C218.092 190.015 215.531 192.583 212.364 192.583Z" fill="white"/>
<path id="Vector_133" d="M197.865 175.517C199.587 175.517 200.982 174.122 200.982 172.401C200.982 170.679 199.587 169.284 197.865 169.284C196.144 169.284 194.749 170.679 194.749 172.401C194.749 174.122 196.144 175.517 197.865 175.517Z" fill="#CEB2C7"/>
</g>
<g id="Group_54">
<path id="Vector_134" d="M139.055 87.1914H112.709V113.538H139.055V87.1914Z" fill="white"/>
<path id="Vector_135" opacity="0.3" d="M134.911 111.543H116.849C115.664 111.543 114.698 110.583 114.698 109.393V95.4999C114.698 94.3157 115.658 93.3496 116.849 93.3496H134.911C136.096 93.3496 137.062 94.3095 137.062 95.4999V109.393C137.062 110.583 136.102 111.543 134.911 111.543Z" fill="#C989DD"/>
<path id="Vector_136" d="M118.828 96.4789C120.549 96.4789 121.945 95.0837 121.945 93.3625C121.945 91.6414 120.549 90.2461 118.828 90.2461C117.107 90.2461 115.712 91.6414 115.712 93.3625C115.712 95.0837 117.107 96.4789 118.828 96.4789Z" fill="#CEB2C7"/>
<g id="Group_55">
<path id="Vector_137" d="M121.442 100.623H133.808" stroke="#5E334F" stroke-width="0.467462" stroke-miterlimit="10" stroke-linecap="round" stroke-linejoin="round"/>
<path id="Vector_138" d="M117.957 100.623H119.883" stroke="#5E334F" stroke-width="0.467462" stroke-miterlimit="10" stroke-linecap="round" stroke-linejoin="round"/>
</g>
</g>
<g id="Group_56">
<path id="Vector_139" d="M165.399 87.1914H139.053V113.538H165.399V87.1914Z" fill="white"/>
<path id="Vector_140" opacity="0.3" d="M161.255 111.543H143.192C142.008 111.543 141.042 110.583 141.042 109.393V95.4999C141.042 94.3157 142.002 93.3496 143.192 93.3496H161.255C162.439 93.3496 163.405 94.3095 163.405 95.4999V109.393C163.405 110.583 162.446 111.543 161.255 111.543Z" fill="#C989DD"/>
<path id="Vector_141" d="M145.172 96.4789C146.893 96.4789 148.288 95.0837 148.288 93.3625C148.288 91.6414 146.893 90.2461 145.172 90.2461C143.451 90.2461 142.056 91.6414 142.056 93.3625C142.056 95.0837 143.451 96.4789 145.172 96.4789Z" fill="#CEB2C7"/>
<g id="Group_57">
<path id="Vector_142" d="M147.79 100.623H160.156" stroke="#5E334F" stroke-width="0.467462" stroke-miterlimit="10" stroke-linecap="round" stroke-linejoin="round"/>
<path id="Vector_143" d="M144.305 100.623H146.231" stroke="#5E334F" stroke-width="0.467462" stroke-miterlimit="10" stroke-linecap="round" stroke-linejoin="round"/>
</g>
</g>
<g id="Group_58">
<path id="Vector_144" d="M139.055 139.89H112.709V166.236H139.055V139.89Z" fill="white"/>
<path id="Vector_145" opacity="0.7" d="M134.911 164.241H116.849C115.664 164.241 114.698 163.282 114.698 162.091V148.198C114.698 147.014 115.658 146.048 116.849 146.048H134.911C136.096 146.048 137.062 147.008 137.062 148.198V162.091C137.062 163.275 136.102 164.241 134.911 164.241Z" fill="#DEF9E5"/>
<path id="Vector_146" d="M118.828 149.17C120.549 149.17 121.945 147.775 121.945 146.054C121.945 144.333 120.549 142.938 118.828 142.938C117.107 142.938 115.712 144.333 115.712 146.054C115.712 147.775 117.107 149.17 118.828 149.17Z" fill="#CEB2C7"/>
</g>
<g id="Group_59">
<path id="Vector_147" d="M112.707 87.1914H86.3604V113.538H112.707V87.1914Z" fill="white"/>
<path id="Vector_148" opacity="0.3" d="M108.563 111.543H90.4999C89.3157 111.543 88.3496 110.583 88.3496 109.393V95.4999C88.3496 94.3157 89.3095 93.3496 90.4999 93.3496H108.563C109.747 93.3496 110.713 94.3095 110.713 95.4999V109.393C110.713 110.583 109.747 111.543 108.563 111.543Z" fill="#C989DD"/>
<path id="Vector_149" d="M92.4729 96.4789C94.194 96.4789 95.5893 95.0837 95.5893 93.3625C95.5893 91.6414 94.194 90.2461 92.4729 90.2461C90.7517 90.2461 89.3564 91.6414 89.3564 93.3625C89.3564 95.0837 90.7517 96.4789 92.4729 96.4789Z" fill="#CEB2C7"/>
<g id="Group_60">
<path id="Vector_150" d="M95.0908 100.623H107.463" stroke="#5E334F" stroke-width="0.467462" stroke-miterlimit="10" stroke-linecap="round" stroke-linejoin="round"/>
<path id="Vector_151" d="M91.6123 100.623H93.5382" stroke="#5E334F" stroke-width="0.467462" stroke-miterlimit="10" stroke-linecap="round" stroke-linejoin="round"/>
</g>
<g id="Group_61">
<path id="Vector_152" d="M95.0908 100.623H107.463" stroke="#5E334F" stroke-width="0.467462" stroke-miterlimit="10" stroke-linecap="round" stroke-linejoin="round"/>
<path id="Vector_153" d="M91.6123 100.623H93.5382" stroke="#5E334F" stroke-width="0.467462" stroke-miterlimit="10" stroke-linecap="round" stroke-linejoin="round"/>
<path id="Vector_154" d="M95.0908 104.85H107.463" stroke="#5E334F" stroke-width="0.467462" stroke-miterlimit="10" stroke-linecap="round" stroke-linejoin="round"/>
<path id="Vector_155" d="M91.6123 104.85H93.5382" stroke="#5E334F" stroke-width="0.467462" stroke-miterlimit="10" stroke-linecap="round" stroke-linejoin="round"/>
</g>
<g id="Group_62">
<path id="Vector_156" d="M95.0908 109.075H107.463" stroke="#5E334F" stroke-width="0.467462" stroke-miterlimit="10" stroke-linecap="round" stroke-linejoin="round"/>
<path id="Vector_157" d="M91.6123 109.075H93.5382" stroke="#5E334F" stroke-width="0.467462" stroke-miterlimit="10" stroke-linecap="round" stroke-linejoin="round"/>
</g>
</g>
</g>
<g id="Group_63">
<path id="Vector_158" d="M33.6621 87.1846H218.091" stroke="#C989DD" stroke-width="0.467462" stroke-miterlimit="10"/>
<path id="Vector_159" d="M33.6621 113.537H218.091" stroke="#C989DD" stroke-width="0.467462" stroke-miterlimit="10"/>
<path id="Vector_160" d="M60.0166 60.8389V192.601" stroke="#C989DD" stroke-width="0.467462" stroke-miterlimit="10"/>
<path id="Vector_161" d="M86.3613 60.8389V192.601" stroke="#C989DD" stroke-width="0.467462" stroke-miterlimit="10"/>
<path id="Vector_162" d="M112.709 60.8389V192.601" stroke="#C989DD" stroke-width="0.467462" stroke-miterlimit="10"/>
<path id="Vector_163" d="M139.053 60.8389V192.601" stroke="#C989DD" stroke-width="0.467462" stroke-miterlimit="10"/>
<path id="Vector_164" d="M165.397 60.8389V192.601" stroke="#C989DD" stroke-width="0.467462" stroke-miterlimit="10"/>
<path id="Vector_165" d="M191.745 60.8389V192.601" stroke="#C989DD" stroke-width="0.467462" stroke-miterlimit="10"/>
<path id="Vector_166" d="M33.6621 139.884H218.091" stroke="#C989DD" stroke-width="0.467462" stroke-miterlimit="10"/>
<path id="Vector_167" d="M33.6621 166.229H218.091" stroke="#C989DD" stroke-width="0.467462" stroke-miterlimit="10"/>
</g>
<g id="Group_64">
<path id="Vector_168" opacity="0.6" d="M67.0352 37.0098V48.3473C67.0352 50.7095 68.9486 52.623 71.3109 52.623H71.4168C73.7791 52.623 75.6926 50.7095 75.6926 48.3473V37.0098H67.0352Z" fill="#B2B2B2"/>
<g id="Group_65">
<g id="Group_66">
<path id="Vector_169" d="M71.4046 50.0175H71.3298C69.7093 50.0175 68.4004 48.7024 68.4004 47.0881V33.5691C68.4004 31.9485 69.7155 30.6396 71.3298 30.6396H71.4046C73.0251 30.6396 74.334 31.9548 74.334 33.5691V47.0881C74.334 48.7086 73.0189 50.0175 71.4046 50.0175Z" fill="#F1BA68"/>
</g>
<path id="Vector_170" opacity="0.5" d="M71.4056 47.5994H71.3308C69.7103 47.5994 68.4014 46.2842 68.4014 44.6699V47.0945C68.4014 48.715 69.7165 50.0239 71.3308 50.0239H71.4056C73.0261 50.0239 74.335 48.7088 74.335 47.0945V44.6699C74.335 46.2842 73.0199 47.5994 71.4056 47.5994Z" fill="#F1BA68"/>
</g>
</g>
<g id="Group_67">
<path id="Vector_171" opacity="0.6" d="M176.207 37.0098V48.3473C176.207 50.7095 178.121 52.623 180.483 52.623H180.589C182.951 52.623 184.864 50.7095 184.864 48.3473V37.0098H176.207Z" fill="#B2B2B2"/>
<g id="Group_68">
<g id="Group_69">
<path id="Vector_172" d="M180.568 50.0175H180.493C178.872 50.0175 177.563 48.7024 177.563 47.0881V33.5691C177.563 31.9485 178.879 30.6396 180.493 30.6396H180.568C182.188 30.6396 183.497 31.9548 183.497 33.5691V47.0881C183.497 48.7086 182.188 50.0175 180.568 50.0175Z" fill="#F1BA68"/>
</g>
<path id="Vector_173" opacity="0.5" d="M180.57 47.5994H180.495C178.874 47.5994 177.565 46.2842 177.565 44.6699V47.0945C177.565 48.715 178.881 50.0239 180.495 50.0239H180.57C182.19 50.0239 183.499 48.7088 183.499 47.0945V44.6699C183.499 46.2842 182.19 47.5994 180.57 47.5994Z" fill="#F1BA68"/>
</g>
</g>
<path id="Vector_174" opacity="0.2" d="M212.18 37.0098H208.789V177.691C208.789 180.957 206.14 183.606 202.874 183.606H33.6719V186.666C33.6719 189.932 36.3208 192.581 39.5868 192.581H212.18C215.446 192.581 218.095 189.932 218.095 186.666V42.9247C218.095 39.6587 215.446 37.0098 212.18 37.0098Z" fill="#B2B2B2"/>
</g>
<g id="Group_70">
<path id="Vector_175" d="M229.399 200.949C240.878 189.47 240.878 170.859 229.399 159.38C217.92 147.901 199.309 147.901 187.83 159.38C176.351 170.859 176.351 189.47 187.83 200.949C199.309 212.428 217.92 212.428 229.399 200.949Z" fill="#F1BA68"/>
<path id="Vector_176" d="M231.522 203.779C243 192.3 243 173.689 231.521 162.21C220.043 150.731 201.431 150.731 189.952 162.21C178.474 173.689 178.474 192.3 189.952 203.779C201.431 215.258 220.043 215.258 231.522 203.779Z" fill="#A6E0FA"/>
<path id="Vector_177" d="M229.399 200.949C240.878 189.47 240.878 170.859 229.399 159.38C217.92 147.901 199.309 147.901 187.83 159.38C176.351 170.859 176.351 189.47 187.83 200.949C199.309 212.428 217.92 212.428 229.399 200.949Z" fill="#6DC0F9"/>
<path id="Vector_178" opacity="0.5" d="M208.618 151.919C224.661 151.919 237.688 164.771 237.993 180.74C238 180.547 238.006 180.36 238.006 180.166C238.006 163.936 224.848 150.772 208.612 150.772C192.382 150.772 179.218 163.93 179.218 180.166C179.218 180.36 179.23 180.547 179.23 180.74C179.542 164.771 192.575 151.919 208.618 151.919Z" fill="white"/>
<path id="Vector_179" opacity="0.5" d="M208.617 207.023C223.45 207.023 235.474 194.999 235.474 180.166C235.474 165.333 223.45 153.309 208.617 153.309C193.784 153.309 181.76 165.333 181.76 180.166C181.76 194.999 193.784 207.023 208.617 207.023Z" fill="#268CD2"/>
<path id="Vector_180" d="M208.62 205.788C222.771 205.788 234.243 194.316 234.243 180.165C234.243 166.014 222.771 154.542 208.62 154.542C194.469 154.542 182.997 166.014 182.997 180.165C182.997 194.316 194.469 205.788 208.62 205.788Z" fill="white"/>
<path id="Vector_181" opacity="0.2" d="M208.618 202.804C194.968 202.804 183.817 192.133 183.045 178.677C183.013 179.169 183.001 179.668 183.001 180.173C183.001 194.321 194.469 205.796 208.624 205.796C222.773 205.796 234.247 194.327 234.247 180.173C234.247 179.674 234.229 179.175 234.204 178.677C233.418 192.127 222.262 202.804 208.618 202.804Z" fill="#B2B2B2"/>
<g id="Group_71">
<g id="Group_72">
<path id="Vector_182" d="M208.622 156.101V157.528" stroke="#5E334F" stroke-width="0.467462" stroke-miterlimit="10" stroke-linecap="round" stroke-linejoin="round"/>
<path id="Vector_183" d="M208.622 202.804V204.231" stroke="#5E334F" stroke-width="0.467462" stroke-miterlimit="10" stroke-linecap="round" stroke-linejoin="round"/>
<path id="Vector_184" d="M232.686 180.166H231.253" stroke="#5E334F" stroke-width="0.467462" stroke-miterlimit="10" stroke-linecap="round" stroke-linejoin="round"/>
<path id="Vector_185" d="M185.984 180.166H184.557" stroke="#5E334F" stroke-width="0.467462" stroke-miterlimit="10" stroke-linecap="round" stroke-linejoin="round"/>
</g>
<path id="Vector_186" d="M217.762 175.534L208.637 179.498L200.048 164.907L208.394 181.025L217.762 175.534Z" fill="#6DC0F9"/>
<path id="Vector_187" d="M209.762 180.166C209.762 180.796 209.251 181.307 208.621 181.307C207.992 181.307 207.48 180.796 207.48 180.166C207.48 179.537 207.992 179.025 208.621 179.025C209.251 179.019 209.762 179.537 209.762 180.166Z" fill="#5E334F"/>
</g>
</g>
</g>
</g>
</g>
<defs>
<clipPath id="clip0_2_6062">
<rect width="253.801" height="225.323" fill="white" transform="translate(0.0996094)"/>
</clipPath>
</defs>
</svg>
