<svg width="23" height="23" viewBox="0 0 23 23" fill="none" xmlns="http://www.w3.org/2000/svg">
<path d="M11.3944 5.13536C12.8125 5.13536 13.9621 3.98574 13.9621 2.56762C13.9621 1.1495 12.8125 -0.00012207 11.3944 -0.00012207C9.97628 -0.00012207 8.82666 1.1495 8.82666 2.56762C8.82666 3.98574 9.97628 5.13536 11.3944 5.13536Z" fill="white"/>
<path d="M19.8998 5.13536C21.3179 5.13536 22.4675 3.98574 22.4675 2.56762C22.4675 1.1495 21.3179 -0.00012207 19.8998 -0.00012207C18.4816 -0.00012207 17.332 1.1495 17.332 2.56762C17.332 3.98574 18.4816 5.13536 19.8998 5.13536Z" fill="white"/>
<path d="M19.8998 14.1224C21.3179 14.1224 22.4675 12.9728 22.4675 11.5547C22.4675 10.1366 21.3179 8.98694 19.8998 8.98694C18.4816 8.98694 17.332 10.1366 17.332 11.5547C17.332 12.9728 18.4816 14.1224 19.8998 14.1224Z" fill="white"/>
<path d="M2.56774 5.13548C3.98587 5.13548 5.13548 3.98587 5.13548 2.56774C5.13548 1.14962 3.98587 0 2.56774 0C1.14962 0 0 1.14962 0 2.56774C0 3.98587 1.14962 5.13548 2.56774 5.13548Z" fill="white"/>
<path d="M2.56774 14.1224C3.98587 14.1224 5.13548 12.9728 5.13548 11.5547C5.13548 10.1366 3.98587 8.98694 2.56774 8.98694C1.14962 8.98694 0 10.1366 0 11.5547C0 12.9728 1.14962 14.1224 2.56774 14.1224Z" fill="white"/>
<path d="M11.3944 13.962C12.8125 13.962 13.9621 12.8124 13.9621 11.3943C13.9621 9.97616 12.8125 8.82654 11.3944 8.82654C9.97628 8.82654 8.82666 9.97616 8.82666 11.3943C8.82666 12.8124 9.97628 13.962 11.3944 13.962Z" fill="white"/>
<path d="M2.56774 22.4678C3.98587 22.4678 5.13548 21.3181 5.13548 19.9C5.13548 18.4819 3.98587 17.3323 2.56774 17.3323C1.14962 17.3323 0 18.4819 0 19.9C0 21.3181 1.14962 22.4678 2.56774 22.4678Z" fill="white"/>
<path d="M11.3944 22.7887C12.8125 22.7887 13.9621 21.6391 13.9621 20.2209C13.9621 18.8028 12.8125 17.6532 11.3944 17.6532C9.97628 17.6532 8.82666 18.8028 8.82666 20.2209C8.82666 21.6391 9.97628 22.7887 11.3944 22.7887Z" fill="white"/>
<path d="M19.8998 22.4678C21.3179 22.4678 22.4675 21.3181 22.4675 19.9C22.4675 18.4819 21.3179 17.3323 19.8998 17.3323C18.4816 17.3323 17.332 18.4819 17.332 19.9C17.332 21.3181 18.4816 22.4678 19.8998 22.4678Z" fill="white"/>
</svg>
