<svg width="21" height="20" viewBox="0 0 21 20" fill="none" xmlns="http://www.w3.org/2000/svg">
<path d="M8.00008 17.5V11.3333C8.00008 10.8666 8.00008 10.6333 8.09091 10.455C8.17081 10.2982 8.29829 10.1707 8.45509 10.0908C8.63335 10 8.86671 10 9.33342 10H11.6668C12.1335 10 12.3668 10 12.5451 10.0908C12.7019 10.1707 12.8294 10.2982 12.9093 10.455C13.0001 10.6333 13.0001 10.8666 13.0001 11.3333V17.5M2.16675 7.91667L9.70008 2.26667C9.98697 2.0515 10.1304 1.94392 10.2879 1.90245C10.427 1.86585 10.5732 1.86585 10.7122 1.90245C10.8698 1.94392 11.0132 2.05151 11.3001 2.26667L18.8334 7.91667M3.83342 6.66667V14.8333C3.83342 15.7668 3.83342 16.2335 4.01507 16.59C4.17486 16.9036 4.42983 17.1586 4.74343 17.3183C5.09995 17.5 5.56666 17.5 6.50008 17.5H14.5001C15.4335 17.5 15.9002 17.5 16.2567 17.3183C16.5703 17.1586 16.8253 16.9036 16.9851 16.59C17.1668 16.2335 17.1668 15.7668 17.1668 14.8333V6.66667L12.1001 2.86667C11.5263 2.43634 11.2394 2.22118 10.9244 2.13824C10.6462 2.06503 10.3539 2.06503 10.0758 2.13824C9.76073 2.22118 9.47385 2.43634 8.90008 2.86667L3.83342 6.66667Z" stroke="#C989DD" stroke-width="1.6" stroke-linecap="round" stroke-linejoin="round"/>
</svg>
