<svg width="56" height="56" viewBox="0 0 56 56" fill="none" xmlns="http://www.w3.org/2000/svg">
<path d="M49.5997 25.578C50.7057 27.0247 50.7057 28.9777 49.5997 30.422C46.1161 34.9697 37.7581 44.3334 28.0001 44.3334C18.2421 44.3334 9.88407 34.9697 6.4004 30.422C5.86229 29.7293 5.57019 28.8772 5.57019 28C5.57019 27.1229 5.86229 26.2707 6.4004 25.578C9.88407 21.0304 18.2421 11.6667 28.0001 11.6667C37.7581 11.6667 46.1161 21.0304 49.5997 25.578V25.578Z" stroke="#C989DD" stroke-width="4" stroke-linecap="round" stroke-linejoin="round"/>
<path d="M28 35C31.866 35 35 31.866 35 28C35 24.134 31.866 21 28 21C24.134 21 21 24.134 21 28C21 31.866 24.134 35 28 35Z" stroke="#C989DD" stroke-width="4" stroke-linecap="round" stroke-linejoin="round"/>
</svg>
