<svg width="28" height="28" viewBox="0 0 28 28" fill="none" xmlns="http://www.w3.org/2000/svg">
<path d="M13.5625 3.5C8.0057 3.5 3.5 8.0057 3.5 13.5625C3.5 19.1193 8.0057 23.625 13.5625 23.625C19.1193 23.625 23.625 19.1193 23.625 13.5625C23.625 8.0057 19.1193 3.5 13.5625 3.5Z" stroke="#C989DD" stroke-width="1.4375" stroke-miterlimit="10"/>
<path d="M12.0312 12.0312H13.7812V18.375" stroke="#C989DD" stroke-width="1.4375" stroke-linecap="round" stroke-linejoin="round"/>
<path d="M11.375 18.5938H16.1875" stroke="#C989DD" stroke-width="1.4375" stroke-miterlimit="10" stroke-linecap="round"/>
<path d="M13.5625 7.10938C13.2813 7.10938 13.0064 7.19277 12.7725 7.349C12.5387 7.50524 12.3565 7.72731 12.2489 7.98712C12.1412 8.24694 12.1131 8.53283 12.1679 8.80864C12.2228 9.08446 12.3582 9.33781 12.5571 9.53667C12.7559 9.73552 13.0093 9.87094 13.2851 9.9258C13.5609 9.98067 13.8468 9.95251 14.1066 9.84489C14.3664 9.73727 14.5885 9.55503 14.7447 9.3212C14.901 9.08738 14.9844 8.81247 14.9844 8.53125C14.9844 8.15415 14.8346 7.79249 14.5679 7.52583C14.3013 7.25918 13.9396 7.10938 13.5625 7.10938Z" fill="#C989DD"/>
</svg>
