<svg width="28" height="28" viewBox="0 0 28 28" fill="none" xmlns="http://www.w3.org/2000/svg">
<path d="M8.75 20.125H24.5M8.75 7.875H24.5H8.75ZM8.75 14H24.5H8.75Z" stroke="#C989DD" stroke-width="3.09375" stroke-linecap="round" stroke-linejoin="round"/>
<path d="M4.375 8.75C4.85825 8.75 5.25 8.35825 5.25 7.875C5.25 7.39175 4.85825 7 4.375 7C3.89175 7 3.5 7.39175 3.5 7.875C3.5 8.35825 3.89175 8.75 4.375 8.75Z" stroke="#C989DD" stroke-width="2.0625" stroke-linecap="round" stroke-linejoin="round"/>
<path d="M4.375 14.875C4.85825 14.875 5.25 14.4832 5.25 14C5.25 13.5168 4.85825 13.125 4.375 13.125C3.89175 13.125 3.5 13.5168 3.5 14C3.5 14.4832 3.89175 14.875 4.375 14.875Z" stroke="#C989DD" stroke-width="2.0625" stroke-linecap="round" stroke-linejoin="round"/>
<path d="M4.375 21C4.85825 21 5.25 20.6082 5.25 20.125C5.25 19.6418 4.85825 19.25 4.375 19.25C3.89175 19.25 3.5 19.6418 3.5 20.125C3.5 20.6082 3.89175 21 4.375 21Z" stroke="#C989DD" stroke-width="2.0625" stroke-linecap="round" stroke-linejoin="round"/>
</svg>
