<svg width="34" height="34" viewBox="0 0 34 34" fill="none" xmlns="http://www.w3.org/2000/svg">
<circle cx="17" cy="17" r="17" fill="#6DC0F9" fill-opacity="0.1"/>
<path d="M17.75 15.1182C18 15.8682 18.6875 16.3682 19.5 16.3682C20.5625 16.3682 21.375 15.5557 21.375 14.4932C21.375 13.4307 20.5625 12.6182 19.5 12.6182C18.6875 12.6182 18 13.1182 17.75 13.8682H10.125C9.4375 13.8682 8.875 14.4307 8.875 15.1182V18.8682H7V20.1182H8.875V23.8682C8.875 24.5557 9.4375 25.1182 10.125 25.1182H18.875C19.5625 25.1182 20.125 24.5557 20.125 23.8682V21.3682H18.875V23.8682H10.125V15.1182H17.75ZM19.5 13.8682C19.875 13.8682 20.125 14.1182 20.125 14.4932C20.125 14.8682 19.875 15.1182 19.5 15.1182C19.125 15.1182 18.875 14.8682 18.875 14.4932C18.875 14.1182 19.125 13.8682 19.5 13.8682Z" fill="#6DC0F9"/>
<path d="M25.125 13.8682V10.1182C25.125 9.43066 24.5625 8.86816 23.875 8.86816H15.125C14.4375 8.86816 13.875 9.43066 13.875 10.1182V12.6182H15.125V10.1182H23.875V18.8682H16.25C16 18.1182 15.3125 17.6182 14.5 17.6182C13.4375 17.6182 12.625 18.4307 12.625 19.4932C12.625 20.5557 13.4375 21.3682 14.5 21.3682C15.3125 21.3682 16 20.8682 16.25 20.1182H23.875C24.5625 20.1182 25.125 19.5557 25.125 18.8682V15.1182H27V13.8682H25.125ZM14.5 20.1182C14.125 20.1182 13.875 19.8682 13.875 19.4932C13.875 19.1182 14.125 18.8682 14.5 18.8682C14.875 18.8682 15.125 19.1182 15.125 19.4932C15.125 19.8682 14.875 20.1182 14.5 20.1182Z" fill="#6DC0F9"/>
</svg>
