<svg width="105" height="28" viewBox="0 0 105 28" fill="none" xmlns="http://www.w3.org/2000/svg">
<path d="M76.7595 5.02642H71.5588V9.39163H69.009V13.4895H71.5904V20.4856C71.5904 24.0195 73.0122 26.3863 77.3092 26.3863C78.351 26.3849 79.3862 26.2156 80.3772 25.8842L80.3109 21.8874C79.8134 22.0666 79.2896 22.156 78.7627 22.1515C77.2429 22.1515 76.7595 21.3528 76.7595 19.8205V13.4895H80.551V9.39163H76.7595V5.02642Z" fill="white"/>
<path d="M89.9666 8.85698C87.3504 8.85698 84.6711 9.835 82.7975 11.6574L85.4768 14.6208C86.5576 13.5749 87.9706 12.9711 89.4516 12.9223C91.0977 12.9223 92.3584 13.6884 92.3584 15.3217V15.589C87.6727 15.589 82.0234 16.3877 82.0234 21.1865C82.0234 25.0986 85.3157 26.4026 87.8686 26.4026C89.7644 26.4026 91.6128 25.6006 92.4216 24.2347H92.5196V26.0016H97.3632V17.6167C97.3632 11.5889 95.36 8.85698 89.9666 8.85698ZM92.5196 19.3218C92.5196 21.3854 91.3221 22.7187 89.1925 22.7187C88.1277 22.7187 86.8986 22.2851 86.8986 21.0202C86.8986 19.0642 89.5148 18.7545 91.8403 18.7545H92.5196V19.3218Z" fill="white"/>
<path d="M105 0.794877H99.6382V25.9853H105V0.794877Z" fill="white"/>
<path d="M50.2567 1.41753C47.8268 1.37715 45.4191 1.89963 43.2108 2.94649C40.6041 4.19183 38.3956 6.14461 36.1649 8.05826C35.988 8.20822 35.7889 8.32232 35.593 8.45924C34.2502 5.94574 33.6814 3.24316 33.1254 0.491674C33.0053 0.765519 32.8094 1.22193 32.604 1.7957C30.2628 8.3158 30.5187 17.5222 35.7036 24.0064C36.959 25.5659 38.443 26.9134 40.1018 28C40.0006 27.6316 39.9533 27.4458 39.8995 27.2632C39.4288 25.7212 38.8695 24.2053 38.503 22.634C37.1665 16.9191 38.2092 11.9573 41.8711 7.87243C44.1871 5.29047 46.9265 3.44202 49.7701 1.74353C49.9439 1.65877 50.0956 1.53163 50.2567 1.41753Z" fill="white"/>
<path d="M37.2391 4.21466C37.5093 4.18318 37.7707 4.09667 38.0082 3.96014C38.2457 3.82361 38.4546 3.63977 38.6228 3.4193C38.7909 3.19882 38.9149 2.9461 38.9876 2.67578C39.0603 2.40547 39.0803 2.12294 39.0464 1.8446C38.9795 1.29273 38.7037 0.790582 38.2793 0.447739C37.8549 0.104896 37.3162 -0.0507993 36.7809 0.0146333C36.2457 0.0800658 35.7572 0.361314 35.4221 0.796993C35.0871 1.23267 34.9327 1.78741 34.9926 2.34013C35.0578 2.89244 35.3287 3.39693 35.7479 3.7468C36.1672 4.09667 36.702 4.26446 37.2391 4.21466Z" fill="white"/>
<path d="M12.4994 21.1539C8.68575 21.1539 6.00641 18.2199 6.00641 13.9231C6.00641 9.75676 8.7521 6.69231 12.5942 6.69231C14.3383 6.69231 16.1803 7.38996 17.2135 8.85698L20.9608 4.99056C19.0651 2.72483 15.5895 1.52513 12.4014 1.52513C5.42504 1.52513 0 6.35652 0 13.9231C0 21.3202 5.2639 26.3863 12.3035 26.3863C16.1487 26.3863 19.182 24.8834 21.1851 22.4742L17.3431 18.7545C16.3731 20.1531 14.6606 21.1539 12.4994 21.1539Z" fill="white"/>
<path d="M28.825 0.840502H23.4631V26.0309H28.825V0.840502Z" fill="white"/>
<path d="M52.8697 8.97108C50.6422 8.97108 48.8001 10.2751 48.0576 11.7356H47.9913V9.45356H42.8569V26.0472H48.1872V17.0332C48.1872 15.1358 49.154 13.4667 51.0308 13.4667C52.9076 13.4667 53.4226 15.1358 53.4226 16.968V26.0309H58.7497V15.7683C58.7466 12.4365 57.1889 8.97108 52.8697 8.97108Z" fill="white"/>
<path d="M66.7055 9.43726H61.41V26.0309H66.7055V9.43726Z" fill="white"/>
<path d="M66.7041 4.38995C66.7302 2.88139 65.566 1.63669 64.104 1.60983C62.6419 1.58297 61.4355 2.78412 61.4095 4.29268C61.3835 5.80124 62.5476 7.04595 64.0097 7.07281C65.4718 7.09967 66.6781 5.89851 66.7041 4.38995Z" fill="white"/>
</svg>
