<svg width="9" height="9" viewBox="0 0 9 9" fill="none" xmlns="http://www.w3.org/2000/svg">
<path d="M5.53375 4.4999L8.16584 1.86782C8.29076 1.74312 8.36102 1.57391 8.36118 1.3974C8.36133 1.2209 8.29137 1.05156 8.16667 0.926641C8.04197 0.801722 7.87276 0.731457 7.69625 0.731301C7.51975 0.731145 7.35041 0.801112 7.22549 0.925809L4.59341 3.55789L1.96132 0.925809C1.83641 0.800891 1.66698 0.730713 1.49032 0.730713C1.31366 0.730713 1.14423 0.800891 1.01932 0.925809C0.894397 1.05073 0.824219 1.22015 0.824219 1.39681C0.824219 1.57347 0.894397 1.7429 1.01932 1.86782L3.6514 4.4999L1.01932 7.13199C0.894397 7.2569 0.824219 7.42633 0.824219 7.60299C0.824219 7.77965 0.894397 7.94908 1.01932 8.074C1.14423 8.19891 1.31366 8.26909 1.49032 8.26909C1.66698 8.26909 1.83641 8.19891 1.96132 8.074L4.59341 5.44191L7.22549 8.074C7.35041 8.19891 7.51984 8.26909 7.6965 8.26909C7.87316 8.26909 8.04258 8.19891 8.1675 8.074C8.29242 7.94908 8.3626 7.77965 8.3626 7.60299C8.3626 7.42633 8.29242 7.2569 8.1675 7.13199L5.53375 4.4999Z" fill="#AAAAAA"/>
</svg>
