<svg width="34" height="34" viewBox="0 0 34 34" fill="none" xmlns="http://www.w3.org/2000/svg">
<circle cx="17" cy="17" r="17" fill="#6DC0F9" fill-opacity="0.1"/>
<path d="M17 18.667C16.7639 18.667 16.5661 18.587 16.4067 18.427C16.2467 18.2675 16.1667 18.0698 16.1667 17.8337C16.1667 17.5975 16.2467 17.3995 16.4067 17.2395C16.5661 17.08 16.7639 17.0003 17 17.0003C17.2361 17.0003 17.4342 17.08 17.5942 17.2395C17.7536 17.3995 17.8333 17.5975 17.8333 17.8337C17.8333 18.0698 17.7536 18.2675 17.5942 18.427C17.4342 18.587 17.2361 18.667 17 18.667ZM13.6667 18.667C13.4306 18.667 13.2325 18.587 13.0725 18.427C12.9131 18.2675 12.8333 18.0698 12.8333 17.8337C12.8333 17.5975 12.9131 17.3995 13.0725 17.2395C13.2325 17.08 13.4306 17.0003 13.6667 17.0003C13.9028 17.0003 14.1008 17.08 14.2608 17.2395C14.4203 17.3995 14.5 17.5975 14.5 17.8337C14.5 18.0698 14.4203 18.2675 14.2608 18.427C14.1008 18.587 13.9028 18.667 13.6667 18.667ZM20.3333 18.667C20.0972 18.667 19.8994 18.587 19.74 18.427C19.58 18.2675 19.5 18.0698 19.5 17.8337C19.5 17.5975 19.58 17.3995 19.74 17.2395C19.8994 17.08 20.0972 17.0003 20.3333 17.0003C20.5694 17.0003 20.7672 17.08 20.9267 17.2395C21.0867 17.3995 21.1667 17.5975 21.1667 17.8337C21.1667 18.0698 21.0867 18.2675 20.9267 18.427C20.7672 18.587 20.5694 18.667 20.3333 18.667ZM17 22.0003C16.7639 22.0003 16.5661 21.9203 16.4067 21.7603C16.2467 21.6009 16.1667 21.4031 16.1667 21.167C16.1667 20.9309 16.2467 20.7331 16.4067 20.5737C16.5661 20.4137 16.7639 20.3337 17 20.3337C17.2361 20.3337 17.4342 20.4137 17.5942 20.5737C17.7536 20.7331 17.8333 20.9309 17.8333 21.167C17.8333 21.4031 17.7536 21.6009 17.5942 21.7603C17.4342 21.9203 17.2361 22.0003 17 22.0003ZM13.6667 22.0003C13.4306 22.0003 13.2325 21.9203 13.0725 21.7603C12.9131 21.6009 12.8333 21.4031 12.8333 21.167C12.8333 20.9309 12.9131 20.7331 13.0725 20.5737C13.2325 20.4137 13.4306 20.3337 13.6667 20.3337C13.9028 20.3337 14.1008 20.4137 14.2608 20.5737C14.4203 20.7331 14.5 20.9309 14.5 21.167C14.5 21.4031 14.4203 21.6009 14.2608 21.7603C14.1008 21.9203 13.9028 22.0003 13.6667 22.0003ZM20.3333 22.0003C20.0972 22.0003 19.8994 21.9203 19.74 21.7603C19.58 21.6009 19.5 21.4031 19.5 21.167C19.5 20.9309 19.58 20.7331 19.74 20.5737C19.8994 20.4137 20.0972 20.3337 20.3333 20.3337C20.5694 20.3337 20.7672 20.4137 20.9267 20.5737C21.0867 20.7331 21.1667 20.9309 21.1667 21.167C21.1667 21.4031 21.0867 21.6009 20.9267 21.7603C20.7672 21.9203 20.5694 22.0003 20.3333 22.0003ZM11.1667 25.3337C10.7083 25.3337 10.3158 25.1706 9.98917 24.8445C9.66306 24.5178 9.5 24.1253 9.5 23.667V12.0003C9.5 11.542 9.66306 11.1498 9.98917 10.8237C10.3158 10.497 10.7083 10.3337 11.1667 10.3337H12V8.66699H13.6667V10.3337H20.3333V8.66699H22V10.3337H22.8333C23.2917 10.3337 23.6842 10.497 24.0108 10.8237C24.3369 11.1498 24.5 11.542 24.5 12.0003V23.667C24.5 24.1253 24.3369 24.5178 24.0108 24.8445C23.6842 25.1706 23.2917 25.3337 22.8333 25.3337H11.1667ZM11.1667 23.667H22.8333V15.3337H11.1667V23.667Z" fill="#6DC0F9"/>
</svg>
