<svg width="56" height="57" viewBox="0 0 56 57" fill="none" xmlns="http://www.w3.org/2000/svg">
<path d="M23.3334 19.1667V33.1667L34.3 39.9333L36.1667 37.1334L26.8334 31.5334V19.1667H23.3334Z" fill="#C989DD"/>
<path d="M41.8133 28.5C42.165 30.8192 42.0099 33.187 41.3587 35.4405C40.7075 37.694 39.5756 39.7796 38.041 41.5537C36.5064 43.3278 34.6056 44.7483 32.4694 45.7172C30.3331 46.6862 28.0123 47.1807 25.6666 47.1666C16.5666 47.1666 9.33329 39.9333 9.33329 30.8333C9.33329 21.7333 16.5666 14.5 25.6666 14.5C27.3 14.5 28.8633 14.7333 30.3333 15.1766V10.37C28.84 10.02 27.2766 9.83331 25.6666 9.83331C14 9.83331 4.66663 19.1666 4.66663 30.8333C4.66663 42.5 14 51.8333 25.6666 51.8333C28.6246 51.8456 31.5514 51.2303 34.254 50.028C36.9566 48.8257 39.3734 47.0638 41.3449 44.8586C43.3163 42.6534 44.7976 40.0551 45.6908 37.2352C46.584 34.4153 46.8689 31.4381 46.5266 28.5H41.8133Z" fill="#C989DD"/>
<path d="M46.6667 12.1667V5.16669C46.6667 5.16669 46.5 3.5 44.3333 3.5C42.1667 3.5 42 5.16669 42 5.16669V12.1667H35C35 12.1667 33.5 12.5 33.5 14.5C33.5 16.5 35 16.8334 35 16.8334H42V23.8334C42 23.8334 42.1667 25 44.3333 25C46.5 25 46.6667 23.8334 46.6667 23.8334V16.8334H53.6667C53.6667 16.8334 55 16.5 55 14.5C55 12.5 53.6667 12.1667 53.6667 12.1667H46.6667Z" fill="#C989DD"/>
</svg>
