<svg width="14" height="18" viewBox="0 0 14 18" fill="none" xmlns="http://www.w3.org/2000/svg">
<path d="M9.34928 13.6563V14.2331C9.34928 14.8449 9.10622 15.4317 8.67358 15.8643C8.24095 16.297 7.65416 16.54 7.04232 16.54C6.43048 16.54 5.8437 16.297 5.41106 15.8643C4.97842 15.4317 4.73537 14.8449 4.73537 14.2331V13.6563M13.2307 12.4823C12.3051 11.3494 11.6515 10.7726 11.6515 7.64922C11.6515 4.78896 10.191 3.76993 8.98881 3.27502C8.82913 3.20941 8.67882 3.05874 8.63015 2.89473C8.41928 2.17705 7.82813 1.5448 7.04232 1.5448C6.25651 1.5448 5.665 2.17741 5.45629 2.89545C5.40763 3.06126 5.25731 3.20941 5.09763 3.27502C3.89405 3.77065 2.4349 4.78607 2.4349 7.64922C2.4331 10.7726 1.77958 11.3494 0.853913 12.4823C0.470381 12.9516 0.806332 13.6563 1.47715 13.6563H12.6111C13.2783 13.6563 13.6121 12.9495 13.2307 12.4823Z" stroke="#C989DD" stroke-width="1.15348" stroke-linecap="round" stroke-linejoin="round"/>
</svg>
