<svg width="23" height="23" viewBox="0 0 23 23" fill="none" xmlns="http://www.w3.org/2000/svg">
<path d="M14.375 17.25V17.9688C14.375 18.7312 14.0721 19.4625 13.5329 20.0017C12.9938 20.5408 12.2625 20.8438 11.5 20.8438C10.7375 20.8438 10.0062 20.5408 9.46706 20.0017C8.9279 19.4625 8.625 18.7312 8.625 17.9688V17.25M19.2122 15.7869C18.0586 14.375 17.2442 13.6563 17.2442 9.76377C17.2442 6.19922 15.4239 4.92928 13.9258 4.3125C13.7268 4.23074 13.5394 4.04297 13.4788 3.83857C13.216 2.94418 12.4793 2.15625 11.5 2.15625C10.5207 2.15625 9.78353 2.94463 9.52343 3.83947C9.46279 4.04611 9.27547 4.23074 9.07646 4.3125C7.57652 4.93018 5.75808 6.19563 5.75808 9.76377C5.75584 13.6563 4.9414 14.375 3.78781 15.7869C3.30984 16.3718 3.72851 17.25 4.56451 17.25H18.44C19.2715 17.25 19.6875 16.3691 19.2122 15.7869Z" stroke="#C989DD" stroke-width="1.4375" stroke-linecap="round" stroke-linejoin="round"/>
</svg>
