<svg width="21" height="20" viewBox="0 0 21 20" fill="none" xmlns="http://www.w3.org/2000/svg">
<path d="M7.16675 6.66699H7.17508M2.16675 4.33366L2.16675 8.06242C2.16675 8.47007 2.16675 8.6739 2.2128 8.86571C2.25363 9.03577 2.32097 9.19835 2.41235 9.34747C2.51542 9.51566 2.65954 9.65979 2.9478 9.94804L9.33832 16.3386C10.3284 17.3286 10.8234 17.8236 11.3942 18.0091C11.8963 18.1722 12.4372 18.1722 12.9393 18.0091C13.5101 17.8236 14.0051 17.3286 14.9952 16.3386L16.8383 14.4954C17.8284 13.5054 18.3234 13.0104 18.5089 12.4395C18.672 11.9374 18.672 11.3966 18.5089 10.8944C18.3234 10.3236 17.8284 9.82861 16.8383 8.83856L10.4478 2.44804C10.1595 2.15979 10.0154 2.01566 9.84722 1.91259C9.6981 1.82121 9.53553 1.75387 9.36547 1.71304C9.17365 1.66699 8.96983 1.66699 8.56218 1.66699L4.83341 1.66699C3.89999 1.66699 3.43328 1.66699 3.07676 1.84865C2.76316 2.00844 2.50819 2.2634 2.3484 2.57701C2.16675 2.93353 2.16675 3.40024 2.16675 4.33366ZM7.58342 6.66699C7.58342 6.89711 7.39687 7.08366 7.16675 7.08366C6.93663 7.08366 6.75008 6.89711 6.75008 6.66699C6.75008 6.43687 6.93663 6.25033 7.16675 6.25033C7.39687 6.25033 7.58342 6.43687 7.58342 6.66699Z" stroke="#D9D8D8" stroke-width="1.6" stroke-linecap="round" stroke-linejoin="round"/>
</svg>
