<svg width="34" height="34" viewBox="0 0 34 34" fill="none" xmlns="http://www.w3.org/2000/svg">
<circle cx="17" cy="17" r="17" fill="#6DC0F9" fill-opacity="0.1"/>
<path d="M25.125 23.5098C25.125 23.6755 25.0592 23.8345 24.9419 23.9517C24.8247 24.0689 24.6658 24.1348 24.5 24.1348H9.5C9.33424 24.1348 9.17527 24.0689 9.05806 23.9517C8.94085 23.8345 8.875 23.6755 8.875 23.5098V11.0098C8.875 10.844 8.94085 10.685 9.05806 10.5678C9.17527 10.4506 9.33424 10.3848 9.5 10.3848C9.66576 10.3848 9.82473 10.4506 9.94194 10.5678C10.0592 10.685 10.125 10.844 10.125 11.0098V12.0012L14.5 16.3762L16.5578 14.3176C16.6159 14.2595 16.6848 14.2134 16.7607 14.1819C16.8365 14.1505 16.9179 14.1343 17 14.1343C17.0821 14.1343 17.1635 14.1505 17.2393 14.1819C17.3152 14.2134 17.3841 14.2595 17.4422 14.3176L21.0625 17.9387L22.1828 16.8176C22.2702 16.7301 22.3816 16.6705 22.5029 16.6463C22.6242 16.6222 22.75 16.6345 22.8642 16.6819C22.9785 16.7292 23.0762 16.8094 23.1448 16.9123C23.2135 17.0151 23.2501 17.1361 23.25 17.2598V20.3848C23.25 20.5505 23.1842 20.7095 23.0669 20.8267C22.9497 20.9439 22.7908 21.0098 22.625 21.0098H19.5C19.3763 21.0099 19.2554 20.9733 19.1525 20.9046C19.0496 20.8359 18.9695 20.7383 18.9221 20.624C18.8748 20.5097 18.8624 20.384 18.8865 20.2627C18.9107 20.1414 18.9703 20.03 19.0578 19.9426L20.1789 18.8223L17 15.6434L14.9422 17.702C14.8841 17.7601 14.8152 17.8062 14.7393 17.8376C14.6635 17.8691 14.5821 17.8853 14.5 17.8853C14.4179 17.8853 14.3365 17.8691 14.2607 17.8376C14.1848 17.8062 14.1159 17.7601 14.0578 17.702L10.125 13.7684V22.8848H24.5C24.6658 22.8848 24.8247 22.9506 24.9419 23.0678C25.0592 23.185 25.125 23.344 25.125 23.5098Z" fill="#6DC0F9"/>
</svg>
