<svg width="21" height="20" viewBox="0 0 21 20" fill="none" xmlns="http://www.w3.org/2000/svg">
<path d="M18.8334 8.33366H2.16675M9.66675 11.667H5.50008M2.16675 6.83366L2.16675 13.167C2.16675 14.1004 2.16675 14.5671 2.3484 14.9236C2.50819 15.2372 2.76316 15.4922 3.07676 15.652C3.43328 15.8337 3.89999 15.8337 4.83341 15.8337L16.1667 15.8337C17.1002 15.8337 17.5669 15.8337 17.9234 15.652C18.237 15.4922 18.492 15.2372 18.6518 14.9236C18.8334 14.5671 18.8334 14.1004 18.8334 13.167V6.83366C18.8334 5.90024 18.8334 5.43353 18.6518 5.07701C18.492 4.76341 18.237 4.50844 17.9234 4.34865C17.5669 4.16699 17.1002 4.16699 16.1667 4.16699L4.83342 4.16699C3.89999 4.16699 3.43328 4.16699 3.07676 4.34865C2.76316 4.50844 2.50819 4.7634 2.3484 5.07701C2.16675 5.43353 2.16675 5.90024 2.16675 6.83366Z" stroke="#C989DD" stroke-width="1.6" stroke-linecap="round" stroke-linejoin="round"/>
</svg>
