<svg width="23" height="23" viewBox="0 0 23 23" fill="none" xmlns="http://www.w3.org/2000/svg">
<path d="M11.6302 2.15626C6.3752 2.08529 2.08517 6.37533 2.15614 11.6303C2.22622 16.6701 6.32983 20.7737 11.3696 20.8438C16.6255 20.9156 20.9146 16.6256 20.8427 11.3706C20.7736 6.32996 16.67 2.22634 11.6302 2.15626ZM17.3092 16.8569C17.2913 16.8763 17.2694 16.8915 17.2449 16.9014C17.2205 16.9113 17.1942 16.9158 17.1679 16.9144C17.1416 16.913 17.1159 16.9059 17.0926 16.8935C17.0694 16.8811 17.0492 16.8637 17.0334 16.8426C16.6316 16.3169 16.1395 15.8668 15.5801 15.5133C14.4364 14.7793 12.9873 14.375 11.4999 14.375C10.0125 14.375 8.56335 14.7793 7.41964 15.5133C6.8603 15.8666 6.36824 16.3166 5.96642 16.8421C5.95063 16.8632 5.93039 16.8806 5.90714 16.893C5.88389 16.9054 5.85819 16.9126 5.83187 16.9139C5.80555 16.9153 5.77925 16.9109 5.75484 16.901C5.73042 16.891 5.70849 16.8758 5.69059 16.8565C4.37244 15.4335 3.62576 13.5742 3.59364 11.6348C3.52042 7.26343 7.10743 3.60454 11.4806 3.59376C15.8537 3.58298 19.4061 7.13406 19.4061 11.5C19.4076 13.4862 18.6587 15.3996 17.3092 16.8569Z" fill="#9E58FF"/>
<path d="M11.5 6.46875C10.6141 6.46875 9.81317 6.80072 9.24401 7.40402C8.67485 8.00732 8.39049 8.84152 8.45473 9.73682C8.585 11.5 9.95108 12.9375 11.5 12.9375C13.0489 12.9375 14.4123 11.5 14.5452 9.73727C14.6117 8.85051 14.3296 8.02395 13.751 7.40941C13.1796 6.80297 12.38 6.46875 11.5 6.46875Z" fill="#9E58FF"/>
</svg>
