<svg width="24" height="23" viewBox="0 0 24 23" fill="none" xmlns="http://www.w3.org/2000/svg">
<path d="M15.5938 0.719238H8.40625C7.21539 0.719238 6.25 1.68462 6.25 2.87549V20.1255C6.25 21.3164 7.21539 22.2817 8.40625 22.2817H15.5938C16.7846 22.2817 17.75 21.3164 17.75 20.1255V2.87549C17.75 1.68462 16.7846 0.719238 15.5938 0.719238Z" stroke="white" stroke-linecap="round" stroke-linejoin="round"/>
<path d="M8.40625 0.719238H9.48438C9.57969 0.719238 9.6711 0.757101 9.73849 0.824497C9.80589 0.891893 9.84375 0.983301 9.84375 1.07861C9.84375 1.26924 9.91948 1.45205 10.0543 1.58685C10.1891 1.72164 10.3719 1.79736 10.5625 1.79736H13.4375C13.6281 1.79736 13.8109 1.72164 13.9457 1.58685C14.0805 1.45205 14.1563 1.26924 14.1563 1.07861C14.1563 0.983301 14.1941 0.891893 14.2615 0.824497C14.3289 0.757101 14.4203 0.719238 14.5156 0.719238H15.5938" stroke="white" stroke-linecap="round" stroke-linejoin="round"/>
</svg>
