<svg width="19" height="20" viewBox="0 0 19 20" fill="none" xmlns="http://www.w3.org/2000/svg">
<path d="M9.41531 2.42075C5.1285 2.36285 1.62884 5.86251 1.68674 10.1493C1.74391 14.2606 5.09149 17.6082 9.20276 17.6653C13.4903 17.724 16.9892 14.2243 16.9306 9.93751C16.8742 5.8255 13.5266 2.47792 9.41531 2.42075ZM14.0481 14.413C14.0335 14.4288 14.0156 14.4412 13.9956 14.4493C13.9757 14.4574 13.9543 14.461 13.9328 14.4599C13.9113 14.4588 13.8904 14.453 13.8714 14.4428C13.8524 14.4327 13.8359 14.4185 13.823 14.4013C13.4953 13.9725 13.0939 13.6053 12.6376 13.317C11.7046 12.7182 10.5224 12.3884 9.30904 12.3884C8.0957 12.3884 6.91351 12.7182 5.98051 13.317C5.52423 13.6052 5.12282 13.9722 4.79503 14.4009C4.78215 14.4182 4.76564 14.4323 4.74667 14.4425C4.72771 14.4526 4.70674 14.4584 4.68527 14.4595C4.6638 14.4607 4.64235 14.457 4.62243 14.4489C4.60251 14.4408 4.58462 14.4285 4.57002 14.4127C3.49472 13.2519 2.8856 11.7351 2.8594 10.153C2.79967 6.58699 5.72583 3.60221 9.29328 3.59341C12.8607 3.58462 15.7587 6.48146 15.7587 10.043C15.7599 11.6633 15.1489 13.2242 14.0481 14.413V14.413Z" fill="#C989DD"/>
<path d="M9.30936 5.93848C8.58671 5.93848 7.93332 6.20929 7.46902 6.70144C7.00472 7.19359 6.77275 7.8741 6.82515 8.60445C6.93143 10.0428 8.04582 11.2154 9.30936 11.2154C10.5729 11.2154 11.6851 10.0428 11.7936 8.60481C11.8478 7.88143 11.6177 7.20715 11.1457 6.70584C10.6795 6.21112 10.0273 5.93848 9.30936 5.93848Z" fill="#C989DD"/>
</svg>
