<svg width="34" height="34" viewBox="0 0 34 34" fill="none" xmlns="http://www.w3.org/2000/svg">
<circle cx="17" cy="17" r="17" fill="#6DC0F9" fill-opacity="0.1"/>
<path d="M12.625 12.1113C12.9702 12.1113 13.25 11.8315 13.25 11.4863C13.25 11.1412 12.9702 10.8613 12.625 10.8613C12.2798 10.8613 12 11.1412 12 11.4863C12 11.8315 12.2798 12.1113 12.625 12.1113Z" fill="#6DC0F9"/>
<path d="M23.875 20.8613V18.3613C23.875 18.0298 23.7433 17.7119 23.5089 17.4774C23.2745 17.243 22.9565 17.1113 22.625 17.1113H17.625V14.6113H23.25C23.5815 14.6113 23.8995 14.4796 24.1339 14.2452C24.3683 14.0108 24.5 13.6928 24.5 13.3613V9.61133C24.5 9.27981 24.3683 8.96187 24.1339 8.72744C23.8995 8.49302 23.5815 8.36133 23.25 8.36133H10.75C10.4185 8.36133 10.1005 8.49302 9.86612 8.72744C9.6317 8.96187 9.5 9.27981 9.5 9.61133V13.3613C9.5 13.6928 9.6317 14.0108 9.86612 14.2452C10.1005 14.4796 10.4185 14.6113 10.75 14.6113H16.375V17.1113H11.375C11.0435 17.1113 10.7255 17.243 10.4911 17.4774C10.2567 17.7119 10.125 18.0298 10.125 18.3613V20.8613H9.5C9.16848 20.8613 8.85054 20.993 8.61612 21.2274C8.3817 21.4619 8.25 21.7798 8.25 22.1113V24.6113C8.25 24.9428 8.3817 25.2608 8.61612 25.4952C8.85054 25.7296 9.16848 25.8613 9.5 25.8613H12C12.3315 25.8613 12.6495 25.7296 12.8839 25.4952C13.1183 25.2608 13.25 24.9428 13.25 24.6113V22.1113C13.25 21.7798 13.1183 21.4619 12.8839 21.2274C12.6495 20.993 12.3315 20.8613 12 20.8613H11.375V18.3613H16.375V20.8613H15.75C15.4185 20.8613 15.1005 20.993 14.8661 21.2274C14.6317 21.4619 14.5 21.7798 14.5 22.1113V24.6113C14.5 24.9428 14.6317 25.2608 14.8661 25.4952C15.1005 25.7296 15.4185 25.8613 15.75 25.8613H18.25C18.5815 25.8613 18.8995 25.7296 19.1339 25.4952C19.3683 25.2608 19.5 24.9428 19.5 24.6113V22.1113C19.5 21.7798 19.3683 21.4619 19.1339 21.2274C18.8995 20.993 18.5815 20.8613 18.25 20.8613H17.625V18.3613H22.625V20.8613H22C21.6685 20.8613 21.3505 20.993 21.1161 21.2274C20.8817 21.4619 20.75 21.7798 20.75 22.1113V24.6113C20.75 24.9428 20.8817 25.2608 21.1161 25.4952C21.3505 25.7296 21.6685 25.8613 22 25.8613H24.5C24.8315 25.8613 25.1495 25.7296 25.3839 25.4952C25.6183 25.2608 25.75 24.9428 25.75 24.6113V22.1113C25.75 21.7798 25.6183 21.4619 25.3839 21.2274C25.1495 20.993 24.8315 20.8613 24.5 20.8613H23.875ZM12 24.6113H9.5V22.1113H12V24.6113ZM18.25 22.1113V24.6113H15.75V22.1113H18.25ZM10.75 13.3613V9.61133H23.25V13.3613H10.75ZM24.5 24.6113H22V22.1113H24.5V24.6113Z" fill="#6DC0F9"/>
</svg>
