<svg width="28" height="28" viewBox="0 0 28 28" fill="none" xmlns="http://www.w3.org/2000/svg">
<path d="M14 15.75C17.866 15.75 21 12.616 21 8.75C21 4.88401 17.866 1.75 14 1.75C10.134 1.75 7 4.88401 7 8.75C7 12.616 10.134 15.75 14 15.75Z" stroke="#C989DD" stroke-width="2.0625" stroke-linecap="round" stroke-linejoin="round"/>
<path d="M7.85586 12.4589L2.625 21.875L7.37515 21.852C7.52735 21.8512 7.67711 21.8902 7.80966 21.965C7.9422 22.0398 8.05294 22.1479 8.13094 22.2785L10.5 26.25L15.3305 15.6231" stroke="#C989DD" stroke-width="2.0625" stroke-linecap="round" stroke-linejoin="round"/>
<path d="M20.0452 12.25L25.375 21.875L20.6248 21.852C20.4726 21.8513 20.3229 21.8902 20.1903 21.965C20.0578 22.0398 19.9471 22.1479 19.8691 22.2786L17.5 26.25L14 18.55" stroke="#C989DD" stroke-width="2.0625" stroke-linecap="round" stroke-linejoin="round"/>
<path d="M14 12.25C15.933 12.25 17.5 10.683 17.5 8.75C17.5 6.817 15.933 5.25 14 5.25C12.067 5.25 10.5 6.817 10.5 8.75C10.5 10.683 12.067 12.25 14 12.25Z" stroke="#C989DD" stroke-width="2.0625" stroke-linecap="round" stroke-linejoin="round"/>
</svg>
