<svg width="28" height="27" viewBox="0 0 28 27" fill="none" xmlns="http://www.w3.org/2000/svg">
<path d="M12.159 3.375C10.5206 3.375 8.91898 3.86085 7.55668 4.77111C6.19438 5.68138 5.13259 6.97517 4.50559 8.48888C3.87859 10.0026 3.71454 11.6682 4.03418 13.2752C4.35382 14.8821 5.1428 16.3582 6.30134 17.5167C7.45989 18.6753 8.93596 19.4643 10.5429 19.7839C12.1499 20.1036 13.8155 19.9395 15.3292 19.3125C16.8429 18.6855 18.1367 17.6237 19.047 16.2614C19.9572 14.8991 20.4431 13.2975 20.4431 11.659C20.4429 9.46202 19.5701 7.35502 18.0166 5.80149C16.4631 4.24797 14.3561 3.37514 12.159 3.375V3.375Z" stroke="white" stroke-width="3" stroke-miterlimit="10"/>
<path d="M18.3398 17.8395L24.1253 23.625" stroke="white" stroke-width="3" stroke-miterlimit="10" stroke-linecap="round"/>
</svg>
