<svg width="13" height="14" viewBox="0 0 13 14" fill="none" xmlns="http://www.w3.org/2000/svg">
<path d="M8.53125 3.75003L6.5 1.71878M6.5 1.71878L4.46875 3.75003M6.5 1.71878V8.65042M8.53125 5.37503H9.54688C9.81624 5.37503 10.0746 5.48203 10.265 5.6725C10.4555 5.86297 10.5625 6.1213 10.5625 6.39066V11.2657C10.5625 11.535 10.4555 11.7933 10.265 11.9838C10.0746 12.1743 9.81624 12.2813 9.54688 12.2813H3.45312C3.18376 12.2813 2.92544 12.1743 2.73497 11.9838C2.5445 11.7933 2.4375 11.535 2.4375 11.2657V6.39066C2.4375 6.1213 2.5445 5.86297 2.73497 5.6725C2.92544 5.48203 3.18376 5.37503 3.45312 5.37503H4.46875H8.53125Z" stroke="white" stroke-width="0.8125" stroke-linecap="round" stroke-linejoin="round"/>
</svg>
