<svg width="28" height="28" viewBox="0 0 28 28" fill="none" xmlns="http://www.w3.org/2000/svg">
<path d="M21 12.25V22.3125C21 22.5998 20.9434 22.8842 20.8335 23.1496C20.7236 23.415 20.5624 23.6562 20.3593 23.8593C20.1562 24.0624 19.915 24.2236 19.6496 24.3335C19.3842 24.4434 19.0998 24.5 18.8125 24.5H5.6875C5.10734 24.5 4.55094 24.2695 4.1407 23.8593C3.73047 23.4491 3.5 22.8927 3.5 22.3125V9.1875C3.5 8.60734 3.73047 8.05094 4.1407 7.6407C4.55094 7.23047 5.10734 7 5.6875 7H14.8466" stroke="#AAAAAA" stroke-width="1.75" stroke-linecap="round" stroke-linejoin="round"/>
<path d="M25.153 2.91209C25.0731 2.82429 24.9762 2.7536 24.8682 2.70429C24.7602 2.65498 24.6434 2.62809 24.5247 2.62522C24.406 2.62236 24.2879 2.64359 24.1777 2.68764C24.0674 2.73168 23.9672 2.79762 23.8832 2.88147L23.2067 3.55467C23.1247 3.63671 23.0787 3.74795 23.0787 3.86393C23.0787 3.97991 23.1247 4.09115 23.2067 4.17319L23.8269 4.79225C23.8675 4.83309 23.9158 4.8655 23.969 4.88761C24.0223 4.90973 24.0793 4.92111 24.1369 4.92111C24.1946 4.92111 24.2516 4.90973 24.3048 4.88761C24.358 4.8655 24.4064 4.83309 24.447 4.79225L25.1066 4.136C25.4401 3.80295 25.4713 3.26045 25.153 2.91209ZM21.839 4.92186L11.9668 14.7765C11.9069 14.8362 11.8634 14.9102 11.8405 14.9915L11.3838 16.3515C11.3729 16.3885 11.3721 16.4276 11.3816 16.4649C11.391 16.5022 11.4104 16.5363 11.4376 16.5635C11.4648 16.5907 11.4989 16.6101 11.5362 16.6196C11.5735 16.629 11.6127 16.6283 11.6496 16.6173L13.0086 16.1607C13.0899 16.1377 13.1639 16.0942 13.2235 16.0344L23.0782 6.16108C23.1694 6.06893 23.2205 5.94454 23.2205 5.81491C23.2205 5.68528 23.1694 5.56088 23.0782 5.46874L22.534 4.92186C22.4418 4.82986 22.3168 4.77819 22.1865 4.77819C22.0562 4.77819 21.9312 4.82986 21.839 4.92186Z" fill="#AAAAAA"/>
</svg>
