<svg xmlns="http://www.w3.org/2000/svg" width="21" height="22" viewBox="0 0 21 22" fill="none">
    <path d="M15.75 10.1562V17.7031C15.75 17.9186 15.7076 18.1319 15.6251 18.331C15.5427 18.53 15.4218 18.7109 15.2695 18.8632C15.1171 19.0156 14.9363 19.1364 14.7372 19.2189C14.5382 19.3013 14.3248 19.3438 14.1094 19.3438H4.26562C3.8305 19.3438 3.4132 19.1709 3.10553 18.8632C2.79785 18.5555 2.625 18.1382 2.625 17.7031V7.85938C2.625 7.42425 2.79785 7.00695 3.10553 6.69928C3.4132 6.3916 3.8305 6.21875 4.26562 6.21875H11.1349" stroke="#AAAAAA" stroke-width="1.75" stroke-linecap="round" stroke-linejoin="round"/>
    <path d="M18.8648 3.15284C18.8048 3.08699 18.7322 3.03397 18.6512 2.99699C18.5702 2.96001 18.4825 2.93984 18.3935 2.93769C18.3045 2.93554 18.216 2.95147 18.1333 2.9845C18.0506 3.01753 17.9754 3.06699 17.9124 3.12988L17.405 3.63478C17.3435 3.69631 17.309 3.77973 17.309 3.86672C17.309 3.95371 17.3435 4.03714 17.405 4.09866L17.8701 4.56296C17.9006 4.59359 17.9369 4.6179 17.9768 4.63448C18.0167 4.65107 18.0595 4.65961 18.1027 4.65961C18.1459 4.65961 18.1887 4.65107 18.2286 4.63448C18.2685 4.6179 18.3048 4.59359 18.3353 4.56296L18.8299 4.07077C19.0801 3.82099 19.1035 3.41411 18.8648 3.15284ZM16.3792 4.66017L8.97509 12.0512C8.9302 12.0959 8.89757 12.1514 8.88034 12.2124L8.53786 13.2324C8.52966 13.2601 8.52908 13.2895 8.53618 13.3175C8.54328 13.3455 8.55781 13.371 8.57822 13.3914C8.59863 13.4118 8.62418 13.4264 8.65216 13.4335C8.68014 13.4406 8.70952 13.44 8.7372 13.4318L9.75644 13.0893C9.81741 13.0721 9.87292 13.0394 9.91763 12.9945L17.3086 5.58958C17.377 5.52047 17.4154 5.42718 17.4154 5.32995C17.4154 5.23273 17.377 5.13944 17.3086 5.07032L16.9005 4.66017C16.8313 4.59117 16.7376 4.55242 16.6399 4.55242C16.5422 4.55242 16.4484 4.59117 16.3792 4.66017Z" fill="#AAAAAA"/>
</svg>