<svg width="32" height="31" viewBox="0 0 32 31" fill="none" xmlns="http://www.w3.org/2000/svg">
<path d="M22.9514 18.6658L27.9032 22.1514C28.0491 22.2163 28.2088 22.2437 28.3679 22.2311C28.527 22.2185 28.6805 22.1663 28.8143 22.0794C28.9482 21.9924 29.0581 21.8734 29.1343 21.7331C29.2104 21.5928 29.2503 21.4358 29.2503 21.2762V9.73569C29.2503 9.57609 29.2104 9.41901 29.1343 9.27873C29.0581 9.13846 28.9482 9.01943 28.8143 8.93247C28.6805 8.8455 28.527 8.79336 28.3679 8.78077C28.2088 8.76819 28.0491 8.79556 27.9032 8.8604L22.9514 12.346C22.8259 12.4344 22.7234 12.5517 22.6526 12.688C22.5819 12.8242 22.545 12.9755 22.5449 13.1291V17.8827C22.545 18.0363 22.5819 18.1876 22.6526 18.3239C22.7234 18.4602 22.8259 18.5775 22.9514 18.6658V18.6658Z" stroke="#C989DD" stroke-width="1.91583" stroke-linecap="round" stroke-linejoin="round"/>
<path d="M16.5589 23.1693H5.54291C4.71796 23.1669 3.92747 22.8382 3.34415 22.2548C2.76082 21.6715 2.43206 20.881 2.42969 20.0561V10.9559C2.43206 10.1309 2.76082 9.34046 3.34415 8.75713C3.92747 8.1738 4.71796 7.84504 5.54291 7.84267H16.5876C17.4049 7.8452 18.188 8.17098 18.7659 8.74889C19.3438 9.32679 19.6696 10.1099 19.6721 10.9272V20.0561C19.6698 20.881 19.341 21.6715 18.7577 22.2548C18.1743 22.8382 17.3839 23.1669 16.5589 23.1693Z" stroke="#C989DD" stroke-width="1.91583" stroke-miterlimit="10"/>
</svg>
