<svg width="22" height="22" viewBox="0 0 22 22" fill="none" xmlns="http://www.w3.org/2000/svg">
<path d="M16.1043 13.2679L19.6582 15.7695C19.7629 15.8161 19.8775 15.8357 19.9917 15.8267C20.1059 15.8176 20.216 15.7802 20.3121 15.7178C20.4081 15.6554 20.4871 15.57 20.5417 15.4693C20.5964 15.3686 20.625 15.2559 20.625 15.1413V6.85867C20.625 6.74412 20.5964 6.63139 20.5417 6.53071C20.4871 6.43003 20.4081 6.34461 20.3121 6.28219C20.216 6.21978 20.1059 6.18235 19.9917 6.17332C19.8775 6.16429 19.7629 6.18393 19.6582 6.23047L16.1043 8.73211C16.0141 8.79555 15.9406 8.87972 15.8898 8.97753C15.839 9.07535 15.8125 9.18393 15.8125 9.29414V12.7059C15.8125 12.8161 15.839 12.9247 15.8898 13.0225C15.9406 13.1203 16.0141 13.2045 16.1043 13.2679V13.2679Z" stroke="white" stroke-width="1.5" stroke-linecap="round" stroke-linejoin="round"/>
<path d="M11.5156 16.5H3.60938C3.0173 16.4983 2.44997 16.2623 2.03131 15.8437C1.61265 15.425 1.3767 14.8577 1.375 14.2656V7.73438C1.3767 7.1423 1.61265 6.57497 2.03131 6.15631C2.44997 5.73765 3.0173 5.5017 3.60938 5.5H11.5363C12.1228 5.50181 12.6848 5.73563 13.0996 6.1504C13.5144 6.56516 13.7482 7.12718 13.75 7.71375V14.2656C13.7483 14.8577 13.5123 15.425 13.0937 15.8437C12.675 16.2623 12.1077 16.4983 11.5156 16.5Z" stroke="white" stroke-width="1.5" stroke-miterlimit="10"/>
</svg>
