<svg width="23" height="23" viewBox="0 0 23 23" fill="none" xmlns="http://www.w3.org/2000/svg">
<path d="M2.15625 15.0938L20.8438 15.0938C21.2407 15.0938 21.5625 14.772 21.5625 14.375V4.3125C21.5625 3.91555 21.2407 3.59375 20.8438 3.59375L2.15625 3.59375C1.75929 3.59375 1.4375 3.91555 1.4375 4.3125V14.375C1.4375 14.772 1.75929 15.0938 2.15625 15.0938Z" stroke="#FCB769" stroke-width="1.4375" stroke-linejoin="round"/>
<path d="M4.3125 19.4062H18.6875M2.875 17.25H20.125H2.875Z" stroke="#FCB769" stroke-width="1.4375" stroke-linecap="round" stroke-linejoin="round"/>
<path d="M11.5 12.9375C13.4848 12.9375 15.0938 11.3285 15.0938 9.34375C15.0938 7.35898 13.4848 5.75 11.5 5.75C9.51523 5.75 7.90625 7.35898 7.90625 9.34375C7.90625 11.3285 9.51523 12.9375 11.5 12.9375Z" stroke="#FCB769" stroke-width="1.4375" stroke-linecap="round" stroke-linejoin="round"/>
<path d="M1.4375 11.5C1.90944 11.5 2.37675 11.593 2.81277 11.7736C3.24878 11.9542 3.64495 12.2189 3.97866 12.5526C4.31238 12.8863 4.57709 13.2825 4.75769 13.7185C4.93829 14.1545 5.03125 14.6218 5.03125 15.0938M21.5625 7.1875C20.6094 7.1875 19.6953 6.80887 19.0213 6.13491C18.3474 5.46096 17.9688 4.54687 17.9688 3.59375L21.5625 7.1875ZM1.4375 7.1875C1.90944 7.1875 2.37675 7.09455 2.81277 6.91394C3.24878 6.73334 3.64495 6.46863 3.97866 6.13491C4.31238 5.8012 4.57709 5.40503 4.75769 4.96902C4.93829 4.533 5.03125 4.06569 5.03125 3.59375L1.4375 7.1875ZM21.5625 11.5C20.6094 11.5 19.6953 11.8786 19.0213 12.5526C18.3474 13.2265 17.9688 14.1406 17.9688 15.0938L21.5625 11.5Z" stroke="#FCB769" stroke-width="1.4375" stroke-linecap="round" stroke-linejoin="round"/>
</svg>
