
<svg width="21" height="21" viewBox="0 0 21 21" fill="none" xmlns="http://www.w3.org/2000/svg">
<path d="M10.1785 2.75464C6.0795 2.75464 2.75586 6.07828 2.75586 10.1773C2.75586 14.2762 6.0795 17.5999 10.1785 17.5999C14.2775 17.5999 17.6011 14.2762 17.6011 10.1773C17.6011 6.07828 14.2775 2.75464 10.1785 2.75464Z" stroke="#FCB769" stroke-width="1.29089" stroke-miterlimit="10"/>
<path d="M9.04883 9.04773H10.3397V13.7272" stroke="#FCB769" stroke-width="1.29089" stroke-linecap="round" stroke-linejoin="round"/>
<path d="M8.56445 13.8885H12.1144" stroke="#FCB769" stroke-width="1.29089" stroke-miterlimit="10" stroke-linecap="round"/>
<path d="M10.1778 5.41711C9.97031 5.41711 9.76753 5.47863 9.59505 5.59388C9.42256 5.70913 9.28813 5.87293 9.20875 6.06459C9.12936 6.25624 9.10859 6.46713 9.14906 6.67058C9.18953 6.87404 9.28942 7.06093 9.43611 7.20761C9.58279 7.35429 9.76968 7.45419 9.97313 7.49466C10.1766 7.53513 10.3875 7.51436 10.5791 7.43497C10.7708 7.35559 10.9346 7.22115 11.0498 7.04867C11.1651 6.87619 11.2266 6.6734 11.2266 6.46596C11.2266 6.18779 11.1161 5.92101 10.9194 5.72431C10.7227 5.52762 10.4559 5.41711 10.1778 5.41711Z" fill="#FCB769"/>
</svg>
