<svg width="15" height="16" viewBox="0 0 15 16" fill="none" xmlns="http://www.w3.org/2000/svg">
<g id="fluent:delete-32-regular">
<path id="Vector" d="M6.32812 3.32031V3.55469H8.67188V3.32031C8.67188 3.00951 8.54841 2.71144 8.32864 2.49167C8.10887 2.2719 7.8108 2.14844 7.5 2.14844C7.1892 2.14844 6.89113 2.2719 6.67136 2.49167C6.45159 2.71144 6.32812 3.00951 6.32812 3.32031ZM5.39062 3.55469V3.32031C5.39062 2.76087 5.61286 2.22434 6.00845 1.82876C6.40403 1.43317 6.94056 1.21094 7.5 1.21094C8.05944 1.21094 8.59597 1.43317 8.99155 1.82876C9.38714 2.22434 9.60938 2.76087 9.60938 3.32031V3.55469H13.125C13.2493 3.55469 13.3685 3.60407 13.4565 3.69198C13.5444 3.77989 13.5938 3.89912 13.5938 4.02344C13.5938 4.14776 13.5444 4.26699 13.4565 4.35489C13.3685 4.4428 13.2493 4.49219 13.125 4.49219H12.4181L11.5312 12.2584C11.4659 12.8304 11.1922 13.3583 10.7626 13.7414C10.3329 14.1246 9.77725 14.3362 9.20156 14.3359H5.79844C5.22275 14.3362 4.6671 14.1246 4.23743 13.7414C3.80777 13.3583 3.53415 12.8304 3.46875 12.2584L2.58187 4.49219H1.875C1.75068 4.49219 1.63145 4.4428 1.54354 4.35489C1.45564 4.26699 1.40625 4.14776 1.40625 4.02344C1.40625 3.89912 1.45564 3.77989 1.54354 3.69198C1.63145 3.60407 1.75068 3.55469 1.875 3.55469H5.39062ZM4.40062 12.1516C4.43976 12.4946 4.60376 12.8113 4.86137 13.0413C5.11898 13.2712 5.45219 13.3984 5.7975 13.3984H9.20203C9.54734 13.3984 9.88055 13.2712 10.1382 13.0413C10.3958 12.8113 10.5598 12.4946 10.5989 12.1516L11.475 4.49219H3.52547L4.40062 12.1516ZM6.09375 6.13281C6.21807 6.13281 6.3373 6.1822 6.42521 6.27011C6.51311 6.35801 6.5625 6.47724 6.5625 6.60156V11.2891C6.5625 11.4134 6.51311 11.5326 6.42521 11.6205C6.3373 11.7084 6.21807 11.7578 6.09375 11.7578C5.96943 11.7578 5.8502 11.7084 5.76229 11.6205C5.67439 11.5326 5.625 11.4134 5.625 11.2891V6.60156C5.625 6.47724 5.67439 6.35801 5.76229 6.27011C5.8502 6.1822 5.96943 6.13281 6.09375 6.13281ZM9.375 6.60156C9.375 6.47724 9.32561 6.35801 9.23771 6.27011C9.1498 6.1822 9.03057 6.13281 8.90625 6.13281C8.78193 6.13281 8.6627 6.1822 8.57479 6.27011C8.48689 6.35801 8.4375 6.47724 8.4375 6.60156V11.2891C8.4375 11.4134 8.48689 11.5326 8.57479 11.6205C8.6627 11.7084 8.78193 11.7578 8.90625 11.7578C9.03057 11.7578 9.1498 11.7084 9.23771 11.6205C9.32561 11.5326 9.375 11.4134 9.375 11.2891V6.60156Z" fill="#E85555"/>
</g>
</svg>
