<svg width="119" height="117" viewBox="0 0 119 117" fill="none" xmlns="http://www.w3.org/2000/svg">
<g id="Group 7859">
<g id="Group 7858">
<g id="Group">
<path id="Vector" d="M62.3475 104.682L39.0693 98.6006L17.5804 83.0108L14.7871 69.4731L16.2805 55.1768L27.7884 42.149L49.1475 44.5464L58.1738 66.2915L64.4593 66.4615L78.9386 43.5359L80.7804 44.6992L65.6394 68.6724L56.7031 68.4308L47.6281 46.5682L28.671 44.4404L18.375 56.0965L16.9888 69.3636L19.5432 81.7434L40.0166 96.5965L62.403 102.445L75.6115 99.6854L87.9278 87.1704L93.9728 63.595L91.7837 47.6752L77.7202 31.6305H58.2615V29.4521H78.7077L93.8529 46.7309L96.1895 63.7222L89.8925 88.2801L76.7024 101.683L62.3475 104.682Z" fill="#6DC0F9"/>
<path id="Vector_2" d="M39.7581 88.017L38.5546 86.2009L54.0835 75.9094L52.5519 71.8334L20.0586 66.586L20.4059 64.4355L54.1467 69.8843L56.7325 76.7671L39.7581 88.017Z" fill="#6DC0F9"/>
<path id="Vector_3" d="M64.4812 79.6176L62.3809 80.1953L66.9069 96.651L69.0073 96.0733L64.4812 79.6176Z" fill="#7ACADC"/>
<g id="Group_2">
<path id="Vector_4" d="M55.9403 43.5924C63.9655 35.5672 63.9655 22.5558 55.9403 14.5306C47.9151 6.50544 34.9037 6.50544 26.8785 14.5306C18.8534 22.5558 18.8534 35.5672 26.8785 43.5924C34.9037 51.6176 47.9151 51.6176 55.9403 43.5924Z" fill="#6DC0F9"/>
</g>
<g id="Group_3">
<path id="Vector_5" d="M118.495 78.3897C118.495 88.1198 110.607 96.0074 100.877 96.0074C91.1473 96.0074 83.2598 88.1198 83.2598 78.3897C83.2598 68.66 91.1473 60.7725 100.877 60.7725C110.608 60.7721 118.495 68.6596 118.495 78.3897Z" fill="#6DC0F9"/>
</g>
<g id="Group_4">
<path id="Vector_6" d="M44.4951 94.8243C44.4951 104.554 36.6072 112.442 26.8774 112.442C17.1473 112.442 9.25977 104.554 9.25977 94.8243C9.25977 85.0942 17.1473 77.207 26.8774 77.207C36.6072 77.207 44.4951 85.0942 44.4951 94.8243Z" fill="#6DC0F9"/>
</g>
<g id="Group_5">
<path id="Vector_7" d="M98.5534 44.8095C103.935 39.4274 103.935 30.7015 98.5534 25.3194C93.1714 19.9374 84.4454 19.9374 79.0634 25.3194C73.6814 30.7015 73.6814 39.4274 79.0634 44.8095C84.4454 50.1915 93.1714 50.1915 98.5534 44.8095Z" fill="#6DC0F9"/>
</g>
<g id="Group_6">
<path id="Vector_8" d="M82.0895 105.587C82.0895 111.705 77.1297 116.665 71.0115 116.665C64.893 116.665 59.9336 111.705 59.9336 105.587C59.9336 99.4686 64.8934 94.5088 71.0115 94.5088C77.1297 94.5088 82.0895 99.4686 82.0895 105.587Z" fill="#6DC0F9"/>
</g>
<g id="Group_7">
<path id="Vector_9" d="M22.6618 61.6824C22.6618 67.8006 17.7019 72.7604 11.5838 72.7604C5.46568 72.76 0.505859 67.8006 0.505859 61.6824C0.505859 55.5643 5.46568 50.6045 11.5838 50.6045C17.7019 50.6045 22.6618 55.5639 22.6618 61.6824Z" fill="#6DC0F9"/>
</g>
<g id="Group_8">
<path id="Vector_10" d="M70.7058 72.5021C70.7058 77.7281 66.4693 81.9646 61.2437 81.9646C56.0178 81.9646 51.7812 77.7284 51.7812 72.5021C51.7812 67.2765 56.0178 63.04 61.2437 63.04C66.4693 63.04 70.7058 67.2765 70.7058 72.5021Z" fill="#6DC0F9"/>
</g>
</g>
</g>
<path id="Vector_11" fill-rule="evenodd" clip-rule="evenodd" d="M106.688 71.272C106.688 74.4491 104.112 77.0245 100.934 77.0245C97.7558 77.0245 95.1796 74.4491 95.1796 71.272C95.1796 68.0949 97.7558 65.5195 100.934 65.5195C104.112 65.5195 106.688 68.0949 106.688 71.272ZM105.537 71.272C105.537 72.4926 105.052 73.6631 104.189 74.5261C103.326 75.3892 102.155 75.874 100.934 75.874C99.713 75.874 98.5421 75.3892 97.6788 74.5261C96.8155 73.6631 96.3304 72.4926 96.3304 71.272C96.3304 70.0515 96.8155 68.881 97.6788 68.0179C98.5421 67.1549 99.713 66.67 100.934 66.67C102.155 66.67 103.326 67.1549 104.189 68.0179C105.052 68.881 105.537 70.0515 105.537 71.272ZM97.4318 78.6669L97.4381 78.6795C97.4646 78.7314 97.518 78.7641 97.5762 78.7641H103.26C103.864 78.7641 104.373 78.0479 104.962 78.1825C105.61 78.3299 106.263 78.535 106.89 78.7875C106.894 78.7891 106.898 78.7889 106.902 78.7871L106.902 78.787C106.909 78.7835 106.918 78.7864 106.921 78.7934C106.924 78.799 106.929 78.8034 106.935 78.8058C109.299 79.768 111.292 81.3963 111.292 83.1049V85.7012C111.292 87.0322 110.213 88.1112 108.882 88.1112H92.9861C91.6551 88.1112 90.5762 87.0322 90.5762 85.7012V83.1049C90.5762 80.9334 93.7963 78.8901 96.9059 78.1825C97.1596 78.125 97.3104 78.4241 97.4318 78.6669ZM105.934 80.0208C105.95 79.8042 105.808 79.6126 105.601 79.5472C105.566 79.5362 105.531 79.5254 105.496 79.5148C105.32 79.461 105.133 79.5428 105.047 79.7056C104.979 79.8341 104.846 79.9146 104.701 79.9146H97.0032C96.8701 79.9146 96.748 79.8409 96.686 79.7231L96.6043 79.5678C96.5719 79.5063 96.5005 79.4763 96.4339 79.4962C96.3779 79.5131 96.3368 79.5618 96.3336 79.6203C96.3331 79.6309 96.3326 79.6417 96.3322 79.6529C96.3247 79.8513 96.3397 80.0866 96.3725 80.3259C96.4338 80.7807 96.8507 81.0683 97.2407 81.3102C97.3684 81.3894 97.4861 81.4855 97.5904 81.5968C97.8686 81.8938 98.033 82.2795 98.0544 82.6859C98.0758 83.0922 97.9528 83.4931 97.7073 83.8176C97.4617 84.1421 97.1094 84.3695 96.7124 84.4595C96.3155 84.5496 95.8994 84.4965 95.5378 84.3096C95.1762 84.1228 94.8923 83.8142 94.7362 83.4384C94.5801 83.0626 94.5618 82.6438 94.6847 82.2558C94.8058 81.8732 95.0565 81.5449 95.3933 81.3272C95.4017 81.3218 95.4056 81.3117 95.4029 81.3021C95.3262 81.0331 95.2691 80.759 95.232 80.4818C95.1965 80.2249 94.929 80.057 94.6956 80.17C94.1694 80.4246 93.6796 80.713 93.2531 81.0237C92.1471 81.8313 91.727 82.5861 91.727 83.1049V84.5507C91.727 85.8817 92.806 86.9607 94.137 86.9607H107.731C109.062 86.9607 110.141 85.8817 110.141 84.5507V83.1049C110.141 82.5855 109.721 81.8308 108.615 81.0243C108.268 80.7751 107.905 80.5496 107.529 80.3492C107.315 80.2355 107.06 80.3839 107.022 80.6229C107.017 80.6594 107.01 80.6959 107.004 80.7324C106.975 80.8961 107.097 81.0513 107.264 81.0513C107.37 81.0513 107.475 81.0811 107.566 81.1373C107.657 81.1935 107.73 81.2739 107.778 81.3694L108.353 82.5199C108.394 82.5999 108.414 82.6879 108.414 82.777V83.9275C108.414 84.0801 108.354 84.2264 108.246 84.3343C108.138 84.4422 107.992 84.5028 107.839 84.5028H107.263C106.946 84.5028 106.688 84.2452 106.688 83.9275V83.64C106.688 83.4811 106.817 83.3523 106.976 83.3523C107.135 83.3523 107.264 83.2235 107.264 83.0646V82.9968C107.264 82.9415 107.251 82.8871 107.226 82.8377L107.165 82.7162C107.008 82.4009 106.685 82.2018 106.333 82.2018H105.893C105.54 82.2018 105.218 82.4009 105.06 82.7162L104.999 82.8377C104.975 82.8871 104.962 82.9415 104.962 82.9968V83.0646C104.962 83.2235 105.091 83.3523 105.25 83.3523C105.408 83.3523 105.537 83.4811 105.537 83.64V83.9275C105.537 84.2452 105.28 84.5028 104.962 84.5028H104.386C104.234 84.5028 104.087 84.4422 103.98 84.3343C103.872 84.2264 103.811 84.0801 103.811 83.9275V82.777C103.811 82.6879 103.832 82.5999 103.872 82.5199L104.447 81.3694C104.495 81.2739 104.569 81.1935 104.659 81.1373C104.75 81.0811 104.855 81.0513 104.962 81.0513H105.671C105.715 81.0513 105.755 81.0226 105.767 80.98C105.821 80.7953 105.869 80.5658 105.902 80.3265C105.916 80.2228 105.927 80.12 105.934 80.0208ZM96.9059 82.777C96.9059 83.1072 96.64 83.3609 96.3304 83.3609C96.0209 83.3609 95.755 83.1078 95.755 82.777C95.755 82.4468 96.0209 82.1932 96.3304 82.1932C96.64 82.1932 96.9059 82.4463 96.9059 82.777Z" fill="white"/>
<path id="Vector_12" fill-rule="evenodd" clip-rule="evenodd" d="M74.5916 101.168C74.5916 103.177 72.9631 104.805 70.954 104.805C68.9449 104.805 67.3164 103.177 67.3164 101.168C67.3164 99.1594 68.9449 97.5312 70.954 97.5312C72.9631 97.5312 74.5916 99.1594 74.5916 101.168ZM73.8641 101.168C73.8641 101.94 73.5575 102.68 73.0118 103.225C72.466 103.771 71.7258 104.077 70.954 104.077C70.1822 104.077 69.442 103.771 68.8962 103.225C68.3505 102.68 68.0439 101.94 68.0439 101.168C68.0439 100.396 68.3505 99.6564 68.8962 99.1107C69.442 98.5651 70.1822 98.2586 70.954 98.2586C71.7258 98.2586 72.466 98.5651 73.0118 99.1107C73.5575 99.6564 73.8641 100.396 73.8641 101.168ZM68.7401 105.843L68.7441 105.851C68.7609 105.884 68.7946 105.905 68.8314 105.905H72.4245C72.8063 105.905 73.1281 105.452 73.5003 105.537C73.9101 105.63 74.3227 105.76 74.7191 105.919C74.7216 105.92 74.7243 105.92 74.7267 105.919L74.7269 105.919C74.7314 105.917 74.7367 105.919 74.739 105.923C74.7408 105.927 74.7439 105.929 74.7476 105.931C76.242 106.539 77.5017 107.569 77.5017 108.649V109.404C77.5017 110.735 76.4228 111.814 75.0918 111.814H66.8162C65.4852 111.814 64.4062 110.735 64.4062 109.404V108.649C64.4062 107.276 66.4419 105.984 68.4077 105.537C68.5681 105.5 68.6634 105.69 68.7401 105.843ZM74.115 106.699C74.1248 106.562 74.0351 106.441 73.9042 106.4C73.8822 106.393 73.8602 106.386 73.8382 106.379C73.727 106.345 73.6083 106.397 73.5542 106.5C73.5115 106.581 73.4272 106.632 73.3354 106.632H68.4692C68.385 106.632 68.3078 106.585 68.2686 106.511L68.217 106.413C68.1965 106.374 68.1514 106.355 68.1093 106.367C68.0739 106.378 68.0479 106.409 68.0459 106.446C68.0455 106.452 68.0452 106.459 68.045 106.466C68.0403 106.592 68.0497 106.741 68.0704 106.892C68.1092 107.179 68.3728 107.361 68.6193 107.514C68.7001 107.564 68.7745 107.625 68.8404 107.695C69.0163 107.883 69.1202 108.127 69.1337 108.384C69.1472 108.641 69.0695 108.894 68.9143 109.099C68.7591 109.305 68.5363 109.448 68.2854 109.505C68.0344 109.562 67.7714 109.529 67.5428 109.41C67.3142 109.292 67.1348 109.097 67.0361 108.86C66.9374 108.622 66.9258 108.357 67.0035 108.112C67.0801 107.87 67.2385 107.663 67.4515 107.525C67.4568 107.522 67.4592 107.515 67.4575 107.509C67.409 107.339 67.3729 107.166 67.3495 106.99C67.3271 106.828 67.1579 106.722 67.0104 106.793C66.6777 106.954 66.3681 107.137 66.0985 107.333C65.3993 107.844 65.1338 108.321 65.1338 108.649V108.676C65.1338 110.007 66.2127 111.086 67.5437 111.086H74.3643C75.6953 111.086 76.7742 110.007 76.7742 108.676V108.649C76.7742 108.32 76.5087 107.843 75.8095 107.333C75.5904 107.176 75.361 107.033 75.1229 106.907C74.9879 106.835 74.827 106.929 74.8029 107.08C74.7992 107.103 74.7953 107.126 74.7912 107.149C74.7727 107.252 74.8502 107.35 74.9554 107.35C75.0229 107.351 75.0891 107.369 75.1466 107.405C75.204 107.44 75.2504 107.491 75.2806 107.552L75.6444 108.279C75.6698 108.329 75.6829 108.385 75.6829 108.442V109.169C75.6829 109.265 75.6446 109.358 75.5764 109.426C75.5082 109.494 75.4156 109.533 75.3192 109.533H74.9553C74.7545 109.533 74.5916 109.37 74.5916 109.169V108.987C74.5916 108.887 74.6731 108.805 74.7735 108.805C74.874 108.805 74.9554 108.724 74.9554 108.623V108.58C74.9554 108.546 74.9473 108.511 74.9317 108.48L74.8933 108.403C74.7936 108.204 74.5898 108.078 74.367 108.078H74.0888C73.8659 108.078 73.6622 108.204 73.5625 108.403L73.5241 108.48C73.5085 108.511 73.5003 108.546 73.5003 108.58V108.623C73.5003 108.724 73.5818 108.805 73.6822 108.805C73.7827 108.805 73.8641 108.887 73.8641 108.987V109.169C73.8641 109.37 73.7013 109.533 73.5004 109.533H73.1366C73.0401 109.533 72.9476 109.494 72.8794 109.426C72.8111 109.358 72.7728 109.265 72.7728 109.169V108.442C72.7728 108.385 72.7859 108.329 72.8114 108.279L73.1751 107.552C73.2053 107.491 73.2517 107.44 73.3092 107.405C73.3666 107.369 73.4328 107.351 73.5003 107.35H73.9487C73.9767 107.35 74.0019 107.332 74.0093 107.305C74.0434 107.189 74.074 107.044 74.0947 106.892C74.1037 106.827 74.1105 106.762 74.115 106.699ZM68.4077 108.442C68.4077 108.65 68.2396 108.811 68.0439 108.811C67.8482 108.811 67.6801 108.651 67.6801 108.442C67.6801 108.233 67.8482 108.072 68.0439 108.072C68.2396 108.072 68.4077 108.232 68.4077 108.442Z" fill="white"/>
<path id="Vector_13" fill-rule="evenodd" clip-rule="evenodd" d="M32.9581 86.9659C32.9581 90.3099 30.2438 93.0206 26.8953 93.0206C23.5469 93.0206 20.8326 90.3099 20.8326 86.9659C20.8326 83.6218 23.5469 80.9111 26.8953 80.9111C30.2438 80.9111 32.9581 83.6218 32.9581 86.9659ZM31.7455 86.9659C31.7455 88.2505 31.2345 89.4826 30.3249 90.391C29.4154 91.2994 28.1817 91.8097 26.8953 91.8097C25.609 91.8097 24.3753 91.2994 23.4657 90.391C22.5562 89.4826 22.0452 88.2505 22.0452 86.9659C22.0452 85.6812 22.5562 84.4492 23.4657 83.5408C24.3753 82.6324 25.609 82.1221 26.8953 82.1221C28.1817 82.1221 29.4154 82.6324 30.3249 83.5408C31.2345 84.4492 31.7455 85.6812 31.7455 86.9659ZM23.2056 94.7493L23.2122 94.7626C23.2401 94.8172 23.2963 94.8516 23.3576 94.8516H29.3466C29.9828 94.8516 30.5191 94.0979 31.1393 94.2395C31.8221 94.3946 32.5098 94.6104 33.1705 94.8763C33.1746 94.8779 33.1792 94.8778 33.1831 94.8758L33.1835 94.8757C33.191 94.8721 33.1999 94.8751 33.2036 94.8825C33.2067 94.8883 33.2118 94.8929 33.218 94.8954C35.7086 95.9083 37.8083 97.6221 37.8083 99.4205V102.28C37.8083 103.611 36.7293 104.69 35.3983 104.69H18.3924C17.0614 104.69 15.9824 103.611 15.9824 102.28V99.4205C15.9824 97.1348 19.3751 94.9842 22.6514 94.2395C22.9188 94.1789 23.0776 94.4938 23.2056 94.7493ZM32.1636 96.1749C32.18 95.9466 32.0304 95.7446 31.8121 95.6758C31.7755 95.6642 31.7388 95.6528 31.702 95.6416C31.5168 95.5851 31.3193 95.6712 31.2291 95.8425C31.1578 95.9778 31.0174 96.0626 30.8645 96.0626H22.7538C22.6137 96.0626 22.485 95.9849 22.4197 95.8609L22.3337 95.6975C22.2995 95.6328 22.2244 95.6012 22.1542 95.6222C22.0951 95.6399 22.0518 95.6913 22.0485 95.7529C22.0479 95.764 22.0474 95.7754 22.047 95.7871C22.0391 95.996 22.0549 96.2436 22.0894 96.4955C22.154 96.9742 22.5929 97.2768 23.0036 97.5311C23.1384 97.6146 23.2626 97.7159 23.3726 97.8331C23.6658 98.1457 23.8389 98.5517 23.8615 98.9794C23.884 99.4071 23.7545 99.829 23.4958 100.171C23.2371 100.512 22.8658 100.752 22.4476 100.846C22.0294 100.941 21.591 100.885 21.2101 100.689C20.8291 100.492 20.5299 100.167 20.3654 99.7715C20.201 99.376 20.1817 98.9351 20.3111 98.5268C20.4388 98.1241 20.7029 97.7785 21.0578 97.5494C21.0666 97.5437 21.0707 97.533 21.0678 97.523C20.9871 97.2399 20.9269 96.9513 20.8878 96.6596C20.8505 96.3891 20.5688 96.2124 20.3231 96.3312C19.7685 96.5992 19.2523 96.9028 18.8028 97.2299C17.6375 98.08 17.195 98.8744 17.195 99.4205V101.069C17.195 102.4 18.2739 103.479 19.6049 103.479H34.1858C35.5167 103.479 36.5957 102.4 36.5957 101.069V99.4205C36.5957 98.8738 36.1531 98.0794 34.9879 97.2305C34.6225 96.9681 34.24 96.7307 33.843 96.5197C33.6182 96.4002 33.3504 96.5564 33.3102 96.8079C33.3041 96.8463 33.2976 96.8847 33.2907 96.923C33.2599 97.0955 33.3891 97.259 33.5643 97.259C33.6769 97.259 33.7872 97.2904 33.883 97.3495C33.9787 97.4087 34.056 97.4932 34.1064 97.5938L34.7126 98.8048C34.7551 98.8889 34.7769 98.9816 34.7769 99.0754V100.286C34.7769 100.447 34.713 100.601 34.5993 100.714C34.4856 100.828 34.3314 100.892 34.1706 100.892H33.5635C33.2292 100.892 32.9581 100.621 32.9581 100.286V99.984C32.9581 99.8166 33.0938 99.6809 33.2612 99.6809C33.4286 99.6809 33.5643 99.5452 33.5643 99.3777V99.3067C33.5643 99.2486 33.5508 99.1912 33.5248 99.1392L33.4607 99.0112C33.2946 98.6794 32.9554 98.4699 32.5844 98.4699H32.1192C31.7482 98.4699 31.409 98.6794 31.2429 99.0112L31.1788 99.1392C31.1528 99.1912 31.1393 99.2486 31.1393 99.3067V99.3777C31.1393 99.5452 31.275 99.6809 31.4424 99.6809C31.6098 99.6809 31.7455 99.8166 31.7455 99.984V100.286C31.7455 100.621 31.4744 100.892 31.14 100.892H30.533C30.3722 100.892 30.218 100.828 30.1043 100.714C29.9906 100.601 29.9267 100.447 29.9267 100.286V99.0754C29.9267 98.9816 29.9485 98.8889 29.991 98.8048L30.5972 97.5938C30.6476 97.4932 30.7249 97.4087 30.8206 97.3495C30.9164 97.2904 31.0267 97.259 31.1393 97.259H31.8866C31.9331 97.259 31.9752 97.2288 31.9874 97.1839C32.0444 96.9895 32.0953 96.748 32.1299 96.4961C32.1447 96.3871 32.1561 96.2792 32.1636 96.1749ZM22.6514 99.0754C22.6514 99.4229 22.3713 99.69 22.0452 99.69C21.719 99.69 21.4389 99.4235 21.4389 99.0754C21.4389 98.7279 21.719 98.4608 22.0452 98.4608C22.3713 98.4608 22.6514 98.7273 22.6514 99.0754Z" fill="white"/>
<path id="Vector_14" fill-rule="evenodd" clip-rule="evenodd" d="M48.9918 18.4547C48.9918 22.6334 45.6013 26.0207 41.4187 26.0207C37.2361 26.0207 33.8456 22.6334 33.8456 18.4547C33.8456 14.276 37.2361 10.8887 41.4187 10.8887C45.6013 10.8887 48.9918 14.276 48.9918 18.4547ZM47.4772 18.4547C47.4772 20.06 46.8389 21.5995 45.7027 22.7347C44.5665 23.8698 43.0255 24.5075 41.4187 24.5075C39.8119 24.5075 38.2709 23.8698 37.1347 22.7347C35.9985 21.5995 35.3602 20.06 35.3602 18.4547C35.3602 16.8494 35.9985 15.3098 37.1347 14.1747C38.2709 13.0396 39.8119 12.4019 41.4187 12.4019C43.0255 12.4019 44.5665 13.0396 45.7027 14.1747C46.8389 15.3098 47.4772 16.8494 47.4772 18.4547ZM36.8097 28.1808L36.818 28.1974C36.8529 28.2657 36.9231 28.3086 36.9997 28.3086H44.4805C45.2752 28.3086 45.9451 27.3667 46.7199 27.5437C47.5729 27.7375 48.4319 28.0073 49.2572 28.3395C49.2623 28.3415 49.268 28.3413 49.2729 28.3389L49.2734 28.3387C49.2827 28.3342 49.2939 28.338 49.2985 28.3472C49.3024 28.3546 49.3088 28.3603 49.3165 28.3634C52.4276 29.6291 55.0503 31.7707 55.0503 34.0179V38.1925C55.0503 39.5235 53.9713 40.6024 52.6403 40.6024H30.1971C28.8661 40.6024 27.7871 39.5235 27.7871 38.1925V34.0179C27.7871 31.1618 32.025 28.4743 36.1175 27.5437C36.4515 27.4681 36.6499 27.8615 36.8097 28.1808ZM47.9994 29.9619C48.0198 29.6768 47.8331 29.4246 47.5604 29.3386C47.5147 29.3241 47.4688 29.3099 47.4229 29.2959C47.1916 29.2253 46.9447 29.3328 46.832 29.5469C46.743 29.716 46.5677 29.8218 46.3766 29.8218H36.2455C36.0704 29.8218 35.9097 29.7248 35.8281 29.5699L35.7206 29.3657C35.678 29.2848 35.584 29.2453 35.4964 29.2716C35.4226 29.2937 35.3685 29.3579 35.3644 29.4349C35.3636 29.4487 35.363 29.463 35.3625 29.4776C35.3526 29.7386 35.3723 30.0481 35.4155 30.3628C35.4962 30.961 36.0446 31.3392 36.5577 31.6571C36.726 31.7614 36.881 31.8879 37.0183 32.0343C37.3846 32.4249 37.6009 32.9323 37.629 33.4667C37.6572 34.0012 37.4954 34.5284 37.1722 34.9553C36.8491 35.3821 36.3853 35.6812 35.8629 35.7996C35.3405 35.918 34.793 35.8482 34.3171 35.6024C33.8412 35.3567 33.4675 34.9509 33.262 34.4566C33.0566 33.9623 33.0326 33.4114 33.1942 32.9011C33.3536 32.3979 33.6836 31.9661 34.1269 31.6798C34.1379 31.6727 34.143 31.6593 34.1394 31.6468C34.0385 31.293 33.9633 30.9324 33.9145 30.5678C33.8679 30.23 33.516 30.0091 33.2089 30.1576C32.5163 30.4925 31.8715 30.8718 31.3101 31.2806C29.8546 32.3428 29.3017 33.3355 29.3017 34.0179V36.6793C29.3017 38.0103 30.3807 39.0892 31.7117 39.0892H51.1257C52.4567 39.0892 53.5356 38.0103 53.5356 36.6793V34.0179C53.5356 33.3347 52.9828 32.3421 51.5273 31.2813C51.0709 30.9535 50.5932 30.6568 50.0974 30.3932C49.8165 30.2438 49.4818 30.439 49.4316 30.7533C49.424 30.8013 49.4158 30.8493 49.4073 30.8972C49.3688 31.1127 49.5302 31.3169 49.7491 31.3169C49.8897 31.317 50.0275 31.3561 50.1471 31.43C50.2667 31.5039 50.3633 31.6096 50.4261 31.7353L51.1834 33.2485C51.2364 33.3537 51.2637 33.4694 51.2637 33.5867V35.0999C51.2637 35.3005 51.1839 35.493 51.0419 35.6349C50.8999 35.7768 50.7073 35.8565 50.5064 35.8565H49.7484C49.3305 35.8565 48.9918 35.5177 48.9918 35.0999V34.7219C48.9918 34.5128 49.1613 34.3433 49.3704 34.3433C49.5796 34.3433 49.7491 34.1738 49.7491 33.9646V33.8757C49.7491 33.8031 49.7322 33.7314 49.6996 33.6665L49.6196 33.5065C49.4121 33.0919 48.9883 32.8301 48.5246 32.8301H47.9443C47.4807 32.8301 47.0568 33.0919 46.8493 33.5065L46.7693 33.6665C46.7368 33.7314 46.7199 33.8031 46.7199 33.8757V33.9646C46.7199 34.1738 46.8894 34.3433 47.0985 34.3433C47.3076 34.3433 47.4772 34.5128 47.4772 34.7219V35.0999C47.4772 35.5177 47.1384 35.8565 46.7206 35.8565H45.9625C45.7617 35.8565 45.5691 35.7768 45.427 35.6349C45.285 35.493 45.2052 35.3005 45.2052 35.0999V33.5867C45.2052 33.4694 45.2325 33.3537 45.2855 33.2485L46.0428 31.7353C46.1057 31.6096 46.2023 31.5039 46.3219 31.43C46.4414 31.3561 46.5792 31.317 46.7199 31.3169H47.6534C47.7115 31.3169 47.764 31.2791 47.7793 31.2231C47.8505 30.9802 47.9141 30.6783 47.9573 30.3636C47.9758 30.2273 47.99 30.0923 47.9994 29.9619ZM36.1175 33.5867C36.1175 34.021 35.7676 34.3546 35.3602 34.3546C34.9528 34.3546 34.6029 34.0217 34.6029 33.5867C34.6029 33.1524 34.9528 32.8187 35.3602 32.8187C35.7676 32.8187 36.1175 33.1516 36.1175 33.5867Z" fill="white"/>
<path id="Vector_15" fill-rule="evenodd" clip-rule="evenodd" d="M93.5952 28.9943C93.5952 31.6383 91.4523 33.7815 88.8088 33.7815C86.1653 33.7815 84.0225 31.6383 84.0225 28.9943C84.0225 26.3503 86.1653 24.207 88.8088 24.207C91.4523 24.207 93.5952 26.3503 93.5952 28.9943ZM92.6379 28.9943C92.6379 30.01 92.2345 30.9841 91.5164 31.7024C90.7983 32.4206 89.8244 32.8241 88.8088 32.8241C87.7933 32.8241 86.8193 32.4206 86.1012 31.7024C85.3831 30.9841 84.9797 30.01 84.9797 28.9943C84.9797 27.9786 85.3831 27.0044 86.1012 26.2862C86.8193 25.568 87.7933 25.1645 88.8088 25.1645C89.8244 25.1645 90.7983 25.568 91.5164 26.2862C92.2345 27.0044 92.6379 27.9786 92.6379 28.9943ZM85.8958 35.1483L85.9011 35.1588C85.9231 35.202 85.9675 35.2292 86.016 35.2292H90.7435C91.246 35.2292 91.6694 34.6332 92.1593 34.7452C92.6984 34.8679 93.2413 35.0385 93.7629 35.2487C93.7661 35.25 93.7698 35.2499 93.7729 35.2484L93.7732 35.2482C93.779 35.2454 93.7861 35.2478 93.789 35.2536C93.7915 35.2583 93.7955 35.2619 93.8004 35.2639C95.7667 36.0647 97.4243 37.4198 97.4243 38.8417V40.5979C97.4243 41.9289 96.3453 43.0079 95.0143 43.0079H82.6033C81.2723 43.0079 80.1934 41.9289 80.1934 40.5979V38.8417C80.1934 37.0345 82.8718 35.334 85.4584 34.7452C85.6694 34.6973 85.7948 34.9463 85.8958 35.1483ZM92.968 36.2748C92.9809 36.0947 92.8629 35.9353 92.6907 35.8809C92.6618 35.8718 92.6329 35.8628 92.6039 35.8539C92.4575 35.8092 92.3014 35.8773 92.2302 36.0127C92.1739 36.1197 92.063 36.1867 91.9422 36.1867H85.5394C85.4286 36.1867 85.327 36.1253 85.2755 36.0273L85.2075 35.898C85.1806 35.8468 85.1212 35.8219 85.0658 35.8385C85.0192 35.8525 84.985 35.8931 84.9824 35.9417C84.9819 35.9505 84.9815 35.9595 84.9812 35.9688C84.9749 36.134 84.9874 36.3298 85.0147 36.5289C85.0657 36.9074 85.4127 37.1468 85.7371 37.3482C85.8432 37.4141 85.9411 37.4941 86.0277 37.5866C86.2592 37.8337 86.3959 38.1547 86.4137 38.4929C86.4315 38.8311 86.3292 39.1647 86.125 39.4347C85.9207 39.7048 85.6276 39.894 85.2974 39.969C84.9673 40.0439 84.6212 39.9997 84.3204 39.8442C84.0197 39.6887 83.7835 39.432 83.6536 39.1192C83.5238 38.8065 83.5086 38.4579 83.6108 38.135C83.7115 37.8166 83.92 37.5434 84.2002 37.3623C84.2072 37.3578 84.2104 37.3493 84.2082 37.3413C84.1444 37.1175 84.0969 36.8894 84.066 36.6587C84.0366 36.4449 83.8139 36.3052 83.6197 36.3993C83.1821 36.6111 82.7747 36.8511 82.42 37.1096C81.5 37.7818 81.1506 38.4099 81.1506 38.8417V39.6405C81.1506 40.9715 82.2296 42.0504 83.5606 42.0504H94.0571C95.388 42.0504 96.467 40.9715 96.467 39.6405V38.8417C96.467 38.4094 96.1176 37.7813 95.1977 37.1101C94.9094 36.9028 94.6076 36.7152 94.2945 36.5484C94.1167 36.4538 93.9049 36.5773 93.8732 36.7761C93.8683 36.8066 93.8632 36.837 93.8577 36.8673C93.8334 37.0036 93.9355 37.1326 94.0738 37.1326C94.1627 37.1327 94.2498 37.1575 94.3254 37.2042C94.4009 37.251 94.462 37.3178 94.5017 37.3974L94.9804 38.3548C95.0139 38.4213 95.0311 38.4946 95.0311 38.5688V39.5262C95.0311 39.6532 94.9807 39.775 94.8909 39.8648C94.8011 39.9545 94.6794 40.005 94.5525 40.005H94.0739C93.8095 40.005 93.5952 39.7906 93.5952 39.5262V39.2868C93.5952 39.1547 93.7023 39.0475 93.8345 39.0475C93.9667 39.0475 94.0738 38.9404 94.0738 38.8082V38.7516C94.0738 38.7057 94.0631 38.6604 94.0426 38.6193L93.9921 38.5183C93.8609 38.2558 93.5927 38.0901 93.2993 38.0901H92.9338C92.6404 38.0901 92.3722 38.2558 92.241 38.5183L92.1905 38.6193C92.17 38.6604 92.1593 38.7057 92.1593 38.7516V38.8082C92.1593 38.9404 92.2664 39.0475 92.3986 39.0475C92.5308 39.0475 92.6379 39.1547 92.6379 39.2868V39.5262C92.6379 39.7906 92.4236 40.005 92.1592 40.005H91.6806C91.5537 40.005 91.432 39.9545 91.3422 39.8648C91.2524 39.775 91.202 39.6532 91.202 39.5262V38.5688C91.202 38.4946 91.2192 38.4213 91.2527 38.3548L91.7314 37.3974C91.7711 37.3178 91.8322 37.251 91.9077 37.2042C91.9833 37.1575 92.0704 37.1327 92.1593 37.1326H92.7492C92.786 37.1326 92.8192 37.1087 92.8289 37.0733C92.8739 36.9196 92.9141 36.7286 92.9414 36.5294C92.9531 36.443 92.9621 36.3575 92.968 36.2748ZM85.4584 38.5688C85.4584 38.8436 85.2372 39.0547 84.9797 39.0547C84.7222 39.0547 84.5011 38.8441 84.5011 38.5688C84.5011 38.294 84.7222 38.0829 84.9797 38.0829C85.2372 38.0829 85.4584 38.2935 85.4584 38.5688Z" fill="white"/>
<path id="Vector_16" fill-rule="evenodd" clip-rule="evenodd" d="M64.4736 68.7078C64.4736 70.4687 63.045 71.896 61.2827 71.896C59.5204 71.896 58.0918 70.4687 58.0918 68.7078C58.0918 66.9469 59.5204 65.5195 61.2827 65.5195C63.045 65.5195 64.4736 66.9469 64.4736 68.7078ZM63.8354 68.7078C63.8354 69.3842 63.5665 70.033 63.0878 70.5113C62.609 70.9897 61.9597 71.2584 61.2827 71.2584C60.6057 71.2584 59.9564 70.9897 59.4777 70.5113C58.9989 70.033 58.73 69.3842 58.73 68.7078C58.73 68.0313 58.9989 67.3826 59.4777 66.9042C59.9564 66.4259 60.6057 66.1572 61.2827 66.1572C61.9597 66.1572 62.609 66.4259 63.0878 66.9042C63.5665 67.3826 63.8354 68.0313 63.8354 68.7078ZM59.3407 72.8063L59.3442 72.8133C59.3589 72.8421 59.3885 72.8602 59.4208 72.8602H62.5728C62.9076 72.8602 63.1899 72.4633 63.5163 72.5378C63.8758 72.6195 64.2377 72.7332 64.5854 72.8732C64.5876 72.874 64.59 72.8739 64.5921 72.8729L64.5923 72.8728C64.5962 72.8709 64.6009 72.8725 64.6028 72.8764C64.6045 72.8795 64.6072 72.8819 64.6104 72.8832C65.9213 73.4166 67.0263 74.319 67.0263 75.266V75.6307C67.0263 76.9617 65.9474 78.0407 64.6164 78.0407H57.949C56.618 78.0407 55.5391 76.9617 55.5391 75.6307V75.266C55.5391 74.0625 57.3247 72.93 59.0491 72.5378C59.1898 72.5059 59.2734 72.6717 59.3407 72.8063ZM64.0555 73.5568C64.0641 73.4367 63.9854 73.3304 63.8705 73.2942C63.8513 73.2881 63.8319 73.2821 63.8126 73.2762C63.7151 73.2464 63.6111 73.2918 63.5636 73.382C63.5261 73.4532 63.4522 73.4978 63.3717 73.4978H59.103C59.0292 73.4978 58.9615 73.4569 58.9271 73.3917L58.8818 73.3056C58.8639 73.2715 58.8243 73.2549 58.7874 73.2659C58.7563 73.2753 58.7335 73.3023 58.7317 73.3347C58.7314 73.3406 58.7312 73.3466 58.7309 73.3527C58.7268 73.4627 58.7351 73.5931 58.7533 73.7258C58.7873 73.9778 59.0184 74.1372 59.2346 74.2712C59.3055 74.3151 59.3708 74.3684 59.4286 74.4301C59.5829 74.5947 59.6741 74.8085 59.6859 75.0337C59.6978 75.259 59.6296 75.4811 59.4935 75.661C59.3573 75.8409 59.1619 75.9669 58.9418 76.0168C58.7217 76.0667 58.491 76.0373 58.2905 75.9337C58.0899 75.8302 57.9325 75.6591 57.8459 75.4509C57.7593 75.2426 57.7492 75.0104 57.8173 74.7954C57.8845 74.5833 58.0235 74.4014 58.2103 74.2808C58.2149 74.2778 58.2171 74.2721 58.2156 74.2668C58.1731 74.1178 58.1414 73.9658 58.1208 73.8122C58.1012 73.6698 57.9529 73.5767 57.8235 73.6393C57.5317 73.7804 57.26 73.9403 57.0235 74.1125C56.4102 74.5601 56.1772 74.9784 56.1772 75.266C56.1772 76.4463 57.134 77.403 58.3142 77.403H64.2512C65.4314 77.403 66.3882 76.4463 66.3882 75.266C66.3882 74.9781 66.1552 74.5598 65.5419 74.1128C65.3497 73.9747 65.1484 73.8497 64.9395 73.7386C64.8211 73.6756 64.6801 73.7579 64.6589 73.8903C64.6557 73.9106 64.6523 73.9308 64.6487 73.951C64.6325 74.0418 64.7005 74.1278 64.7927 74.1278C64.8519 74.1278 64.91 74.1444 64.9604 74.1755C65.0108 74.2066 65.0515 74.2512 65.078 74.3041L65.3971 74.9418C65.4194 74.9861 65.4309 75.0349 65.4309 75.0843V75.7219C65.4309 75.8065 65.3973 75.8876 65.3374 75.9474C65.2776 76.0072 65.1964 76.0408 65.1118 76.0408H64.7924C64.6164 76.0408 64.4736 75.898 64.4736 75.7219V75.5627C64.4736 75.4745 64.545 75.4031 64.6332 75.4031C64.7213 75.4031 64.7927 75.3317 64.7927 75.2436V75.2061C64.7927 75.1755 64.7856 75.1453 64.7719 75.1179L64.7382 75.0505C64.6507 74.8758 64.4721 74.7655 64.2767 74.7655H64.0323C63.8369 74.7655 63.6583 74.8758 63.5709 75.0505L63.5372 75.1179C63.5235 75.1453 63.5163 75.1755 63.5163 75.2061V75.2436C63.5163 75.3317 63.5878 75.4031 63.6759 75.4031C63.764 75.4031 63.8354 75.4745 63.8354 75.5627V75.7219C63.8354 75.898 63.6927 76.0408 63.5166 76.0408H63.1973C63.1126 76.0408 63.0315 76.0072 62.9716 75.9474C62.9118 75.8876 62.8782 75.8065 62.8782 75.7219V75.0843C62.8782 75.0349 62.8896 74.9861 62.912 74.9418L63.2311 74.3041C63.2576 74.2512 63.2983 74.2066 63.3487 74.1755C63.399 74.1444 63.4571 74.1278 63.5163 74.1278H63.9097C63.9342 74.1278 63.9563 74.1119 63.9627 74.0883C63.9927 73.9859 64.0195 73.8587 64.0377 73.7261C64.0456 73.6687 64.0515 73.6118 64.0555 73.5568ZM59.0491 75.0843C59.0491 75.2673 58.9016 75.4079 58.73 75.4079C58.5583 75.4079 58.4109 75.2676 58.4109 75.0843C58.4109 74.9013 58.5583 74.7607 58.73 74.7607C58.9016 74.7607 59.0491 74.901 59.0491 75.0843Z" fill="white"/>
<path id="Vector_17" fill-rule="evenodd" clip-rule="evenodd" d="M15.1659 56.587C15.1659 58.5687 13.5563 60.175 11.5708 60.175C9.58521 60.175 7.97568 58.5687 7.97568 56.587C7.97568 54.6054 9.58521 52.999 11.5708 52.999C13.5563 52.999 15.1659 54.6054 15.1659 56.587ZM14.4469 56.587C14.4469 57.3483 14.1438 58.0784 13.6045 58.6167C13.0651 59.155 12.3336 59.4574 11.5708 59.4574C10.808 59.4574 10.0765 59.155 9.53709 58.6167C8.99772 58.0784 8.6947 57.3483 8.6947 56.587C8.6947 55.8257 8.99772 55.0957 9.53709 54.5573C10.0765 54.019 10.808 53.7166 11.5708 53.7166C12.3336 53.7166 13.0651 54.019 13.6045 54.5573C14.1438 55.0957 14.4469 55.8257 14.4469 56.587ZM9.3828 61.1994L9.38676 61.2073C9.40331 61.2397 9.4366 61.26 9.47296 61.26H13.0245C13.4017 61.26 13.7197 60.8134 14.0873 60.8973C14.4923 60.9892 14.9001 61.1171 15.2919 61.2747C15.2943 61.2756 15.297 61.2755 15.2993 61.2744L15.2996 61.2743C15.304 61.2722 15.3093 61.274 15.3115 61.2783C15.3133 61.2818 15.3164 61.2845 15.32 61.286C16.7969 61.8862 18.0419 62.9018 18.0419 63.9675V64.6801C18.0419 66.0111 16.963 67.0901 15.632 67.0901H7.50956C6.17858 67.0901 5.09961 66.0111 5.09961 64.6801V63.9675C5.09961 62.6131 7.11142 61.3386 9.05421 60.8973C9.21276 60.8614 9.30695 61.048 9.3828 61.1994ZM14.6947 62.0444C14.7045 61.909 14.6157 61.7892 14.4863 61.7484C14.4645 61.7416 14.4428 61.7348 14.421 61.7282C14.3112 61.6947 14.1941 61.7457 14.1406 61.8472C14.0983 61.9274 14.0151 61.9776 13.9245 61.9776H9.11486C9.03179 61.9776 8.95555 61.9316 8.91682 61.8582L8.86578 61.7613C8.84555 61.7229 8.80098 61.7042 8.7594 61.7167C8.72435 61.7272 8.69865 61.7577 8.69668 61.7942C8.69633 61.8008 8.69603 61.8075 8.69578 61.8144C8.69111 61.9382 8.70045 62.0849 8.72095 62.2342C8.75927 62.5179 9.01938 62.6972 9.26284 62.8478C9.34284 62.8973 9.41658 62.9573 9.48185 63.0269C9.65571 63.2121 9.75839 63.4527 9.77175 63.7062C9.78512 63.9596 9.70832 64.2096 9.55491 64.4121C9.4015 64.6145 9.18135 64.7563 8.93335 64.8125C8.68534 64.8686 8.42543 64.8355 8.19951 64.719C7.97359 64.6024 7.7962 64.41 7.69867 64.1756C7.60113 63.9412 7.58972 63.6799 7.66646 63.4379C7.74215 63.1993 7.89877 62.9945 8.10924 62.8587C8.11444 62.8554 8.11688 62.849 8.11517 62.8431C8.06727 62.6753 8.03158 62.5043 8.0084 62.3314C7.98627 62.1712 7.81938 62.0664 7.67369 62.1367C7.34481 62.2956 7.03862 62.4755 6.77205 62.6694C6.08107 63.1732 5.81863 63.6439 5.81863 63.9675C5.81863 65.2958 6.89536 66.3725 8.22357 66.3725H14.918C16.2462 66.3725 17.3229 65.2958 17.3229 63.9675C17.3229 63.6436 17.0605 63.1728 16.3695 62.6698C16.1528 62.5142 15.9259 62.3735 15.6904 62.2484C15.5572 62.1777 15.3985 62.2702 15.3747 62.4192C15.3711 62.442 15.3672 62.4647 15.3632 62.4874C15.3449 62.5897 15.4215 62.6866 15.5254 62.6866C15.5921 62.6867 15.6575 62.7052 15.7143 62.7403C15.7711 62.7753 15.8169 62.8255 15.8468 62.885L16.2063 63.6026C16.2315 63.6525 16.2444 63.7074 16.2444 63.763V64.4806C16.2444 64.5758 16.2065 64.6671 16.1391 64.7343C16.0717 64.8016 15.9802 64.8394 15.8849 64.8394H15.5247C15.3265 64.8394 15.1659 64.6788 15.1659 64.4806V64.3016C15.1659 64.2023 15.2464 64.1218 15.3456 64.1218C15.4449 64.1218 15.5254 64.0414 15.5254 63.9421V63.9001C15.5254 63.8657 15.5173 63.8317 15.5019 63.8008L15.4639 63.7249C15.3654 63.5283 15.1644 63.4042 14.9445 63.4042H14.6682C14.4483 63.4042 14.2473 63.5283 14.1489 63.7249L14.1108 63.8008C14.0954 63.8317 14.0873 63.8657 14.0873 63.9001V63.9421C14.0873 64.0414 14.1678 64.1218 14.2671 64.1218C14.3664 64.1218 14.4469 64.2023 14.4469 64.3016V64.4806C14.4469 64.6788 14.2862 64.8394 14.0881 64.8394H13.7278C13.6325 64.8394 13.541 64.8016 13.4736 64.7343C13.4062 64.6671 13.3683 64.5758 13.3683 64.4806V63.763C13.3683 63.7074 13.3813 63.6525 13.4064 63.6026L13.7659 62.885C13.7958 62.8255 13.8416 62.7753 13.8984 62.7403C13.9552 62.7052 14.0206 62.6867 14.0873 62.6866H14.5306C14.5581 62.6866 14.583 62.6687 14.5903 62.6421C14.6241 62.527 14.6543 62.3838 14.6748 62.2345C14.6836 62.17 14.6903 62.1061 14.6947 62.0444ZM9.05421 63.763C9.05421 63.969 8.88812 64.1272 8.6947 64.1272C8.50129 64.1272 8.33519 63.9693 8.33519 63.763C8.33519 63.5571 8.50129 63.3989 8.6947 63.3989C8.88812 63.3989 9.05421 63.5567 9.05421 63.763Z" fill="white"/>
</g>
</svg>
