<svg width="18" height="19" viewBox="0 0 18 19" fill="none" xmlns="http://www.w3.org/2000/svg">
<g id="mail-02">
<path id="Icon" d="M16.125 14.2734L11.1429 9.77344M6.85714 9.77344L1.87503 14.2734M1.5 6.02344L7.62369 10.31C8.11957 10.6571 8.36751 10.8307 8.6372 10.8979C8.87542 10.9573 9.12458 10.9573 9.3628 10.8979C9.63249 10.8307 9.88043 10.6571 10.3763 10.31L16.5 6.02344M5.1 15.7734H12.9C14.1601 15.7734 14.7902 15.7734 15.2715 15.5282C15.6948 15.3125 16.039 14.9683 16.2548 14.5449C16.5 14.0636 16.5 13.4336 16.5 12.1734V7.37344C16.5 6.11332 16.5 5.48326 16.2548 5.00196C16.039 4.57859 15.6948 4.23439 15.2715 4.01867C14.7902 3.77344 14.1601 3.77344 12.9 3.77344H5.1C3.83988 3.77344 3.20982 3.77344 2.72852 4.01867C2.30516 4.23439 1.96095 4.57859 1.74524 5.00196C1.5 5.48326 1.5 6.11332 1.5 7.37344V12.1734C1.5 13.4336 1.5 14.0636 1.74524 14.5449C1.96095 14.9683 2.30516 15.3125 2.72852 15.5282C3.20982 15.7734 3.83988 15.7734 5.1 15.7734Z" stroke="#40AAF2" stroke-width="1.2" stroke-linecap="round" stroke-linejoin="round"/>
</g>
</svg>
