<svg width="18" height="19" viewBox="0 0 18 19" fill="none" xmlns="http://www.w3.org/2000/svg">
<g id="phone">
<path id="Icon" d="M6.28521 7.41345C6.80721 8.50067 7.5188 9.51965 8.41998 10.4208C9.32116 11.322 10.3401 12.0336 11.4274 12.5556C11.5209 12.6005 11.5676 12.623 11.6268 12.6402C11.8371 12.7015 12.0953 12.6575 12.2733 12.53C12.3234 12.4941 12.3663 12.4512 12.452 12.3655C12.7143 12.1033 12.8454 11.9722 12.9772 11.8865C13.4744 11.5632 14.1153 11.5632 14.6125 11.8865C14.7443 11.9722 14.8754 12.1033 15.1376 12.3655L15.2838 12.5116C15.6823 12.9102 15.8816 13.1095 15.9899 13.3235C16.2052 13.7492 16.2052 14.2519 15.9899 14.6776C15.8816 14.8916 15.6823 15.0909 15.2838 15.4895L15.1655 15.6077C14.7683 16.0049 14.5697 16.2035 14.2997 16.3552C14 16.5235 13.5347 16.6446 13.191 16.6435C12.8813 16.6426 12.6696 16.5825 12.2463 16.4624C9.97125 15.8167 7.82448 14.5983 6.0335 12.8073C4.24251 11.0163 3.02415 8.86956 2.37843 6.59451C2.25827 6.17118 2.19819 5.95951 2.19727 5.6498C2.19625 5.30614 2.31727 4.84077 2.48559 4.54114C2.63727 4.27111 2.83588 4.0725 3.2331 3.67529L3.35132 3.55706C3.74991 3.15848 3.9492 2.95919 4.16323 2.85093C4.5889 2.63563 5.0916 2.63563 5.51727 2.85093C5.73131 2.95919 5.9306 3.15848 6.32918 3.55706L6.47533 3.70321C6.73754 3.96542 6.86864 4.09652 6.95436 4.22835C7.2776 4.72552 7.2776 5.36646 6.95435 5.86363C6.86864 5.99546 6.73754 6.12656 6.47533 6.38877C6.3896 6.4745 6.34673 6.51737 6.31085 6.56748C6.18334 6.74555 6.13932 7.00374 6.20061 7.21401C6.21786 7.27318 6.24031 7.31993 6.28521 7.41345Z" stroke="#40AAF2" stroke-width="1.2" stroke-linecap="round" stroke-linejoin="round"/>
</g>
</svg>
