<svg width="66" height="82" viewBox="0 0 66 82" fill="none" xmlns="http://www.w3.org/2000/svg">
<path id="Vector" d="M32.9994 35.1429C36.1063 35.1429 39.0858 33.9087 41.2827 31.7118C43.4795 29.515 44.7137 26.5354 44.7137 23.4286C44.7137 20.3218 43.4795 17.3422 41.2827 15.1453C39.0858 12.9485 36.1063 11.7143 32.9994 11.7143C29.8926 11.7143 26.913 12.9485 24.7162 15.1453C22.5193 17.3422 21.2852 20.3218 21.2852 23.4286C21.2852 26.5354 22.5193 29.515 24.7162 31.7118C26.913 33.9087 29.8926 35.1429 32.9994 35.1429ZM32.9994 29.2857C31.446 29.2857 29.9562 28.6686 28.8578 27.5702C27.7594 26.4718 27.1423 24.982 27.1423 23.4286C27.1423 21.8752 27.7594 20.3854 28.8578 19.2869C29.9562 18.1885 31.446 17.5714 32.9994 17.5714C34.5529 17.5714 36.0426 18.1885 37.1411 19.2869C38.2395 20.3854 38.8566 21.8752 38.8566 23.4286C38.8566 24.982 38.2395 26.4718 37.1411 27.5702C36.0426 28.6686 34.5529 29.2857 32.9994 29.2857ZM15.428 64.4286C14.6513 64.4286 13.9064 64.7371 13.3572 65.2863C12.808 65.8355 12.4994 66.5804 12.4994 67.3571C12.4994 68.1339 12.808 68.8787 13.3572 69.428C13.9064 69.9772 14.6513 70.2857 15.428 70.2857H50.5709C51.3476 70.2857 52.0925 69.9772 52.6417 69.428C53.1909 68.8787 53.4994 68.1339 53.4994 67.3571C53.4994 66.5804 53.1909 65.8355 52.6417 65.2863C52.0925 64.7371 51.3476 64.4286 50.5709 64.4286H15.428ZM0.785156 10.25C0.785156 7.53153 1.86506 4.9244 3.78731 3.00216C5.70956 1.07991 8.31669 0 11.0352 0H54.9637C57.6822 0 60.2893 1.07991 62.2116 3.00216C64.1338 4.9244 65.2137 7.53153 65.2137 10.25V71.75C65.2137 74.4685 64.1338 77.0756 62.2116 78.9978C60.2893 80.9201 57.6822 82 54.9637 82H11.0352C8.31669 82 5.70956 80.9201 3.78731 78.9978C1.86506 77.0756 0.785156 74.4685 0.785156 71.75V10.25ZM11.0352 5.85714C9.8701 5.85714 8.75276 6.31996 7.92894 7.14378C7.10512 7.9676 6.6423 9.08494 6.6423 10.25V52.7143H15.428V43.9286C15.428 42.3752 16.0451 40.8854 17.1435 39.7869C18.242 38.6885 19.7317 38.0714 21.2852 38.0714H44.7137C46.2671 38.0714 47.7569 38.6885 48.8554 39.7869C49.9538 40.8854 50.5709 42.3752 50.5709 43.9286V52.7143H59.3566V10.25C59.3566 9.08494 58.8938 7.9676 58.0699 7.14378C57.2461 6.31996 56.1288 5.85714 54.9637 5.85714H11.0352ZM6.6423 71.75C6.6423 72.9151 7.10512 74.0324 7.92894 74.8562C8.75276 75.68 9.8701 76.1429 11.0352 76.1429H54.9637C56.1288 76.1429 57.2461 75.68 58.0699 74.8562C58.8938 74.0324 59.3566 72.9151 59.3566 71.75V58.5714H6.6423V71.75ZM44.7137 43.9286H21.2852V52.7143H44.7137V43.9286Z" fill="#6DC0F9"/>
</svg>
