<svg width="46" height="44" viewBox="0 0 46 44" fill="none" xmlns="http://www.w3.org/2000/svg">
<g id="calendar-outline">
<path id="Vector" d="M26.2865 22.1329C27.4543 22.1329 28.401 21.2226 28.401 20.0997C28.401 18.9767 27.4543 18.0664 26.2865 18.0664C25.1186 18.0664 24.1719 18.9767 24.1719 20.0997C24.1719 21.2226 25.1186 22.1329 26.2865 22.1329Z" fill="#C989DD"/>
<path id="Vector_2" d="M33.3333 22.1329C34.5012 22.1329 35.4479 21.2226 35.4479 20.0997C35.4479 18.9767 34.5012 18.0664 33.3333 18.0664C32.1655 18.0664 31.2188 18.9767 31.2188 20.0997C31.2188 21.2226 32.1655 22.1329 33.3333 22.1329Z" fill="#C989DD"/>
<path id="Vector_3" d="M26.2865 28.9112C27.4543 28.9112 28.401 28.0009 28.401 26.878C28.401 25.755 27.4543 24.8447 26.2865 24.8447C25.1186 24.8447 24.1719 25.755 24.1719 26.878C24.1719 28.0009 25.1186 28.9112 26.2865 28.9112Z" fill="#C989DD"/>
<path id="Vector_4" d="M33.3333 28.9112C34.5012 28.9112 35.4479 28.0009 35.4479 26.878C35.4479 25.755 34.5012 24.8447 33.3333 24.8447C32.1655 24.8447 31.2188 25.755 31.2188 26.878C31.2188 28.0009 32.1655 28.9112 33.3333 28.9112Z" fill="#C989DD"/>
<path id="Vector_5" d="M12.1849 28.9112C13.3527 28.9112 14.2995 28.0009 14.2995 26.878C14.2995 25.755 13.3527 24.8447 12.1849 24.8447C11.017 24.8447 10.0703 25.755 10.0703 26.878C10.0703 28.0009 11.017 28.9112 12.1849 28.9112Z" fill="#C989DD"/>
<path id="Vector_6" d="M19.2396 28.9112C20.4074 28.9112 21.3542 28.0009 21.3542 26.878C21.3542 25.755 20.4074 24.8447 19.2396 24.8447C18.0717 24.8447 17.125 25.755 17.125 26.878C17.125 28.0009 18.0717 28.9112 19.2396 28.9112Z" fill="#C989DD"/>
<path id="Vector_7" d="M12.1849 35.6886C13.3527 35.6886 14.2995 34.7783 14.2995 33.6553C14.2995 32.5324 13.3527 31.6221 12.1849 31.6221C11.017 31.6221 10.0703 32.5324 10.0703 33.6553C10.0703 34.7783 11.017 35.6886 12.1849 35.6886Z" fill="#C989DD"/>
<path id="Vector_8" d="M19.2396 35.6886C20.4074 35.6886 21.3542 34.7783 21.3542 33.6553C21.3542 32.5324 20.4074 31.6221 19.2396 31.6221C18.0717 31.6221 17.125 32.5324 17.125 33.6553C17.125 34.7783 18.0717 35.6886 19.2396 35.6886Z" fill="#C989DD"/>
<path id="Vector_9" d="M26.2865 35.6886C27.4543 35.6886 28.401 34.7783 28.401 33.6553C28.401 32.5324 27.4543 31.6221 26.2865 31.6221C25.1186 31.6221 24.1719 32.5324 24.1719 33.6553C24.1719 34.7783 25.1186 35.6886 26.2865 35.6886Z" fill="#C989DD"/>
<path id="Vector_10" d="M12.4861 4.51172C12.4861 3.95943 12.0384 3.51172 11.4861 3.51172C10.9338 3.51172 10.4861 3.95943 10.4861 4.51172H12.4861ZM10.4861 7.22272C10.4861 7.77501 10.9338 8.22272 11.4861 8.22272C12.0384 8.22272 12.4861 7.77501 12.4861 7.22272H10.4861ZM35.0417 4.51172C35.0417 3.95943 34.594 3.51172 34.0417 3.51172C33.4894 3.51172 33.0417 3.95943 33.0417 4.51172H35.0417ZM33.0417 7.22272C33.0417 7.77501 33.4894 8.22272 34.0417 8.22272C34.594 8.22272 35.0417 7.77501 35.0417 7.22272H33.0417ZM8.66667 8.22272H36.8611V6.22272H8.66667V8.22272ZM36.8611 8.22272C38.6819 8.22272 40.0903 9.63225 40.0903 11.2892H42.0903C42.0903 8.45447 39.7118 6.22272 36.8611 6.22272V8.22272ZM40.0903 11.2892V35.6883H42.0903V11.2892H40.0903ZM40.0903 35.6883C40.0903 37.3452 38.6819 38.7548 36.8611 38.7548V40.7548C39.7118 40.7548 42.0903 38.523 42.0903 35.6883H40.0903ZM36.8611 38.7548H8.66667V40.7548H36.8611V38.7548ZM8.66667 38.7548C6.84592 38.7548 5.4375 37.3452 5.4375 35.6883H3.4375C3.4375 38.523 5.81601 40.7548 8.66667 40.7548V38.7548ZM5.4375 35.6883V11.2892H3.4375V35.6883H5.4375ZM5.4375 11.2892C5.4375 9.63225 6.84592 8.22272 8.66667 8.22272V6.22272C5.81601 6.22272 3.4375 8.45447 3.4375 11.2892H5.4375ZM10.4861 4.51172V7.22272H12.4861V4.51172H10.4861ZM33.0417 4.51172V7.22272H35.0417V4.51172H33.0417ZM41.0903 13.0002H4.4375V15.0002H41.0903V13.0002Z" fill="#C989DD"/>
</g>
</svg>
