<svg width="42" height="41" viewBox="0 0 42 41" fill="none" xmlns="http://www.w3.org/2000/svg">
<g id="documents-outline">
<path id="Vector" d="M27.6562 21.151L26.6562 21.1506V21.151H27.6562ZM5.875 13.7734L4.875 13.7676V13.7734H5.875ZM9.39844 10.25V9.24998L9.39258 9.25002L9.39844 10.25ZM16.9354 10.25L16.9369 9.25H16.9354V10.25ZM18.336 10.8394L17.622 11.5396L17.6229 11.5405L18.336 10.8394ZM27.0765 19.728L27.7914 19.0289L27.7895 19.0269L27.0765 19.728ZM17.7656 10.25C17.7656 9.69772 17.3179 9.25 16.7656 9.25C16.2133 9.25 15.7656 9.69772 15.7656 10.25H17.7656ZM16.7656 18.8984H15.7656L15.7657 18.9104L16.7656 18.8984ZM19.0078 21.1406L18.9959 22.1406H19.0078V21.1406ZM27.6562 22.1406C28.2085 22.1406 28.6562 21.6929 28.6562 21.1406C28.6562 20.5883 28.2085 20.1406 27.6562 20.1406V22.1406ZM14.8438 6.08594L13.8438 6.08008V6.08594H14.8438ZM18.3672 2.5625V1.56248L18.3613 1.56252L18.3672 2.5625ZM25.8945 2.5625L25.8959 1.5625H25.8945V2.5625ZM27.3047 3.15188L28.0177 2.45073L28.0153 2.44829L27.3047 3.15188ZM36.0452 12.0405L35.3322 12.7417L35.3338 12.7433L36.0452 12.0405ZM26.7344 2.5625C26.7344 2.01022 26.2867 1.5625 25.7344 1.5625C25.1821 1.5625 24.7344 2.01022 24.7344 2.5625H26.7344ZM25.7344 11.2109H24.7343L24.7344 11.2229L25.7344 11.2109ZM27.9766 13.4531L27.9646 14.4531H27.9766V13.4531ZM26.6562 21.151V34.9141H28.6562V21.151H26.6562ZM26.6562 34.9141C26.6562 36.3333 25.5532 37.4375 24.2169 37.4375V39.4375C26.7084 39.4375 28.6562 37.3866 28.6562 34.9141H26.6562ZM24.2169 37.4375H9.31836V39.4375H24.2169V37.4375ZM9.31836 37.4375C7.97735 37.4375 6.875 36.3326 6.875 34.9141H4.875C4.875 37.3873 6.82363 39.4375 9.31836 39.4375V37.4375ZM6.875 34.9141V13.7734H4.875V34.9141H6.875ZM6.87498 13.7793C6.8789 13.1097 7.14664 12.4686 7.62013 11.9951L6.20592 10.5809C5.36023 11.4266 4.88202 12.5716 4.87502 13.7676L6.87498 13.7793ZM7.62013 11.9951C8.09363 11.5216 8.73469 11.2539 9.40429 11.25L9.39258 9.25002C8.19661 9.25702 7.05162 9.73523 6.20592 10.5809L7.62013 11.9951ZM9.39844 11.25H16.9354V9.25H9.39844V11.25ZM16.9339 11.25C17.062 11.2502 17.1889 11.2759 17.307 11.3256L18.0828 9.48219C17.72 9.32953 17.3305 9.2506 16.9369 9.25L16.9339 11.25ZM17.307 11.3256C17.4252 11.3753 17.5323 11.4481 17.622 11.5396L19.0499 10.1392C18.7743 9.85818 18.4456 9.63484 18.0828 9.48219L17.307 11.3256ZM17.6229 11.5405L26.3635 20.4292L27.7895 19.0269L19.049 10.1382L17.6229 11.5405ZM26.3615 20.4272C26.5506 20.6205 26.6564 20.8802 26.6562 21.1506L28.6562 21.1515C28.6566 20.3581 28.3462 19.5961 27.7914 19.0289L26.3615 20.4272ZM15.7656 10.25V18.8984H17.7656V10.25H15.7656ZM15.7657 18.9104C15.7759 19.7639 16.1195 20.5796 16.7231 21.1832L18.1373 19.769C17.9029 19.5346 17.7695 19.2179 17.7656 18.8865L15.7657 18.9104ZM16.7231 21.1832C17.3266 21.7868 18.1423 22.1304 18.9959 22.1406L19.0197 20.1407C18.6883 20.1367 18.3716 20.0033 18.1373 19.769L16.7231 21.1832ZM19.0078 22.1406H27.6562V20.1406H19.0078V22.1406ZM15.8438 10.25V6.08594H13.8438V10.25H15.8438ZM15.8437 6.09179C15.8477 5.42219 16.1154 4.78113 16.5889 4.30764L15.1747 2.89342C14.329 3.73912 13.8508 4.88411 13.8438 6.08008L15.8437 6.09179ZM16.5889 4.30764C17.0624 3.83414 17.7034 3.5664 18.373 3.56248L18.3613 1.56252C17.1654 1.56952 16.0204 2.04773 15.1747 2.89342L16.5889 4.30764ZM18.3672 3.5625H25.8945V1.5625H18.3672V3.5625ZM25.8931 3.5625C26.0235 3.56268 26.1526 3.58866 26.2729 3.63894L27.0441 1.79362C26.6804 1.6416 26.2902 1.56305 25.8959 1.5625L25.8931 3.5625ZM26.2729 3.63894C26.3932 3.68922 26.5024 3.7628 26.5941 3.85546L28.0153 2.44829C27.7379 2.16815 27.4079 1.94565 27.0441 1.79362L26.2729 3.63894ZM26.5917 3.85301L35.3322 12.7417L36.7583 11.3394L28.0177 2.45074L26.5917 3.85301ZM35.3338 12.7433C35.5205 12.9323 35.6251 13.1872 35.625 13.4528L37.625 13.4534C37.6253 12.6614 37.3133 11.9013 36.7567 11.3378L35.3338 12.7433ZM35.625 13.4531V27.2266H37.625V13.4531H35.625ZM35.625 27.2266C35.625 28.6458 34.5219 29.75 33.1856 29.75V31.75C35.6771 31.75 37.625 29.6991 37.625 27.2266H35.625ZM33.1856 29.75H28.2969V31.75H33.1856V29.75ZM24.7344 2.5625V11.2109H26.7344V2.5625H24.7344ZM24.7344 11.2229C24.7446 12.0764 25.0882 12.8921 25.6918 13.4957L27.106 12.0815C26.8717 11.8471 26.7383 11.5304 26.7343 11.199L24.7344 11.2229ZM25.6918 13.4957C26.2954 14.0993 27.1111 14.4429 27.9646 14.4531L27.9885 12.4532C27.6571 12.4492 27.3404 12.3158 27.106 12.0815L25.6918 13.4957ZM27.9766 14.4531H36.625V12.4531H27.9766V14.4531Z" fill="#C989DD"/>
</g>
</svg>
