<svg width="82" height="81" viewBox="0 0 82 81" fill="none" xmlns="http://www.w3.org/2000/svg">
<g id="documents-outline">
<path id="Vector" d="M53.6562 41.7862V68.9766C53.6562 72.8209 50.6425 75.9375 46.8614 75.9375H17.4277C13.6388 75.9375 10.625 72.8209 10.625 68.9766V27.2109C10.6358 25.3681 11.3726 23.6038 12.6757 22.3007C13.9788 20.9976 15.7431 20.2608 17.5859 20.25H32.476C32.9914 20.2508 33.5015 20.3541 33.9765 20.554C34.4516 20.754 34.8821 21.0464 35.243 21.4144L52.5109 38.9749C53.2455 39.7262 53.6567 40.7354 53.6562 41.7862V41.7862Z" stroke="#AAAAAA" stroke-width="3" stroke-linejoin="round"/>
<path id="Vector_2" d="M32.1406 20.25V37.3359C32.1546 38.5064 32.6258 39.625 33.4535 40.4528C34.2812 41.2805 35.3998 41.7517 36.5703 41.7656H53.6562" stroke="#AAAAAA" stroke-width="3" stroke-linecap="round" stroke-linejoin="round"/>
<path id="Vector_3" d="M28.3438 20.25V12.0234C28.3545 10.1806 29.0914 8.41634 30.3945 7.11324C31.6976 5.81014 33.4619 5.07329 35.3047 5.0625H50.1758C50.694 5.06322 51.207 5.16647 51.6851 5.36631C52.1633 5.56615 52.5971 5.85862 52.9617 6.22688L70.2296 23.7874C70.9638 24.5307 71.3753 25.5334 71.375 26.5781V53.7891C71.375 57.6334 68.3612 60.75 64.5802 60.75H54.9219" stroke="#AAAAAA" stroke-width="3" stroke-linejoin="round"/>
<path id="Vector_4" d="M49.8594 5.0625V22.1484C49.8733 23.3189 50.3445 24.4375 51.1722 25.2653C52 26.093 53.1186 26.5642 54.2891 26.5781H71.375" stroke="#AAAAAA" stroke-width="3" stroke-linecap="round" stroke-linejoin="round"/>
<path id="Vector_5" d="M40.5 59C40.5 54.5833 36.9167 51 32.5 51C28.0833 51 24.5 54.5833 24.5 59C24.5 63.4167 28.0833 67 32.5 67C36.9167 67 40.5 63.4167 40.5 59Z" stroke="#AAAAAA" stroke-width="2" stroke-miterlimit="10"/>
<path id="Vector_6" d="M35.1615 61.6668L29.8281 56.3335M29.8281 61.6668L35.1615 56.3335" stroke="#AAAAAA" stroke-width="2" stroke-linecap="round" stroke-linejoin="round"/>
</g>
</svg>
