<svg width="20" height="18" viewBox="0 0 20 18" fill="none" xmlns="http://www.w3.org/2000/svg">
<path id="Vector" d="M3.22855 9.11484V16.3846C3.22855 16.5478 3.29339 16.7043 3.40881 16.8197C3.52422 16.9352 3.68076 17 3.84398 17H7.53652V11.7689C7.53652 11.5241 7.63378 11.2893 7.8069 11.1161C7.98002 10.943 8.21483 10.8458 8.45966 10.8458H11.5368C11.7816 10.8458 12.0164 10.943 12.1895 11.1161C12.3627 11.2893 12.4599 11.5241 12.4599 11.7689V17H16.1525C16.3157 17 16.4722 16.9352 16.5876 16.8197C16.7031 16.7043 16.7679 16.5478 16.7679 16.3846V9.11484M15.5376 6.03812V1.61475H13.6913V4.26877M18.6147 8.99985L10.4176 1.15318C10.2253 0.950094 9.77566 0.947786 9.57988 1.15318L1.38281 8.99985H18.6147Z" stroke="white" stroke-width="1.2" stroke-linecap="round" stroke-linejoin="round"/>
</svg>
