<svg width="42" height="41" viewBox="0 0 42 41" fill="none" xmlns="http://www.w3.org/2000/svg">
<g id="fluent:calendar-cancel-24-regular">
<path id="Vector" d="M30.3958 20.5C32.8878 20.5 35.2776 21.4899 37.0397 23.252C38.8018 25.014 39.7917 27.4039 39.7917 29.8958C39.7917 32.3878 38.8018 34.7776 37.0397 36.5397C35.2776 38.3018 32.8878 39.2917 30.3958 39.2917C27.9039 39.2917 25.514 38.3018 23.752 36.5397C21.9899 34.7776 21 32.3878 21 29.8958C21 27.4039 21.9899 25.014 23.752 23.252C25.514 21.4899 27.9039 20.5 30.3958 20.5ZM26.166 25.666C26.0059 25.8262 25.9159 26.0434 25.9159 26.2699C25.9159 26.4964 26.0059 26.7136 26.166 26.8738L29.188 29.8975L26.1694 32.9145C26.09 32.9938 26.027 33.0879 25.984 33.1916C25.9409 33.2953 25.9188 33.4064 25.9187 33.5186C25.9186 33.6308 25.9406 33.742 25.9835 33.8457C26.0264 33.9494 26.0893 34.0437 26.1686 34.1231C26.2479 34.2025 26.342 34.2655 26.4457 34.3086C26.5494 34.3516 26.6605 34.3738 26.7727 34.3739C26.8849 34.3739 26.9961 34.3519 27.0998 34.309C27.2035 34.2661 27.2978 34.2033 27.3772 34.124L30.3958 31.1053L33.4196 34.1274C33.4984 34.209 33.5926 34.274 33.6968 34.3188C33.8011 34.3636 33.9131 34.3871 34.0266 34.3881C34.14 34.3891 34.2524 34.3675 34.3574 34.3245C34.4624 34.2816 34.5578 34.2182 34.638 34.138C34.7182 34.0578 34.7816 33.9624 34.8245 33.8574C34.8675 33.7524 34.8891 33.64 34.8881 33.5266C34.8871 33.4131 34.8636 33.3011 34.8188 33.1968C34.774 33.0926 34.709 32.9984 34.6274 32.9196L31.6053 29.8958L34.6308 26.8721C34.7864 26.711 34.8725 26.4952 34.8705 26.2713C34.8686 26.0473 34.7788 25.8331 34.6204 25.6747C34.462 25.5163 34.2478 25.4265 34.0238 25.4245C33.7999 25.4226 33.5841 25.5087 33.423 25.6643L30.3975 28.688L27.3738 25.6643C27.2136 25.5042 26.9964 25.4142 26.7699 25.4142C26.5434 25.4142 26.3262 25.5042 26.166 25.6643V25.666ZM30.8229 5.125C32.2954 5.125 33.7076 5.70995 34.7488 6.75117C35.7901 7.79239 36.375 9.20458 36.375 10.6771L36.3767 20.5393C35.5781 20.0267 34.7169 19.6191 33.8142 19.3264L33.8125 14.5208H8.1875V30.3229C8.1875 31.9732 9.52683 33.3125 11.1771 33.3125H19.8281C20.1219 34.2248 20.5319 35.0858 21.0393 35.8767L11.1771 35.875C9.70458 35.875 8.29239 35.2901 7.25117 34.2488C6.20995 33.2076 5.625 31.7954 5.625 30.3229V10.6771C5.625 9.20458 6.20995 7.79239 7.25117 6.75117C8.29239 5.70995 9.70458 5.125 11.1771 5.125H30.8229ZM30.8229 7.6875H11.1771C10.3842 7.6875 9.62378 8.00247 9.06313 8.56313C8.50247 9.12378 8.1875 9.8842 8.1875 10.6771V11.9583H33.8125V10.6771C33.8125 9.8842 33.4975 9.12378 32.9369 8.56313C32.3762 8.00247 31.6158 7.6875 30.8229 7.6875Z" fill="#C989DD"/>
</g>
</svg>
