<svg width="146" height="131" viewBox="0 0 146 131" fill="none" xmlns="http://www.w3.org/2000/svg">
<g id="Frame" clip-path="url(#clip0_1672_26660)">
<g id="Group">
<g id="Group_2">
<g id="Group_3">
<path id="Vector" opacity="0.7" d="M121.852 4.55858H102.888V2.28793C102.888 1.21648 102.018 0.351074 100.951 0.351074H100.902C99.8301 0.351074 98.9647 1.2206 98.9647 2.28793V4.55858H30.7133V2.28793C30.7133 1.21648 29.8438 0.351074 28.7764 0.351074H28.727C27.6555 0.351074 26.7901 1.2206 26.7901 2.28793V4.55858H7.73892C5.57953 4.55858 3.82812 6.30999 3.82812 8.46937V107.216C3.82812 109.375 5.57953 111.127 7.73892 111.127H121.852C124.012 111.127 125.763 109.375 125.763 107.216V8.46937C125.763 6.30999 124.012 4.55858 121.852 4.55858Z" fill="#AAAAAA" fill-opacity="0.4"/>
<g id="Group_4">
<path id="Vector_2" d="M4.56739 109.168C2.32559 109.168 0.5 107.342 0.5 105.1V10.0669C0.5 7.8251 2.32559 5.99951 4.56739 5.99951H118.681C120.923 5.99951 122.748 7.8251 122.748 10.0669V105.105C122.748 107.346 120.923 109.172 118.681 109.172H4.56739V109.168Z" fill="#C989DD"/>
<path id="Vector_3" d="M118.966 6.61913C121.126 6.61913 122.877 8.37054 122.877 10.5299V105.568C122.877 107.727 121.126 109.478 118.966 109.478H4.85268C2.69329 109.478 0.941885 107.727 0.941885 105.568V10.5299C0.941885 8.37054 2.69329 6.61913 4.85268 6.61913H118.966ZM118.966 6.31006H4.85268C2.52433 6.31006 0.632812 8.20158 0.632812 10.5299V105.568C0.632812 107.896 2.52433 109.787 4.85268 109.787H118.966C121.295 109.787 123.186 107.896 123.186 105.568V10.5299C123.186 8.20158 121.295 6.31006 118.966 6.31006Z" fill="#C989DD"/>
</g>
<g id="Group_5">
<path id="Vector_4" d="M84.7289 11.8486H39.1016V13.4064H84.7289V11.8486Z" fill="white"/>
<path id="Vector_5" d="M90.642 16.1631H33.1875V17.7208H90.642V16.1631Z" fill="white"/>
</g>
<g id="Group_6">
<g id="Group_7">
<path id="Vector_6" d="M18.3568 22.3779H0.9375V39.7972H18.3568V22.3779Z" fill="white"/>
<path id="Vector_7" d="M4.98236 28.514C6.12033 28.514 7.04284 27.5915 7.04284 26.4535C7.04284 25.3156 6.12033 24.3931 4.98236 24.3931C3.84438 24.3931 2.92188 25.3156 2.92188 26.4535C2.92188 27.5915 3.84438 28.514 4.98236 28.514Z" fill="#CEB2C7"/>
<g id="Group_8">
<path id="Vector_8" d="M6.71094 31.2588H14.8869" stroke="#5E334F" stroke-width="0.423638" stroke-miterlimit="10" stroke-linecap="round" stroke-linejoin="round"/>
<path id="Vector_9" d="M4.41406 31.2588H5.68744" stroke="#5E334F" stroke-width="0.423638" stroke-miterlimit="10" stroke-linecap="round" stroke-linejoin="round"/>
<path id="Vector_10" d="M6.71094 34.0532H14.8869" stroke="#5E334F" stroke-width="0.423638" stroke-miterlimit="10" stroke-linecap="round" stroke-linejoin="round"/>
<path id="Vector_11" d="M4.41406 34.0532H5.68744" stroke="#5E334F" stroke-width="0.423638" stroke-miterlimit="10" stroke-linecap="round" stroke-linejoin="round"/>
</g>
</g>
<g id="Group_9">
<path id="Vector_12" d="M53.2006 22.3779H35.7812V39.7972H53.2006V22.3779Z" fill="white"/>
<path id="Vector_13" d="M39.8261 28.514C40.9641 28.514 41.8866 27.5915 41.8866 26.4535C41.8866 25.3156 40.9641 24.3931 39.8261 24.3931C38.6881 24.3931 37.7656 25.3156 37.7656 26.4535C37.7656 27.5915 38.6881 28.514 39.8261 28.514Z" fill="#CEB2C7"/>
</g>
<g id="Group_10">
<path id="Vector_14" d="M70.6224 22.3779H53.2031V39.7972H70.6224V22.3779Z" fill="white"/>
<path id="Vector_15" d="M57.248 28.514C58.386 28.514 59.3085 27.5915 59.3085 26.4535C59.3085 25.3156 58.386 24.3931 57.248 24.3931C56.11 24.3931 55.1875 25.3156 55.1875 26.4535C55.1875 27.5915 56.11 28.514 57.248 28.514Z" fill="#CEB2C7"/>
</g>
<g id="Group_11">
<path id="Vector_16" d="M88.0365 22.3779H70.6172V39.7972H88.0365V22.3779Z" fill="white"/>
<path id="Vector_17" d="M74.662 28.514C75.8 28.514 76.7225 27.5915 76.7225 26.4535C76.7225 25.3156 75.8 24.3931 74.662 24.3931C73.5241 24.3931 72.6016 25.3156 72.6016 26.4535C72.6016 27.5915 73.5241 28.514 74.662 28.514Z" fill="#CEB2C7"/>
<g id="Group_12">
<path id="Vector_18" d="M76.3906 31.2588H84.5666" stroke="#5E334F" stroke-width="0.423638" stroke-miterlimit="10" stroke-linecap="round" stroke-linejoin="round"/>
<path id="Vector_19" d="M74.0859 31.2588H75.3593" stroke="#5E334F" stroke-width="0.423638" stroke-miterlimit="10" stroke-linecap="round" stroke-linejoin="round"/>
<path id="Vector_20" d="M76.3906 34.0532H84.5666" stroke="#5E334F" stroke-width="0.423638" stroke-miterlimit="10" stroke-linecap="round" stroke-linejoin="round"/>
<path id="Vector_21" d="M74.0859 34.0532H75.3593" stroke="#5E334F" stroke-width="0.423638" stroke-miterlimit="10" stroke-linecap="round" stroke-linejoin="round"/>
</g>
<g id="Group_13">
<path id="Vector_22" d="M76.3906 36.8467H84.5666" stroke="#5E334F" stroke-width="0.423638" stroke-miterlimit="10" stroke-linecap="round" stroke-linejoin="round"/>
<path id="Vector_23" d="M74.0859 36.8467H75.3593" stroke="#5E334F" stroke-width="0.423638" stroke-miterlimit="10" stroke-linecap="round" stroke-linejoin="round"/>
</g>
</g>
<g id="Group_14">
<path id="Vector_24" d="M105.458 22.3779H88.0391V39.7972H105.458V22.3779Z" fill="white"/>
<path id="Vector_25" d="M92.0839 28.514C93.2219 28.514 94.1444 27.5915 94.1444 26.4535C94.1444 25.3156 93.2219 24.3931 92.0839 24.3931C90.9459 24.3931 90.0234 25.3156 90.0234 26.4535C90.0234 27.5915 90.9459 28.514 92.0839 28.514Z" fill="#CEB2C7"/>
</g>
<g id="Group_15">
<path id="Vector_26" d="M122.88 22.3779H105.461V39.7972H122.88V22.3779Z" fill="white"/>
<path id="Vector_27" d="M109.506 28.514C110.644 28.514 111.566 27.5915 111.566 26.4535C111.566 25.3156 110.644 24.3931 109.506 24.3931C108.368 24.3931 107.445 25.3156 107.445 26.4535C107.445 27.5915 108.368 28.514 109.506 28.514Z" fill="#CEB2C7"/>
</g>
<g id="Group_16">
<path id="Vector_28" d="M18.3568 39.7974H0.9375V57.2167H18.3568V39.7974Z" fill="white"/>
<path id="Vector_29" d="M4.98236 45.9379C6.12033 45.9379 7.04284 45.0153 7.04284 43.8774C7.04284 42.7394 6.12033 41.8169 4.98236 41.8169C3.84438 41.8169 2.92188 42.7394 2.92188 43.8774C2.92188 45.0153 3.84438 45.9379 4.98236 45.9379Z" fill="#CEB2C7"/>
</g>
<g id="Group_17">
<path id="Vector_30" d="M105.458 39.7974H88.0391V57.2167H105.458V39.7974Z" fill="white"/>
<path id="Vector_31" d="M92.0839 45.9379C93.2219 45.9379 94.1444 45.0153 94.1444 43.8774C94.1444 42.7394 93.2219 41.8169 92.0839 41.8169C90.9459 41.8169 90.0234 42.7394 90.0234 43.8774C90.0234 45.0153 90.9459 45.9379 92.0839 45.9379Z" fill="#CEB2C7"/>
</g>
<g id="Group_18">
<path id="Vector_32" d="M122.88 39.7974H105.461V57.2167H122.88V39.7974Z" fill="white"/>
<path id="Vector_33" d="M109.506 45.9379C110.644 45.9379 111.566 45.0153 111.566 43.8774C111.566 42.7394 110.644 41.8169 109.506 41.8169C108.368 41.8169 107.445 42.7394 107.445 43.8774C107.445 45.0153 108.368 45.9379 109.506 45.9379Z" fill="#CEB2C7"/>
</g>
<g id="Group_19">
<path id="Vector_34" d="M18.3568 57.2168H0.9375V74.6361H18.3568V57.2168Z" fill="white"/>
<path id="Vector_35" d="M4.98236 63.3573C6.12033 63.3573 7.04284 62.4348 7.04284 61.2968C7.04284 60.1588 6.12033 59.2363 4.98236 59.2363C3.84438 59.2363 2.92188 60.1588 2.92188 61.2968C2.92188 62.4348 3.84438 63.3573 4.98236 63.3573Z" fill="#CEB2C7"/>
</g>
<g id="Group_20">
<path id="Vector_36" d="M53.2006 57.2168H35.7812V74.6361H53.2006V57.2168Z" fill="white"/>
<path id="Vector_37" d="M39.8261 63.3573C40.9641 63.3573 41.8866 62.4348 41.8866 61.2968C41.8866 60.1588 40.9641 59.2363 39.8261 59.2363C38.6881 59.2363 37.7656 60.1588 37.7656 61.2968C37.7656 62.4348 38.6881 63.3573 39.8261 63.3573Z" fill="#CEB2C7"/>
</g>
<g id="Group_21">
<path id="Vector_38" d="M70.6224 57.2168H53.2031V74.6361H70.6224V57.2168Z" fill="white"/>
<path id="Vector_39" d="M57.248 63.3573C58.386 63.3573 59.3085 62.4348 59.3085 61.2968C59.3085 60.1588 58.386 59.2363 57.248 59.2363C56.11 59.2363 55.1875 60.1588 55.1875 61.2968C55.1875 62.4348 56.11 63.3573 57.248 63.3573Z" fill="#CEB2C7"/>
</g>
<g id="Group_22">
<path id="Vector_40" d="M88.0365 57.2168H70.6172V74.6361H88.0365V57.2168Z" fill="white"/>
<path id="Vector_41" d="M74.662 63.3573C75.8 63.3573 76.7225 62.4348 76.7225 61.2968C76.7225 60.1588 75.8 59.2363 74.662 59.2363C73.5241 59.2363 72.6016 60.1588 72.6016 61.2968C72.6016 62.4348 73.5241 63.3573 74.662 63.3573Z" fill="#CEB2C7"/>
</g>
<g id="Group_23">
<path id="Vector_42" d="M105.458 57.2168H88.0391V74.6361H105.458V57.2168Z" fill="white"/>
<path id="Vector_43" d="M92.0839 63.3573C93.2219 63.3573 94.1444 62.4348 94.1444 61.2968C94.1444 60.1588 93.2219 59.2363 92.0839 59.2363C90.9459 59.2363 90.0234 60.1588 90.0234 61.2968C90.0234 62.4348 90.9459 63.3573 92.0839 63.3573Z" fill="#CEB2C7"/>
<g id="Group_24">
<path id="Vector_44" d="M93.8125 66.1016H101.988" stroke="#5E334F" stroke-width="0.423638" stroke-miterlimit="10" stroke-linecap="round" stroke-linejoin="round"/>
<path id="Vector_45" d="M91.5078 66.1016H92.7853" stroke="#5E334F" stroke-width="0.423638" stroke-miterlimit="10" stroke-linecap="round" stroke-linejoin="round"/>
<path id="Vector_46" d="M93.8125 68.8911H101.988" stroke="#5E334F" stroke-width="0.423638" stroke-miterlimit="10" stroke-linecap="round" stroke-linejoin="round"/>
<path id="Vector_47" d="M91.5078 68.8911H92.7853" stroke="#5E334F" stroke-width="0.423638" stroke-miterlimit="10" stroke-linecap="round" stroke-linejoin="round"/>
</g>
</g>
<g id="Group_25">
<path id="Vector_48" d="M122.88 57.2168H105.461V74.6361H122.88V57.2168Z" fill="white"/>
<path id="Vector_49" d="M109.506 63.3573C110.644 63.3573 111.566 62.4348 111.566 61.2968C111.566 60.1588 110.644 59.2363 109.506 59.2363C108.368 59.2363 107.445 60.1588 107.445 61.2968C107.445 62.4348 108.368 63.3573 109.506 63.3573Z" fill="#CEB2C7"/>
</g>
<g id="Group_26">
<path id="Vector_50" d="M18.3568 74.6401H0.9375V92.0594H18.3568V74.6401Z" fill="white"/>
<path id="Vector_51" d="M4.98236 80.7762C6.12033 80.7762 7.04284 79.8537 7.04284 78.7158C7.04284 77.5778 6.12033 76.6553 4.98236 76.6553C3.84438 76.6553 2.92188 77.5778 2.92188 78.7158C2.92188 79.8537 3.84438 80.7762 4.98236 80.7762Z" fill="#CEB2C7"/>
</g>
<g id="Group_27">
<path id="Vector_52" d="M53.2006 74.6401H35.7812V92.0594H53.2006V74.6401Z" fill="white"/>
<path id="Vector_53" d="M39.8261 80.7762C40.9641 80.7762 41.8866 79.8537 41.8866 78.7158C41.8866 77.5778 40.9641 76.6553 39.8261 76.6553C38.6881 76.6553 37.7656 77.5778 37.7656 78.7158C37.7656 79.8537 38.6881 80.7762 39.8261 80.7762Z" fill="#CEB2C7"/>
<g id="Group_28">
<path id="Vector_54" d="M41.5547 83.521H49.7348" stroke="#5E334F" stroke-width="0.423638" stroke-miterlimit="10" stroke-linecap="round" stroke-linejoin="round"/>
<path id="Vector_55" d="M39.2578 83.521H40.5312" stroke="#5E334F" stroke-width="0.423638" stroke-miterlimit="10" stroke-linecap="round" stroke-linejoin="round"/>
<path id="Vector_56" d="M41.5547 86.3154H49.7348" stroke="#5E334F" stroke-width="0.423638" stroke-miterlimit="10" stroke-linecap="round" stroke-linejoin="round"/>
<path id="Vector_57" d="M39.2578 86.3154H40.5312" stroke="#5E334F" stroke-width="0.423638" stroke-miterlimit="10" stroke-linecap="round" stroke-linejoin="round"/>
</g>
</g>
<g id="Group_29">
<path id="Vector_58" d="M88.0365 74.6401H70.6172V92.0594H88.0365V74.6401Z" fill="white"/>
<path id="Vector_59" d="M74.662 80.7762C75.8 80.7762 76.7225 79.8537 76.7225 78.7158C76.7225 77.5778 75.8 76.6553 74.662 76.6553C73.5241 76.6553 72.6016 77.5778 72.6016 78.7158C72.6016 79.8537 73.5241 80.7762 74.662 80.7762Z" fill="#CEB2C7"/>
</g>
<g id="Group_30">
<path id="Vector_60" d="M105.458 74.6401H88.0391V92.0594H105.458V74.6401Z" fill="white"/>
<path id="Vector_61" d="M92.0839 80.7762C93.2219 80.7762 94.1444 79.8537 94.1444 78.7158C94.1444 77.5778 93.2219 76.6553 92.0839 76.6553C90.9459 76.6553 90.0234 77.5778 90.0234 78.7158C90.0234 79.8537 90.9459 80.7762 92.0839 80.7762Z" fill="#CEB2C7"/>
</g>
<g id="Group_31">
<path id="Vector_62" d="M122.88 74.6401H105.461V92.0594H122.88V74.6401Z" fill="white"/>
<path id="Vector_63" d="M109.506 80.7762C110.644 80.7762 111.566 79.8537 111.566 78.7158C111.566 77.5778 110.644 76.6553 109.506 76.6553C108.368 76.6553 107.445 77.5778 107.445 78.7158C107.445 79.8537 108.368 80.7762 109.506 80.7762Z" fill="#CEB2C7"/>
</g>
<g id="Group_32">
<path id="Vector_64" d="M18.3646 109.479H4.71599C2.63079 109.479 0.945312 107.789 0.945312 105.708V92.0596H18.3646V109.479Z" fill="white"/>
<path id="Vector_65" d="M4.99017 98.1957C6.12814 98.1957 7.05065 97.2732 7.05065 96.1352C7.05065 94.9972 6.12814 94.0747 4.99017 94.0747C3.8522 94.0747 2.92969 94.9972 2.92969 96.1352C2.92969 97.2732 3.8522 98.1957 4.99017 98.1957Z" fill="#CEB2C7"/>
</g>
<g id="Group_33">
<path id="Vector_66" d="M35.7787 39.7974H18.3594V57.2167H35.7787V39.7974Z" fill="white"/>
<path id="Vector_67" d="M22.4042 45.9379C23.5422 45.9379 24.4647 45.0153 24.4647 43.8774C24.4647 42.7394 23.5422 41.8169 22.4042 41.8169C21.2663 41.8169 20.3438 42.7394 20.3438 43.8774C20.3438 45.0153 21.2663 45.9379 22.4042 45.9379Z" fill="#CEB2C7"/>
</g>
<g id="Group_34">
<path id="Vector_68" d="M35.7787 22.3779H18.3594V39.7972H35.7787V22.3779Z" fill="white"/>
<path id="Vector_69" d="M22.4042 28.514C23.5422 28.514 24.4647 27.5915 24.4647 26.4535C24.4647 25.3156 23.5422 24.3931 22.4042 24.3931C21.2663 24.3931 20.3438 25.3156 20.3438 26.4535C20.3438 27.5915 21.2663 28.514 22.4042 28.514Z" fill="#CEB2C7"/>
</g>
<g id="Group_35">
<path id="Vector_70" d="M35.7787 57.2168H18.3594V74.6361H35.7787V57.2168Z" fill="white"/>
<path id="Vector_71" d="M22.4042 63.3573C23.5422 63.3573 24.4647 62.4348 24.4647 61.2968C24.4647 60.1588 23.5422 59.2363 22.4042 59.2363C21.2663 59.2363 20.3438 60.1588 20.3438 61.2968C20.3438 62.4348 21.2663 63.3573 22.4042 63.3573Z" fill="#CEB2C7"/>
</g>
<g id="Group_36">
<path id="Vector_72" d="M35.7787 74.6401H18.3594V92.0594H35.7787V74.6401Z" fill="white"/>
<path id="Vector_73" d="M22.4042 80.7762C23.5422 80.7762 24.4647 79.8537 24.4647 78.7158C24.4647 77.5778 23.5422 76.6553 22.4042 76.6553C21.2663 76.6553 20.3438 77.5778 20.3438 78.7158C20.3438 79.8537 21.2663 80.7762 22.4042 80.7762Z" fill="#CEB2C7"/>
</g>
<g id="Group_37">
<path id="Vector_74" d="M35.7787 92.0596H18.3594V109.479H35.7787V92.0596Z" fill="white"/>
<path id="Vector_75" d="M22.4042 98.1957C23.5422 98.1957 24.4647 97.2732 24.4647 96.1352C24.4647 94.9972 23.5422 94.0747 22.4042 94.0747C21.2663 94.0747 20.3438 94.9972 20.3438 96.1352C20.3438 97.2732 21.2663 98.1957 22.4042 98.1957Z" fill="#CEB2C7"/>
</g>
<g id="Group_38">
<path id="Vector_76" d="M53.2006 92.0596H35.7812V109.479H53.2006V92.0596Z" fill="white"/>
<path id="Vector_77" d="M39.8261 98.1957C40.9641 98.1957 41.8866 97.2732 41.8866 96.1352C41.8866 94.9972 40.9641 94.0747 39.8261 94.0747C38.6881 94.0747 37.7656 94.9972 37.7656 96.1352C37.7656 97.2732 38.6881 98.1957 39.8261 98.1957Z" fill="#CEB2C7"/>
</g>
<g id="Group_39">
<path id="Vector_78" d="M70.6224 92.0596H53.2031V109.479H70.6224V92.0596Z" fill="white"/>
<path id="Vector_79" d="M57.248 98.1957C58.386 98.1957 59.3085 97.2732 59.3085 96.1352C59.3085 94.9972 58.386 94.0747 57.248 94.0747C56.11 94.0747 55.1875 94.9972 55.1875 96.1352C55.1875 97.2732 56.11 98.1957 57.248 98.1957Z" fill="#CEB2C7"/>
</g>
<g id="Group_40">
<path id="Vector_80" d="M88.0365 92.0596H70.6172V109.479H88.0365V92.0596Z" fill="white"/>
<path id="Vector_81" d="M74.662 98.1957C75.8 98.1957 76.7225 97.2732 76.7225 96.1352C76.7225 94.9972 75.8 94.0747 74.662 94.0747C73.5241 94.0747 72.6016 94.9972 72.6016 96.1352C72.6016 97.2732 73.5241 98.1957 74.662 98.1957Z" fill="#CEB2C7"/>
</g>
<g id="Group_41">
<path id="Vector_82" d="M105.458 92.0596H88.0391V109.479H105.458V92.0596Z" fill="white"/>
<path id="Vector_83" opacity="0.3" d="M102.724 108.16H90.7811C89.9981 108.16 89.3594 107.525 89.3594 106.738V97.5526C89.3594 96.7696 89.994 96.1309 90.7811 96.1309H102.724C103.507 96.1309 104.145 96.7655 104.145 97.5526V106.738C104.141 107.521 103.507 108.16 102.724 108.16Z" fill="#C989DD"/>
<path id="Vector_84" d="M92.0839 98.1957C93.2219 98.1957 94.1444 97.2732 94.1444 96.1352C94.1444 94.9972 93.2219 94.0747 92.0839 94.0747C90.9459 94.0747 90.0234 94.9972 90.0234 96.1352C90.0234 97.2732 90.9459 98.1957 92.0839 98.1957Z" fill="#CEB2C7"/>
<g id="Group_42">
<path id="Vector_85" d="M93.8125 100.94H101.988" stroke="#5E334F" stroke-width="0.423638" stroke-miterlimit="10" stroke-linecap="round" stroke-linejoin="round"/>
<path id="Vector_86" d="M91.5078 100.94H92.7853" stroke="#5E334F" stroke-width="0.423638" stroke-miterlimit="10" stroke-linecap="round" stroke-linejoin="round"/>
</g>
</g>
<g id="Group_43">
<path id="Vector_87" d="M119.093 109.479H105.461V92.0596H122.88V105.692C122.88 107.781 121.187 109.479 119.093 109.479Z" fill="white"/>
<path id="Vector_88" d="M109.506 98.1957C110.644 98.1957 111.566 97.2732 111.566 96.1352C111.566 94.9972 110.644 94.0747 109.506 94.0747C108.368 94.0747 107.445 94.9972 107.445 96.1352C107.445 97.2732 108.368 98.1957 109.506 98.1957Z" fill="#CEB2C7"/>
</g>
<g id="Group_44">
<path id="Vector_89" d="M70.6224 39.7974H53.2031V57.2167H70.6224V39.7974Z" fill="white"/>
<path id="Vector_90" opacity="0.3" d="M67.8799 55.8977H55.9374C55.1544 55.8977 54.5156 55.2631 54.5156 54.476V45.2904C54.5156 44.5074 55.1503 43.8687 55.9374 43.8687H67.8799C68.6629 43.8687 69.3016 44.5033 69.3016 45.2904V54.476C69.3016 55.2631 68.667 55.8977 67.8799 55.8977Z" fill="#C989DD"/>
<path id="Vector_91" d="M57.248 45.9379C58.386 45.9379 59.3085 45.0153 59.3085 43.8774C59.3085 42.7394 58.386 41.8169 57.248 41.8169C56.11 41.8169 55.1875 42.7394 55.1875 43.8774C55.1875 45.0153 56.11 45.9379 57.248 45.9379Z" fill="#CEB2C7"/>
<g id="Group_45">
<path id="Vector_92" d="M58.9766 48.6782H67.1526" stroke="#5E334F" stroke-width="0.423638" stroke-miterlimit="10" stroke-linecap="round" stroke-linejoin="round"/>
<path id="Vector_93" d="M56.6719 48.6782H57.9453" stroke="#5E334F" stroke-width="0.423638" stroke-miterlimit="10" stroke-linecap="round" stroke-linejoin="round"/>
</g>
</g>
<g id="Group_46">
<path id="Vector_94" d="M88.0365 39.7974H70.6172V57.2167H88.0365V39.7974Z" fill="white"/>
<path id="Vector_95" opacity="0.3" d="M85.294 55.8977H73.3514C72.5684 55.8977 71.9297 55.2631 71.9297 54.476V45.2904C71.9297 44.5074 72.5643 43.8687 73.3514 43.8687H85.294C86.0769 43.8687 86.7157 44.5033 86.7157 45.2904V54.476C86.7157 55.2631 86.0811 55.8977 85.294 55.8977Z" fill="#C989DD"/>
<path id="Vector_96" d="M74.662 45.9379C75.8 45.9379 76.7225 45.0153 76.7225 43.8774C76.7225 42.7394 75.8 41.8169 74.662 41.8169C73.5241 41.8169 72.6016 42.7394 72.6016 43.8774C72.6016 45.0153 73.5241 45.9379 74.662 45.9379Z" fill="#CEB2C7"/>
<g id="Group_47">
<path id="Vector_97" d="M76.3906 48.6782H84.5666" stroke="#5E334F" stroke-width="0.423638" stroke-miterlimit="10" stroke-linecap="round" stroke-linejoin="round"/>
<path id="Vector_98" d="M74.0859 48.6782H75.3593" stroke="#5E334F" stroke-width="0.423638" stroke-miterlimit="10" stroke-linecap="round" stroke-linejoin="round"/>
</g>
</g>
<g id="Group_48">
<path id="Vector_99" d="M70.6224 74.6401H53.2031V92.0594H70.6224V74.6401Z" fill="white"/>
<path id="Vector_100" opacity="0.7" d="M67.8799 90.7405H55.9374C55.1544 90.7405 54.5156 90.1059 54.5156 89.3188V80.1332C54.5156 79.3502 55.1503 78.7114 55.9374 78.7114H67.8799C68.6629 78.7114 69.3016 79.3461 69.3016 80.1332V89.3188C69.3016 90.1018 68.667 90.7405 67.8799 90.7405Z" fill="#DEF9E5"/>
<path id="Vector_101" d="M57.248 80.7762C58.386 80.7762 59.3085 79.8537 59.3085 78.7158C59.3085 77.5778 58.386 76.6553 57.248 76.6553C56.11 76.6553 55.1875 77.5778 55.1875 78.7158C55.1875 79.8537 56.11 80.7762 57.248 80.7762Z" fill="#CEB2C7"/>
</g>
<g id="Group_49">
<path id="Vector_102" d="M53.2006 39.7974H35.7812V57.2167H53.2006V39.7974Z" fill="white"/>
<path id="Vector_103" opacity="0.3" d="M50.458 55.8977H38.5155C37.7325 55.8977 37.0938 55.2631 37.0938 54.476V45.2904C37.0938 44.5074 37.7284 43.8687 38.5155 43.8687H50.458C51.241 43.8687 51.8798 44.5033 51.8798 45.2904V54.476C51.8798 55.2631 51.241 55.8977 50.458 55.8977Z" fill="#C989DD"/>
<path id="Vector_104" d="M39.8261 45.9379C40.9641 45.9379 41.8866 45.0153 41.8866 43.8774C41.8866 42.7394 40.9641 41.8169 39.8261 41.8169C38.6881 41.8169 37.7656 42.7394 37.7656 43.8774C37.7656 45.0153 38.6881 45.9379 39.8261 45.9379Z" fill="#CEB2C7"/>
<g id="Group_50">
<path id="Vector_105" d="M41.5547 48.6782H49.7348" stroke="#5E334F" stroke-width="0.423638" stroke-miterlimit="10" stroke-linecap="round" stroke-linejoin="round"/>
<path id="Vector_106" d="M39.2578 48.6782H40.5312" stroke="#5E334F" stroke-width="0.423638" stroke-miterlimit="10" stroke-linecap="round" stroke-linejoin="round"/>
</g>
<g id="Group_51">
<path id="Vector_107" d="M41.5547 48.6782H49.7348" stroke="#5E334F" stroke-width="0.423638" stroke-miterlimit="10" stroke-linecap="round" stroke-linejoin="round"/>
<path id="Vector_108" d="M39.2578 48.6782H40.5312" stroke="#5E334F" stroke-width="0.423638" stroke-miterlimit="10" stroke-linecap="round" stroke-linejoin="round"/>
<path id="Vector_109" d="M41.5547 51.4727H49.7348" stroke="#5E334F" stroke-width="0.423638" stroke-miterlimit="10" stroke-linecap="round" stroke-linejoin="round"/>
<path id="Vector_110" d="M39.2578 51.4727H40.5312" stroke="#5E334F" stroke-width="0.423638" stroke-miterlimit="10" stroke-linecap="round" stroke-linejoin="round"/>
</g>
<g id="Group_52">
<path id="Vector_111" d="M41.5547 54.2666H49.7348" stroke="#5E334F" stroke-width="0.423638" stroke-miterlimit="10" stroke-linecap="round" stroke-linejoin="round"/>
<path id="Vector_112" d="M39.2578 54.2666H40.5312" stroke="#5E334F" stroke-width="0.423638" stroke-miterlimit="10" stroke-linecap="round" stroke-linejoin="round"/>
</g>
</g>
</g>
<g id="Group_53">
<path id="Vector_113" d="M0.9375 39.793H122.877" stroke="#C989DD" stroke-width="0.423638" stroke-miterlimit="10"/>
<path id="Vector_114" d="M0.9375 57.2158H122.877" stroke="#C989DD" stroke-width="0.423638" stroke-miterlimit="10"/>
<path id="Vector_115" d="M18.3594 22.3735V109.491" stroke="#C989DD" stroke-width="0.423638" stroke-miterlimit="10"/>
<path id="Vector_116" d="M35.7812 22.3735V109.491" stroke="#C989DD" stroke-width="0.423638" stroke-miterlimit="10"/>
<path id="Vector_117" d="M53.2031 22.3735V109.491" stroke="#C989DD" stroke-width="0.423638" stroke-miterlimit="10"/>
<path id="Vector_118" d="M70.6172 22.3735V109.491" stroke="#C989DD" stroke-width="0.423638" stroke-miterlimit="10"/>
<path id="Vector_119" d="M88.0391 22.3735V109.491" stroke="#C989DD" stroke-width="0.423638" stroke-miterlimit="10"/>
<path id="Vector_120" d="M105.461 22.3735V109.491" stroke="#C989DD" stroke-width="0.423638" stroke-miterlimit="10"/>
<path id="Vector_121" d="M0.9375 74.6357H122.877" stroke="#C989DD" stroke-width="0.423638" stroke-miterlimit="10"/>
<path id="Vector_122" d="M0.9375 92.0547H122.877" stroke="#C989DD" stroke-width="0.423638" stroke-miterlimit="10"/>
</g>
<g id="Group_54">
<path id="Vector_123" opacity="0.6" d="M22.9766 5.95068V13.4467C22.9766 15.0086 24.2417 16.2737 25.8035 16.2737H25.8736C27.4354 16.2737 28.7006 15.0086 28.7006 13.4467V5.95068H22.9766Z" fill="#E7E7E7"/>
<g id="Group_55">
<g id="Group_56">
<path id="Vector_124" d="M25.8926 15.2193H25.8431C24.7717 15.2193 23.9062 14.3498 23.9062 13.2824V4.34408C23.9062 3.27263 24.7758 2.40723 25.8431 2.40723H25.8926C26.964 2.40723 27.8294 3.27675 27.8294 4.34408V13.2824C27.8294 14.3539 26.9599 15.2193 25.8926 15.2193Z" fill="#F1BA68"/>
</g>
<path id="Vector_125" opacity="0.5" d="M25.8926 13.6209H25.8431C24.7717 13.6209 23.9062 12.7514 23.9062 11.6841V13.2871C23.9062 14.3586 24.7758 15.224 25.8431 15.224H25.8926C26.964 15.224 27.8294 14.3545 27.8294 13.2871V11.6841C27.8294 12.7514 26.9599 13.6209 25.8926 13.6209Z" fill="#F1BA68"/>
</g>
</g>
<g id="Group_57">
<path id="Vector_126" opacity="0.6" d="M95.0469 5.95068V13.4467C95.0469 15.0086 96.312 16.2737 97.8738 16.2737H97.9439C99.5058 16.2737 100.771 15.0086 100.771 13.4467V5.95068H95.0469Z" fill="#E7E7E7"/>
<g id="Group_58">
<g id="Group_59">
<path id="Vector_127" d="M98.0722 15.2193H98.0228C96.9513 15.2193 96.0859 14.3498 96.0859 13.2824V4.34408C96.0859 3.27263 96.9555 2.40723 98.0228 2.40723H98.0722C99.1437 2.40723 100.009 3.27675 100.009 4.34408V13.2824C100.009 14.3539 99.1437 15.2193 98.0722 15.2193Z" fill="#F1BA68"/>
</g>
<path id="Vector_128" opacity="0.5" d="M98.0722 13.6209H98.0228C96.9513 13.6209 96.0859 12.7514 96.0859 11.6841V13.2871C96.0859 14.3586 96.9555 15.224 98.0228 15.224H98.0722C99.1437 15.224 100.009 14.3545 100.009 13.2871V11.6841C100.009 12.7514 99.1437 13.6209 98.0722 13.6209Z" fill="#F1BA68"/>
</g>
</g>
<path id="Vector_129" opacity="0.2" d="M118.524 6.99951H116.283V100.014C116.283 102.173 114.531 103.925 112.372 103.925H0.5V105.948C0.5 108.107 2.25141 109.859 4.41079 109.859H118.524C120.684 109.859 122.435 108.107 122.435 105.948V10.9103C122.435 8.75092 120.684 6.99951 118.524 6.99951Z" fill="#B2B2B2"/>
</g>
<g id="Group_60">
<path id="Vector_130" d="M130.351 115.01C137.941 107.421 137.941 95.1155 130.351 87.526C122.762 79.9364 110.457 79.9364 102.867 87.526C95.2775 95.1155 95.2776 107.421 102.867 115.01C110.457 122.6 122.762 122.6 130.351 115.01Z" fill="#F1BA68"/>
<path id="Vector_131" d="M131.758 116.882C139.347 109.292 139.347 96.9871 131.758 89.3975C124.168 81.808 111.863 81.808 104.273 89.3975C96.6838 96.9871 96.6838 109.292 104.273 116.882C111.863 124.471 124.168 124.471 131.758 116.882Z" fill="#A6E0FA"/>
<path id="Vector_132" d="M130.351 115.01C137.941 107.421 137.941 95.1155 130.351 87.526C122.762 79.9364 110.457 79.9364 102.867 87.526C95.2775 95.1155 95.2776 107.421 102.867 115.01C110.457 122.6 122.762 122.6 130.351 115.01Z" fill="#6DC0F9"/>
<path id="Vector_133" opacity="0.5" d="M116.61 82.5932C127.218 82.5932 135.831 91.0906 136.033 101.649C136.037 101.521 136.041 101.397 136.041 101.269C136.041 90.5384 127.341 81.835 116.606 81.835C105.875 81.835 97.1719 90.5343 97.1719 101.269C97.1719 101.397 97.1801 101.521 97.1801 101.649C97.3862 91.0906 106.003 82.5932 116.61 82.5932Z" fill="white"/>
<path id="Vector_134" opacity="0.5" d="M116.609 119.026C126.416 119.026 134.366 111.076 134.366 101.269C134.366 91.4619 126.416 83.5117 116.609 83.5117C106.802 83.5117 98.8516 91.4619 98.8516 101.269C98.8516 111.076 106.802 119.026 116.609 119.026Z" fill="#268CD2"/>
<path id="Vector_135" d="M116.613 118.21C125.97 118.21 133.554 110.625 133.554 101.269C133.554 91.9125 125.97 84.3276 116.613 84.3276C107.257 84.3276 99.6719 91.9125 99.6719 101.269C99.6719 110.625 107.257 118.21 116.613 118.21Z" fill="white"/>
<path id="Vector_136" opacity="0.2" d="M116.609 116.237C107.584 116.237 100.212 109.182 99.7007 100.285C99.6801 100.61 99.6719 100.94 99.6719 101.274C99.6719 110.628 107.254 118.215 116.613 118.215C125.968 118.215 133.554 110.632 133.554 101.274C133.554 100.944 133.542 100.614 133.526 100.285C133.006 109.178 125.63 116.237 116.609 116.237Z" fill="#B2B2B2"/>
<g id="Group_61">
<g id="Group_62">
<path id="Vector_137" d="M116.617 85.3579V86.3016" stroke="#5E334F" stroke-width="0.423638" stroke-miterlimit="10" stroke-linecap="round" stroke-linejoin="round"/>
<path id="Vector_138" d="M116.617 116.236V117.18" stroke="#5E334F" stroke-width="0.423638" stroke-miterlimit="10" stroke-linecap="round" stroke-linejoin="round"/>
<path id="Vector_139" d="M132.526 101.269H131.578" stroke="#5E334F" stroke-width="0.423638" stroke-miterlimit="10" stroke-linecap="round" stroke-linejoin="round"/>
<path id="Vector_140" d="M101.647 101.269H100.703" stroke="#5E334F" stroke-width="0.423638" stroke-miterlimit="10" stroke-linecap="round" stroke-linejoin="round"/>
</g>
<path id="Vector_141" d="M122.657 98.2069L116.624 100.828L110.945 91.1807L116.463 101.837L122.657 98.2069Z" fill="#6DC0F9"/>
<path id="Vector_142" d="M117.368 101.269C117.368 101.686 117.03 102.023 116.614 102.023C116.197 102.023 115.859 101.686 115.859 101.269C115.859 100.853 116.197 100.515 116.614 100.515C117.03 100.511 117.368 100.853 117.368 101.269Z" fill="#5E334F"/>
</g>
</g>
</g>
</g>
</g>
<defs>
<clipPath id="clip0_1672_26660">
<rect width="145" height="130.624" fill="white" transform="translate(0.5)"/>
</clipPath>
</defs>
</svg>
