<svg width="40" height="39" viewBox="0 0 40 39" fill="none" xmlns="http://www.w3.org/2000/svg">
<g id="healthicons:doctor-outline">
<path id="Vector" fill-rule="evenodd" clip-rule="evenodd" d="M28.125 12.1138C28.125 16.6012 24.4874 20.2388 20 20.2388C15.5126 20.2388 11.875 16.6012 11.875 12.1138C11.875 7.62633 15.5126 3.98877 20 3.98877C24.4874 3.98877 28.125 7.62633 28.125 12.1138ZM26.5 12.1138C26.5 13.8377 25.8152 15.491 24.5962 16.71C23.3772 17.929 21.7239 18.6138 20 18.6138C18.2761 18.6138 16.6228 17.929 15.4038 16.71C14.1848 15.491 13.5 13.8377 13.5 12.1138C13.5 10.3899 14.1848 8.73656 15.4038 7.51758C16.6228 6.29859 18.2761 5.61377 20 5.61377C21.7239 5.61377 23.3772 6.29859 24.5962 7.51758C25.8152 8.73656 26.5 10.3899 26.5 12.1138ZM15.0551 22.5585L15.0641 22.5763C15.1015 22.6496 15.1768 22.6958 15.2591 22.6958H24.068C24.4389 22.6958 24.765 22.4764 25.0144 22.2018C25.2112 21.9851 25.4515 21.8204 25.6875 21.8743C26.6027 22.0825 27.5243 22.3722 28.4098 22.7289C28.4152 22.7311 28.4213 22.7309 28.4266 22.7283L28.4271 22.7281C28.4371 22.7232 28.4491 22.7273 28.4541 22.7372C28.4583 22.7451 28.4651 22.7512 28.4734 22.7546C31.8112 24.1138 34.625 26.4136 34.625 28.8269V34.8979C34.625 35.4501 34.1773 35.8979 33.625 35.8979H6.375C5.82272 35.8979 5.375 35.4501 5.375 34.8979V28.8269C5.375 25.7597 9.92175 22.8737 14.3125 21.8743C14.6708 21.7931 14.8837 22.2156 15.0551 22.5585ZM27.0603 24.4705C27.0822 24.1647 26.8819 23.8942 26.5896 23.8019C26.5405 23.7864 26.4914 23.7711 26.4421 23.7561C26.1938 23.6802 25.9287 23.7957 25.8078 24.0256C25.7123 24.2071 25.5241 24.3208 25.319 24.3208H14.45C14.262 24.3208 14.0895 24.2166 14.002 24.0503L13.8866 23.8309C13.8409 23.744 13.7401 23.7017 13.6461 23.7299C13.5669 23.7536 13.5089 23.8225 13.5045 23.905C13.5037 23.92 13.503 23.9353 13.5024 23.9511C13.4919 24.2314 13.513 24.5637 13.5593 24.9017C13.5778 25.0385 13.6005 25.1746 13.6275 25.3099C13.7051 25.6988 14.0496 25.9554 14.417 26.1047C14.7415 26.2364 15.0361 26.4375 15.279 26.6967C15.6719 27.1162 15.904 27.661 15.9342 28.235C15.9644 28.8089 15.7908 29.3751 15.4441 29.8335C15.0974 30.2919 14.5998 30.613 14.0393 30.7402C13.4788 30.8673 12.8914 30.7924 12.3808 30.5285C11.8703 30.2646 11.4694 29.8287 11.2489 29.2979C11.0285 28.7672 11.0027 28.1755 11.1762 27.6276C11.3472 27.0871 11.7012 26.6235 12.1768 26.316C12.1886 26.3084 12.1941 26.294 12.1902 26.2805C12.082 25.9006 12.0013 25.5134 11.9489 25.1219C11.8989 24.7591 11.521 24.522 11.1914 24.6816C10.4485 25.0411 9.75692 25.4484 9.15475 25.8873C7.59313 27.028 7 28.094 7 28.8269V33.2729C7 33.8251 7.44772 34.2729 8 34.2729H32C32.5523 34.2729 33 33.8251 33 33.2729V28.8269C33 28.0932 32.4069 27.0272 30.8452 25.8881C30.3558 25.5362 29.8435 25.2177 29.3119 24.9347C29.0102 24.7741 28.6507 24.9837 28.5969 25.3212C28.5886 25.3729 28.5799 25.4245 28.5707 25.476C28.5294 25.7072 28.7026 25.9263 28.9375 25.9263C29.0884 25.9263 29.2362 25.9684 29.3645 26.0478C29.4928 26.1271 29.5964 26.2406 29.6639 26.3756L30.4764 28.0006C30.5333 28.1135 30.5625 28.2378 30.5625 28.3638V29.9888C30.5625 30.2043 30.4769 30.4109 30.3245 30.5633C30.1722 30.7157 29.9655 30.8013 29.75 30.8013H28.9375C28.4888 30.8013 28.125 30.4375 28.125 29.9888V29.5825C28.125 29.3582 28.3069 29.1763 28.5312 29.1763C28.7556 29.1763 28.9375 28.9944 28.9375 28.77V28.6741C28.9375 28.5961 28.9193 28.5192 28.8845 28.4495L28.7118 28.1041C28.5424 27.7653 28.1961 27.5513 27.8173 27.5513H26.8077C26.4289 27.5513 26.0826 27.7653 25.9132 28.1041L25.7405 28.4495C25.7057 28.5192 25.6875 28.5961 25.6875 28.6741V28.77C25.6875 28.9944 25.8694 29.1763 26.0938 29.1763C26.3181 29.1763 26.5 29.3582 26.5 29.5825V29.9888C26.5 30.4375 26.1362 30.8013 25.6875 30.8013H24.875C24.6595 30.8013 24.4528 30.7157 24.3005 30.5633C24.1481 30.4109 24.0625 30.2043 24.0625 29.9888V28.3638C24.0625 28.2378 24.0918 28.1135 24.1486 28.0006L24.9611 26.3756C25.0286 26.2406 25.1322 26.1271 25.2605 26.0478C25.3888 25.9684 25.5367 25.9263 25.6875 25.9263H26.689C26.7514 25.9263 26.8078 25.8857 26.8242 25.8255C26.9006 25.5647 26.9688 25.2405 27.0151 24.9025C27.035 24.7559 27.0503 24.6108 27.0603 24.4705ZM14.3125 28.3638C14.3125 28.8301 13.9371 29.1885 13.5 29.1885C13.0629 29.1885 12.6875 28.831 12.6875 28.3638C12.6875 27.8974 13.0629 27.5391 13.5 27.5391C13.9371 27.5391 14.3125 27.8966 14.3125 28.3638Z" fill="#C989DD" stroke="#C989DD" stroke-width="0.5" stroke-linejoin="round"/>
</g>
</svg>
