<svg width="19" height="18" viewBox="0 0 19 18" fill="none" xmlns="http://www.w3.org/2000/svg">
<g id="Icon Before">
<g id="Icon">
<path fill-rule="evenodd" clip-rule="evenodd" d="M3.5 8.25C3.5 5.3505 5.8505 3 8.75 3C11.6495 3 14 5.3505 14 8.25C14 9.66446 13.4406 10.9483 12.531 11.8923C12.5054 11.912 12.4807 11.9337 12.4572 11.9572C12.4337 11.9807 12.412 12.0054 12.3923 12.031C11.4483 12.9406 10.1645 13.5 8.75 13.5C5.8505 13.5 3.5 11.1495 3.5 8.25ZM12.9633 13.5239L12.4572 13.0178C12.1878 12.7485 12.1662 12.3251 12.3923 12.031C12.4394 11.9857 12.4857 11.9394 12.531 11.8923C12.8251 11.6662 13.2485 11.6878 13.5178 11.9572L14.0239 12.4633C13.7107 12.8548 13.3548 13.2107 12.9633 13.5239ZM12.9633 13.5239L15.7197 16.2803C16.0126 16.5732 16.4874 16.5732 16.7803 16.2803C17.0732 15.9874 17.0732 15.5126 16.7803 15.2197L14.0239 12.4633C14.9476 11.3085 15.5 9.84376 15.5 8.25C15.5 4.52208 12.4779 1.5 8.75 1.5C5.02208 1.5 2 4.52208 2 8.25C2 11.9779 5.02208 15 8.75 15C10.3438 15 11.8085 14.4476 12.9633 13.5239Z" fill="#C989DD"/>
<path d="M12.4572 13.0178L12.9633 13.5239C13.3548 13.2107 13.7107 12.8548 14.0239 12.4633L13.5178 11.9572C13.2485 11.6878 12.8251 11.6662 12.531 11.8923C12.4857 11.9394 12.4394 11.9857 12.3923 12.031C12.1662 12.3251 12.1878 12.7485 12.4572 13.0178Z" fill="#C989DD"/>
</g>
</g>
</svg>