<svg width="15" height="14" viewBox="0 0 15 14" fill="none" xmlns="http://www.w3.org/2000/svg">
<g id="mail-02">
<path id="Icon" d="M13.039 10.5002L9.16406 7.00016M5.83073 7.00016L1.95575 10.5002M1.66406 4.0835L6.42693 7.4175C6.81261 7.68748 7.00546 7.82247 7.21522 7.87476C7.4005 7.92094 7.59429 7.92094 7.77957 7.87476C7.98933 7.82247 8.18218 7.68748 8.56786 7.41751L13.3307 4.0835M4.46406 11.6668H10.5307C11.5108 11.6668 12.0009 11.6668 12.3752 11.4761C12.7045 11.3083 12.9722 11.0406 13.14 10.7113C13.3307 10.337 13.3307 9.84692 13.3307 8.86683V5.1335C13.3307 4.1534 13.3307 3.66336 13.14 3.28901C12.9722 2.95973 12.7045 2.69201 12.3752 2.52423C12.0009 2.3335 11.5108 2.3335 10.5307 2.3335H4.46406C3.48397 2.3335 2.99392 2.3335 2.61958 2.52423C2.2903 2.69201 2.02258 2.95973 1.8548 3.28901C1.66406 3.66336 1.66406 4.1534 1.66406 5.1335V8.86683C1.66406 9.84692 1.66406 10.337 1.8548 10.7113C2.02258 11.0406 2.2903 11.3083 2.61958 11.4761C2.99392 11.6668 3.48397 11.6668 4.46406 11.6668Z" stroke="#40AAF2" stroke-width="1.2" stroke-linecap="round" stroke-linejoin="round"/>
</g>
</svg>
