<svg width="18" height="10" viewBox="0 0 18 10" fill="none" xmlns="http://www.w3.org/2000/svg">
<path id="Vector" d="M12.9772 6.76714L12.6319 7.25777L12.6319 7.25778L12.9772 6.76714ZM15.7466 8.71653L15.4013 9.20717C15.4332 9.22963 15.4672 9.24893 15.5029 9.26479L15.7466 8.71653ZM16.5 8.22701L17.1 8.22701V8.22701H16.5ZM16.5 1.77279H17.1V1.77278L16.5 1.77279ZM15.7466 1.28327L15.5029 0.735009C15.4672 0.750864 15.4332 0.770163 15.4013 0.792628L15.7466 1.28327ZM12.9772 3.23266L12.6319 2.74202L12.6319 2.74203L12.9772 3.23266ZM12.7499 3.67062L12.1499 3.67049V3.67062H12.7499ZM12.7499 6.32918H12.1499V6.32931L12.7499 6.32918ZM9.40203 9.28605V9.88605L9.40376 9.88605L9.40203 9.28605ZM3.24113 9.28605L3.2394 9.88605H3.24113V9.28605ZM1.5 7.54492H0.899997L0.900002 7.54665L1.5 7.54492ZM1.5 2.45548L0.9 2.45376V2.45548H1.5ZM3.24113 0.714355V0.114353L3.2394 0.114358L3.24113 0.714355ZM9.4181 0.714355L9.41996 0.114355H9.4181V0.714355ZM11.1432 2.43941H11.7432L11.7432 2.43755L11.1432 2.43941ZM11.1432 7.54492L11.7432 7.54665V7.54492H11.1432ZM12.6319 7.25778L15.4013 9.20717L16.092 8.22589L13.3226 6.2765L12.6319 7.25778ZM15.5029 9.26479C15.6758 9.34167 15.8652 9.37412 16.0538 9.35919L15.9592 8.16293C15.9699 8.16209 15.9806 8.16392 15.9904 8.16827L15.5029 9.26479ZM16.0538 9.35919C16.2425 9.34427 16.4244 9.28245 16.5831 9.17934L15.9293 8.17311C15.9382 8.16727 15.9485 8.16377 15.9592 8.16293L16.0538 9.35919ZM16.5831 9.17934C16.7418 9.07624 16.8722 8.93511 16.9624 8.7688L15.9078 8.19634C15.9129 8.18693 15.9203 8.17894 15.9293 8.17311L16.5831 9.17934ZM16.9624 8.7688C17.0527 8.60249 17.1 8.41625 17.1 8.22701L15.9 8.227C15.9 8.21629 15.9027 8.20575 15.9078 8.19634L16.9624 8.7688ZM17.1 8.22701V1.77279H15.9V8.22701H17.1ZM17.1 1.77278C17.1 1.58355 17.0527 1.39731 16.9624 1.231L15.9078 1.80346C15.9027 1.79405 15.9 1.78351 15.9 1.7728L17.1 1.77278ZM16.9624 1.231C16.8722 1.06468 16.7418 0.92356 16.5831 0.820453L15.9293 1.82669C15.9203 1.82085 15.9129 1.81287 15.9078 1.80346L16.9624 1.231ZM16.5831 0.820453C16.4244 0.717347 16.2425 0.655524 16.0538 0.640602L15.9592 1.83687C15.9485 1.83602 15.9382 1.83252 15.9293 1.82669L16.5831 0.820453ZM16.0538 0.640602C15.8652 0.62568 15.6758 0.658132 15.5029 0.735009L15.9904 1.83152C15.9806 1.83587 15.9699 1.83771 15.9592 1.83687L16.0538 0.640602ZM15.4013 0.792628L12.6319 2.74202L13.3226 3.72329L16.092 1.7739L15.4013 0.792628ZM12.6319 2.74203C12.483 2.84683 12.3615 2.98588 12.2776 3.14746L13.3427 3.70034C13.3379 3.70949 13.331 3.71735 13.3226 3.72328L12.6319 2.74203ZM12.2776 3.14746C12.1937 3.30905 12.1499 3.48843 12.1499 3.67049L13.3499 3.67074C13.3499 3.68105 13.3474 3.6912 13.3427 3.70034L12.2776 3.14746ZM12.1499 3.67062V6.32918H13.3499V3.67062H12.1499ZM12.1499 6.32931C12.1499 6.51137 12.1937 6.69075 12.2776 6.85233L13.3427 6.29945C13.3474 6.3086 13.3499 6.31875 13.3499 6.32905L12.1499 6.32931ZM12.2776 6.85233C12.3615 7.01392 12.483 7.15297 12.6319 7.25777L13.3226 6.27651C13.331 6.28244 13.3379 6.29031 13.3427 6.29945L12.2776 6.85233ZM9.40203 8.68605H3.24113V9.88605H9.40203V8.68605ZM3.24285 8.68605C2.94001 8.68518 2.64983 8.5645 2.43569 8.35036L1.58716 9.19889C2.0255 9.63722 2.6195 9.88427 3.2394 9.88605L3.24285 8.68605ZM2.43569 8.35036C2.22155 8.13622 2.10087 7.84604 2.1 7.5432L0.900002 7.54665C0.901783 8.16655 1.14883 8.76055 1.58716 9.19889L2.43569 8.35036ZM2.1 7.54492V2.45548H0.9V7.54492H2.1ZM2.1 2.4572C2.10087 2.15437 2.22155 1.86419 2.43569 1.65005L1.58716 0.801519C1.14883 1.23986 0.901783 1.83386 0.900002 2.45376L2.1 2.4572ZM2.43569 1.65005C2.64983 1.43591 2.94001 1.31522 3.24285 1.31435L3.2394 0.114358C2.6195 0.116138 2.0255 0.363182 1.58716 0.801519L2.43569 1.65005ZM3.24113 1.31436H9.4181V0.114355H3.24113V1.31436ZM9.41625 1.31435C9.71484 1.31528 10.0009 1.4343 10.2121 1.64544L11.0606 0.796909C10.6253 0.361637 10.0355 0.116261 9.41996 0.114358L9.41625 1.31435ZM10.2121 1.64544C10.4232 1.85657 10.5422 2.14267 10.5432 2.44126L11.7432 2.43755C11.7413 1.82199 11.4959 1.23218 11.0606 0.796909L10.2121 1.64544ZM10.5432 2.43941V7.54492H11.7432V2.43941H10.5432ZM10.5432 7.5432C10.5423 7.84604 10.4216 8.13622 10.2075 8.35036L11.056 9.19889C11.4943 8.76055 11.7414 8.16655 11.7432 7.54665L10.5432 7.5432ZM10.2075 8.35036C9.99333 8.5645 9.70314 8.68518 9.40031 8.68605L9.40376 9.88605C10.0237 9.88427 10.6177 9.63722 11.056 9.19889L10.2075 8.35036Z" fill="white"/>
</svg>
