<svg width="16" height="15" viewBox="0 0 16 15" fill="none" xmlns="http://www.w3.org/2000/svg">
<g id="phone">
<path id="Icon" d="M5.73474 5.53335C6.16974 6.43936 6.76273 7.28851 7.51372 8.03949C8.26471 8.79048 9.11386 9.38347 10.0199 9.81847C10.0978 9.85589 10.1368 9.8746 10.1861 9.88897C10.3613 9.94005 10.5765 9.90336 10.7249 9.7971C10.7666 9.7672 10.8023 9.73148 10.8738 9.66003C11.0923 9.44153 11.2015 9.33228 11.3114 9.26085C11.7257 8.99148 12.2598 8.99148 12.6741 9.26085C12.784 9.33228 12.8932 9.44153 13.1117 9.66003L13.2335 9.78183C13.5657 10.114 13.7318 10.2801 13.822 10.4584C14.0014 10.8131 14.0014 11.2321 13.822 11.5868C13.7318 11.7651 13.5657 11.9312 13.2335 12.2634L13.135 12.3619C12.804 12.6929 12.6385 12.8584 12.4135 12.9848C12.1638 13.1251 11.776 13.2259 11.4896 13.2251C11.2315 13.2243 11.0551 13.1743 10.7023 13.0741C8.80645 12.536 7.01747 11.5207 5.52498 10.0282C4.0325 8.53574 3.0172 6.74677 2.47909 4.8509C2.37896 4.49812 2.3289 4.32173 2.32813 4.06364C2.32728 3.77725 2.42813 3.38944 2.56839 3.13975C2.6948 2.91473 2.8603 2.74922 3.19132 2.41821L3.28984 2.31969C3.62199 1.98753 3.78807 1.82146 3.96643 1.73124C4.32116 1.55182 4.74007 1.55182 5.0948 1.73124C5.27316 1.82146 5.43924 1.98753 5.77139 2.31969L5.89318 2.44148C6.11169 2.65998 6.22094 2.76924 6.29237 2.8791C6.56174 3.2934 6.56174 3.82752 6.29237 4.24182C6.22094 4.35168 6.11169 4.46094 5.89318 4.67944C5.82174 4.75088 5.78601 4.78661 5.75611 4.82836C5.64986 4.97676 5.61317 5.19192 5.66424 5.36714C5.67862 5.41645 5.69733 5.45541 5.73474 5.53335Z" stroke="#40AAF2" stroke-width="1.2" stroke-linecap="round" stroke-linejoin="round"/>
</g>
</svg>
