<svg width="16" height="16" viewBox="0 0 16 16" fill="none" xmlns="http://www.w3.org/2000/svg">
<path id="Vector" d="M5.06522 7.38462C4.20038 7.38462 3.37096 7.06044 2.75943 6.48341C2.1479 5.90637 1.80435 5.12374 1.80435 4.30769V1.84615C1.80435 1.68294 1.87306 1.52642 1.99536 1.41101C2.11767 1.2956 2.28355 1.23077 2.45652 1.23077H3.10869C3.28166 1.23077 3.44754 1.16593 3.56985 1.05053C3.69216 0.93512 3.76087 0.778595 3.76087 0.615385C3.76087 0.452174 3.69216 0.295649 3.56985 0.180242C3.44754 0.064835 3.28166 0 3.10869 0H2.45652C1.93762 0 1.43997 0.194505 1.07305 0.540726C0.706133 0.886947 0.5 1.35652 0.5 1.84615V4.30769C0.500838 5.00292 0.680503 5.68756 1.02356 6.30282C1.36663 6.91808 1.86283 7.44558 2.46956 7.84C3.0525 8.32494 3.52524 8.91631 3.85927 9.57841C4.1933 10.2405 4.38168 10.9596 4.41304 11.6923C4.41304 12.8348 4.89402 13.9305 5.75016 14.7383C6.60631 15.5462 7.76749 16 8.97826 16C10.189 16 11.3502 15.5462 12.2064 14.7383C13.0625 13.9305 13.5435 12.8348 13.5435 11.6923V10.9908C14.1582 10.841 14.694 10.4848 15.0504 9.98892C15.4067 9.49306 15.5592 8.89158 15.4792 8.29723C15.3992 7.70288 15.0922 7.15647 14.6158 6.76042C14.1394 6.36436 13.5262 6.14586 12.8913 6.14586C12.2564 6.14586 11.6432 6.36436 11.1668 6.76042C10.6904 7.15647 10.3834 7.70288 10.3034 8.29723C10.2234 8.89158 10.3759 9.49306 10.7322 9.98892C11.0886 10.4848 11.6243 10.841 12.2391 10.9908V11.6923C12.2391 12.5084 11.8956 13.291 11.284 13.868C10.6725 14.4451 9.84309 14.7692 8.97826 14.7692C8.11342 14.7692 7.28401 14.4451 6.67248 13.868C6.06094 13.291 5.71739 12.5084 5.71739 11.6923C5.7504 10.9587 5.94082 10.239 6.27712 9.57689C6.61341 8.91474 7.0886 8.32385 7.67391 7.84C8.27823 7.44421 8.7719 6.91611 9.11264 6.30094C9.45338 5.68576 9.63105 5.00182 9.63043 4.30769V1.84615C9.63043 1.35652 9.4243 0.886947 9.05738 0.540726C8.69046 0.194505 8.19281 0 7.67391 0H7.02174C6.84877 0 6.68289 0.064835 6.56058 0.180242C6.43827 0.295649 6.36956 0.452174 6.36956 0.615385C6.36956 0.778595 6.43827 0.93512 6.56058 1.05053C6.68289 1.16593 6.84877 1.23077 7.02174 1.23077H7.67391C7.84688 1.23077 8.01276 1.2956 8.13507 1.41101C8.25737 1.52642 8.32608 1.68294 8.32608 1.84615V4.30769C8.32608 4.71176 8.24174 5.11187 8.07787 5.48518C7.91399 5.85849 7.6738 6.19769 7.371 6.48341C7.0682 6.76912 6.70872 6.99577 6.3131 7.1504C5.91747 7.30503 5.49344 7.38462 5.06522 7.38462ZM12.8913 9.84615C12.5454 9.84615 12.2136 9.71648 11.969 9.48567C11.7244 9.25486 11.587 8.9418 11.587 8.61539C11.587 8.28896 11.7244 7.97591 11.969 7.7451C12.2136 7.51429 12.5454 7.38462 12.8913 7.38462C13.2372 7.38462 13.569 7.51429 13.8136 7.7451C14.0582 7.97591 14.1956 8.28896 14.1956 8.61539C14.1956 8.9418 14.0582 9.25486 13.8136 9.48567C13.569 9.71648 13.2372 9.84615 12.8913 9.84615Z" fill="white"/>
</svg>
